STARTFONT 2.1
COMMENT
COMMENT Converted from OpenType font "montserrat.ttf" by "otf2bdf 3.0".
COMMENT
FONT -FreeType-Montserrat Thin-Medium-R-Normal--28-200-100-100-P-139-ISO10646-1
SIZE 20 100 100
FONTBOUNDINGBOX 47 35 -5 -7
STARTPROPERTIES 19
FOUNDRY "FreeType"
FAMILY_NAME "Montserrat Thin"
WEIGHT_NAME "Medium"
SLANT "R"
SETWIDTH_NAME "Normal"
ADD_STYLE_NAME ""
PIXEL_SIZE 28
POINT_SIZE 200
RESOLUTION_X 100
RESOLUTION_Y 100
SPACING "P"
AVERAGE_WIDTH 139
CHARSET_REGISTRY "ISO10646"
CHARSET_ENCODING "1"
FONT_ASCENT 27
FONT_DESCENT 7
COPYRIGHT "Copyright 2011 The Montserrat Project Authors (https://github.com/JulietaUla/Montserrat)"
_OTF_FONTFILE "montserrat.ttf"
_OTF_PSNAME "Montserrat-Thin"
ENDPROPERTIES
CHARS 969
STARTCHAR 0000
ENCODING 0
SWIDTH 0 0
DWIDTH 0 0
BBX 0 0 0 0
BITMAP
ENDCHAR
STARTCHAR 000D
ENCODING 13
SWIDTH 216 0
DWIDTH 6 0
BBX 0 0 0 0
BITMAP
ENDCHAR
STARTCHAR 0020
ENCODING 32
SWIDTH 216 0
DWIDTH 6 0
BBX 0 0 0 0
BITMAP
ENDCHAR
STARTCHAR 0021
ENCODING 33
SWIDTH 216 0
DWIDTH 6 0
BBX 1 19 3 0
BITMAP
80
80
80
80
80
80
80
80
80
80
80
80
80
80
00
00
00
00
80
ENDCHAR
STARTCHAR 0022
ENCODING 34
SWIDTH 324 0
DWIDTH 9 0
BBX 5 7 2 12
BITMAP
88
88
88
88
88
88
88
ENDCHAR
STARTCHAR 0023
ENCODING 35
SWIDTH 648 0
DWIDTH 18 0
BBX 17 19 1 0
BITMAP
040800
040800
040800
040800
040800
7FFF80
080800
080800
081000
081000
081000
081000
081000
FFFF00
081000
101000
101000
102000
102000
ENDCHAR
STARTCHAR 0024
ENCODING 36
SWIDTH 576 0
DWIDTH 16 0
BBX 13 26 2 -3
BITMAP
0200
0200
0200
0300
3EE0
4210
8200
8200
8200
8200
8200
4200
3A00
0700
02E0
0210
0208
0208
0208
0208
8210
4210
3FE0
0200
0200
0200
ENDCHAR
STARTCHAR 0025
ENCODING 37
SWIDTH 792 0
DWIDTH 22 0
BBX 20 20 1 0
BITMAP
080000
360180
410100
810200
808400
808400
808800
811000
411000
412000
3E47C0
004820
008820
011010
011010
021010
041010
080820
080820
1007C0
ENDCHAR
STARTCHAR 0026
ENCODING 38
SWIDTH 612 0
DWIDTH 17 0
BBX 15 19 2 1
BITMAP
1D80
2040
2040
2040
2040
2080
1100
0A00
0C00
1200
6100
8084
8044
8048
8028
8010
8018
4024
3FC2
ENDCHAR
STARTCHAR 0027
ENCODING 39
SWIDTH 180 0
DWIDTH 5 0
BBX 1 7 2 12
BITMAP
80
80
80
80
80
80
80
ENDCHAR
STARTCHAR 0028
ENCODING 40
SWIDTH 288 0
DWIDTH 8 0
BBX 4 26 3 -5
BITMAP
10
20
20
20
40
40
40
80
80
80
80
80
80
80
80
80
80
80
80
80
40
40
40
20
20
10
ENDCHAR
STARTCHAR 0029
ENCODING 41
SWIDTH 288 0
DWIDTH 8 0
BBX 3 25 2 -4
BITMAP
80
80
40
40
40
40
20
20
20
20
20
20
20
20
20
20
20
20
20
40
40
40
40
80
80
ENDCHAR
STARTCHAR 002A
ENCODING 42
SWIDTH 324 0
DWIDTH 9 0
BBX 8 8 1 12
BITMAP
10
10
D3
34
18
76
91
10
ENDCHAR
STARTCHAR 002B
ENCODING 43
SWIDTH 540 0
DWIDTH 15 0
BBX 11 11 2 4
BITMAP
0400
0400
0400
0400
0400
FFE0
0400
0400
0400
0400
0400
ENDCHAR
STARTCHAR 002C
ENCODING 44
SWIDTH 180 0
DWIDTH 5 0
BBX 1 4 2 -4
BITMAP
80
80
80
80
ENDCHAR
STARTCHAR 002D
ENCODING 45
SWIDTH 360 0
DWIDTH 10 0
BBX 7 1 2 7
BITMAP
FE
ENDCHAR
STARTCHAR 002E
ENCODING 46
SWIDTH 180 0
DWIDTH 5 0
BBX 1 1 2 0
BITMAP
80
ENDCHAR
STARTCHAR 002F
ENCODING 47
SWIDTH 288 0
DWIDTH 8 0
BBX 10 25 -1 -3
BITMAP
0040
0040
0080
0080
0100
0100
0100
0200
0200
0200
0400
0400
0400
0800
0800
0800
1000
1000
1000
2000
2000
2000
4000
4000
8000
ENDCHAR
STARTCHAR 0030
ENCODING 48
SWIDTH 648 0
DWIDTH 18 0
BBX 14 20 2 0
BITMAP
0200
1CE0
2010
4008
8008
8004
8004
8004
8004
8004
8004
8004
8004
8004
8004
8004
4008
4010
3020
0FC0
ENDCHAR
STARTCHAR 0031
ENCODING 49
SWIDTH 324 0
DWIDTH 9 0
BBX 5 19 1 0
BITMAP
F8
08
08
08
08
08
08
08
08
08
08
08
08
08
08
08
08
08
08
ENDCHAR
STARTCHAR 0032
ENCODING 50
SWIDTH 540 0
DWIDTH 15 0
BBX 13 20 1 0
BITMAP
0600
39C0
C020
0010
0010
0010
0010
0010
0020
0020
0040
0080
0100
0200
0400
0800
1000
2000
4000
FFF8
ENDCHAR
STARTCHAR 0033
ENCODING 51
SWIDTH 540 0
DWIDTH 15 0
BBX 13 19 1 0
BITMAP
7FE0
0020
0040
0080
0100
0100
0200
0400
0700
00E0
0010
0010
0008
0008
0008
0010
8010
4020
3FC0
ENDCHAR
STARTCHAR 0034
ENCODING 52
SWIDTH 612 0
DWIDTH 17 0
BBX 16 19 1 0
BITMAP
0020
0040
0080
0080
0100
0200
0400
0800
0810
1010
2010
4010
8010
7FFF
0010
0010
0010
0010
0010
ENDCHAR
STARTCHAR 0035
ENCODING 53
SWIDTH 540 0
DWIDTH 15 0
BBX 13 19 1 0
BITMAP
3FF0
4000
4000
4000
4000
4000
4000
4000
7F80
0060
0010
0008
0008
0008
0008
0008
8010
4020
3FC0
ENDCHAR
STARTCHAR 0036
ENCODING 54
SWIDTH 576 0
DWIDTH 16 0
BBX 13 20 2 0
BITMAP
0100
0E70
3000
4000
8000
8000
8000
8000
8000
8FE0
B010
C008
8008
8008
8008
8008
4008
4008
2010
1FE0
ENDCHAR
STARTCHAR 0037
ENCODING 55
SWIDTH 540 0
DWIDTH 15 0
BBX 13 19 1 0
BITMAP
FFF8
8008
8010
8010
0020
0020
0020
0040
0040
0080
0080
0100
0100
0200
0200
0400
0400
0400
0800
ENDCHAR
STARTCHAR 0038
ENCODING 56
SWIDTH 612 0
DWIDTH 17 0
BBX 14 20 2 0
BITMAP
0300
3CE0
4010
8008
8008
8008
8008
8008
4010
3DE0
3220
4010
8008
8004
8004
8004
8004
8008
4010
3FE0
ENDCHAR
STARTCHAR 0039
ENCODING 57
SWIDTH 576 0
DWIDTH 16 0
BBX 14 19 1 1
BITMAP
3DC0
4020
8010
8008
8008
8008
800C
8014
4014
2024
1FC4
0004
0004
0008
0008
0010
0010
0020
3FC0
ENDCHAR
STARTCHAR 003A
ENCODING 58
SWIDTH 180 0
DWIDTH 5 0
BBX 1 14 2 0
BITMAP
80
00
00
00
00
00
00
00
00
00
00
00
00
80
ENDCHAR
STARTCHAR 003B
ENCODING 59
SWIDTH 180 0
DWIDTH 5 0
BBX 1 17 2 -4
BITMAP
80
00
00
00
00
00
00
00
00
00
00
00
00
80
80
80
80
ENDCHAR
STARTCHAR 003C
ENCODING 60
SWIDTH 540 0
DWIDTH 15 0
BBX 11 9 2 6
BITMAP
00E0
0300
0C00
7000
8000
7000
0C00
0380
0060
ENDCHAR
STARTCHAR 003D
ENCODING 61
SWIDTH 540 0
DWIDTH 15 0
BBX 11 7 2 6
BITMAP
FFE0
0000
0000
0000
0000
0000
FFE0
ENDCHAR
STARTCHAR 003E
ENCODING 62
SWIDTH 540 0
DWIDTH 15 0
BBX 11 10 2 5
BITMAP
8000
6000
1C00
0300
00C0
0020
00C0
0700
1800
6000
ENDCHAR
STARTCHAR 003F
ENCODING 63
SWIDTH 540 0
DWIDTH 15 0
BBX 12 19 1 1
BITMAP
79C0
8020
0010
0010
0010
0010
0020
0020
0040
0080
0100
0200
0200
0200
0000
0000
0000
0000
0200
ENDCHAR
STARTCHAR 0040
ENCODING 64
SWIDTH 1008 0
DWIDTH 28 0
BBX 25 25 2 -5
BITMAP
00180000
01E7C000
06003000
08000800
30000400
20000200
407F2200
8180A100
82006100
82006080
84002080
84002080
84002080
84002080
84002080
84002080
82006080
82006100
8180A100
40771E00
20080000
20000000
18000000
04000000
03FF8000
ENDCHAR
STARTCHAR 0041
ENCODING 65
SWIDTH 684 0
DWIDTH 19 0
BBX 19 19 0 0
BITMAP
00C000
00A000
00A000
011000
011000
020800
020800
040400
040400
080400
080200
100200
100100
2FFF00
200080
200080
400040
400040
800020
ENDCHAR
STARTCHAR 0042
ENCODING 66
SWIDTH 720 0
DWIDTH 20 0
BBX 15 19 4 0
BITMAP
FFF0
8008
8004
8004
8004
8004
8004
8008
8020
FFF0
800C
8004
8002
8002
8002
8002
8004
8008
FFF0
ENDCHAR
STARTCHAR 0043
ENCODING 67
SWIDTH 684 0
DWIDTH 19 0
BBX 16 20 2 0
BITMAP
0060
079C
1803
2000
4000
8000
8000
8000
8000
8000
8000
8000
8000
8000
8000
4000
2000
1000
0803
07FC
ENDCHAR
STARTCHAR 0044
ENCODING 68
SWIDTH 792 0
DWIDTH 22 0
BBX 17 19 4 0
BITMAP
FFF000
800C00
800200
800100
800100
800080
800080
800080
800080
800080
800080
800080
800080
800100
800100
800200
800400
800800
FFF000
ENDCHAR
STARTCHAR 0045
ENCODING 69
SWIDTH 648 0
DWIDTH 18 0
BBX 13 19 4 0
BITMAP
FFF0
8000
8000
8000
8000
8000
8000
8000
8000
FFC0
8000
8000
8000
8000
8000
8000
8000
8000
FFF8
ENDCHAR
STARTCHAR 0046
ENCODING 70
SWIDTH 612 0
DWIDTH 17 0
BBX 12 19 4 0
BITMAP
FFF0
8000
8000
8000
8000
8000
8000
8000
8000
FFE0
8000
8000
8000
8000
8000
8000
8000
8000
8000
ENDCHAR
STARTCHAR 0047
ENCODING 71
SWIDTH 756 0
DWIDTH 21 0
BBX 16 20 2 0
BITMAP
0060
079C
1803
2000
4000
8000
8000
8000
8000
8000
8000
8001
8001
8001
8001
4001
2001
1000
0803
07FC
ENDCHAR
STARTCHAR 0048
ENCODING 72
SWIDTH 792 0
DWIDTH 22 0
BBX 15 19 4 0
BITMAP
8002
8002
8002
8002
8002
8002
8002
8002
8002
FFFE
8002
8002
8002
8002
8002
8002
8002
8002
8002
ENDCHAR
STARTCHAR 0049
ENCODING 73
SWIDTH 252 0
DWIDTH 7 0
BBX 1 19 3 0
BITMAP
80
80
80
80
80
80
80
80
80
80
80
80
80
80
80
80
80
80
80
ENDCHAR
STARTCHAR 004A
ENCODING 74
SWIDTH 468 0
DWIDTH 13 0
BBX 10 19 0 0
BITMAP
3FC0
0040
0040
0040
0040
0040
0040
0040
0040
0040
0040
0040
0040
0040
0040
0040
8080
4080
3E00
ENDCHAR
STARTCHAR 004B
ENCODING 75
SWIDTH 684 0
DWIDTH 19 0
BBX 14 19 4 0
BITMAP
800C
8010
8020
8040
8080
8100
8200
8400
8400
9C00
A200
A100
C080
8040
8020
8010
8008
800C
8004
ENDCHAR
STARTCHAR 004C
ENCODING 76
SWIDTH 576 0
DWIDTH 16 0
BBX 12 19 4 0
BITMAP
8000
8000
8000
8000
8000
8000
8000
8000
8000
8000
8000
8000
8000
8000
8000
8000
8000
8000
FFF0
ENDCHAR
STARTCHAR 004D
ENCODING 77
SWIDTH 936 0
DWIDTH 26 0
BBX 19 19 4 0
BITMAP
800020
800060
C000A0
C000A0
A00120
900120
900220
880420
880420
840820
840820
821020
811020
812020
80C020
804020
800020
800020
800020
ENDCHAR
STARTCHAR 004E
ENCODING 78
SWIDTH 792 0
DWIDTH 22 0
BBX 15 19 4 0
BITMAP
8002
C002
C002
A002
9002
8802
8402
8402
8202
8102
8082
8082
8042
8022
8012
800A
800A
8006
8002
ENDCHAR
STARTCHAR 004F
ENCODING 79
SWIDTH 828 0
DWIDTH 23 0
BBX 20 20 2 0
BITMAP
006000
079C00
180300
200080
400040
800040
800020
800020
800020
800010
800010
800010
800020
800020
800020
400040
200080
100100
080200
07FC00
ENDCHAR
STARTCHAR 0050
ENCODING 80
SWIDTH 684 0
DWIDTH 19 0
BBX 14 19 4 0
BITMAP
FFE0
8010
8008
8008
8004
8004
8004
8004
8008
8008
8010
8060
FF80
8000
8000
8000
8000
8000
8000
ENDCHAR
STARTCHAR 0051
ENCODING 81
SWIDTH 828 0
DWIDTH 23 0
BBX 20 23 2 -3
BITMAP
006000
079C00
180300
200080
400040
800040
800020
800020
800020
800010
800010
800010
800020
800020
800020
400040
200080
100100
080200
07BC00
006000
001010
000FE0
ENDCHAR
STARTCHAR 0052
ENCODING 82
SWIDTH 684 0
DWIDTH 19 0
BBX 14 19 4 0
BITMAP
FFE0
8010
8008
8008
8004
8004
8004
8004
8008
8008
8010
8060
FFC0
8040
8020
8010
8010
8008
8004
ENDCHAR
STARTCHAR 0053
ENCODING 83
SWIDTH 576 0
DWIDTH 16 0
BBX 13 20 2 0
BITMAP
0300
3CE0
4010
8000
8000
8000
8000
8000
4000
3800
0700
00E0
0010
0008
0008
0008
0008
8010
4010
3FE0
ENDCHAR
STARTCHAR 0054
ENCODING 84
SWIDTH 540 0
DWIDTH 15 0
BBX 14 19 1 0
BITMAP
FFFC
0200
0200
0200
0200
0200
0200
0200
0200
0200
0200
0200
0200
0200
0200
0200
0200
0200
0200
ENDCHAR
STARTCHAR 0055
ENCODING 85
SWIDTH 792 0
DWIDTH 22 0
BBX 15 19 4 0
BITMAP
8002
8002
8002
8002
8002
8002
8002
8002
8002
8002
8002
8002
8004
8004
8004
8004
4008
2010
1FE0
ENDCHAR
STARTCHAR 0056
ENCODING 86
SWIDTH 648 0
DWIDTH 18 0
BBX 18 19 0 0
BITMAP
800040
400080
400080
200080
200100
100100
100200
180200
080400
080400
040800
040800
020800
021000
011000
012000
00A000
00C000
004000
ENDCHAR
STARTCHAR 0057
ENCODING 87
SWIDTH 1080 0
DWIDTH 30 0
BBX 27 19 1 0
BITMAP
80060020
40060020
400A0020
40090040
20090040
20110040
20108080
10108080
10208080
10204100
08404100
08404100
08402200
04802200
04801200
04801400
03001400
03000C00
01000800
ENDCHAR
STARTCHAR 0058
ENCODING 88
SWIDTH 612 0
DWIDTH 17 0
BBX 15 19 1 0
BITMAP
4006
4004
2008
1010
0820
0820
0440
0280
0100
0100
0280
0440
0820
0820
1010
2008
4004
4004
8002
ENDCHAR
STARTCHAR 0059
ENCODING 89
SWIDTH 576 0
DWIDTH 16 0
BBX 15 19 1 0
BITMAP
8002
8004
4004
4008
2008
1010
1020
0820
0840
0440
0280
0300
0100
0100
0100
0100
0100
0100
0100
ENDCHAR
STARTCHAR 005A
ENCODING 90
SWIDTH 612 0
DWIDTH 17 0
BBX 16 19 1 0
BITMAP
7FFE
0004
0008
0008
0010
0020
0040
0040
0080
0100
0200
0200
0400
0800
1000
2000
2000
4000
FFFF
ENDCHAR
STARTCHAR 005B
ENCODING 91
SWIDTH 288 0
DWIDTH 8 0
BBX 3 26 4 -5
BITMAP
E0
80
80
80
80
80
80
80
80
80
80
80
80
80
80
80
80
80
80
80
80
80
80
80
80
E0
ENDCHAR
STARTCHAR 005C
ENCODING 92
SWIDTH 288 0
DWIDTH 8 0
BBX 10 26 -1 -3
BITMAP
8000
8000
4000
4000
4000
2000
2000
2000
1000
1000
0800
0800
0800
0400
0400
0400
0200
0200
0200
0100
0100
0100
0080
0080
0080
0040
ENDCHAR
STARTCHAR 005D
ENCODING 93
SWIDTH 288 0
DWIDTH 8 0
BBX 3 26 1 -5
BITMAP
E0
20
20
20
20
20
20
20
20
20
20
20
20
20
20
20
20
20
20
20
20
20
20
20
20
E0
ENDCHAR
STARTCHAR 005E
ENCODING 94
SWIDTH 540 0
DWIDTH 15 0
BBX 10 11 3 4
BITMAP
0C00
1400
1400
2200
2200
2100
4100
4100
8080
8080
8040
ENDCHAR
STARTCHAR 005F
ENCODING 95
SWIDTH 468 0
DWIDTH 13 0
BBX 14 1 0 -1
BITMAP
FFFC
ENDCHAR
STARTCHAR 0060
ENCODING 96
SWIDTH 576 0
DWIDTH 16 0
BBX 4 3 5 17
BITMAP
80
60
10
ENDCHAR
STARTCHAR 0061
ENCODING 97
SWIDTH 540 0
DWIDTH 15 0
BBX 11 14 2 0
BITMAP
3F80
C040
0020
0020
0020
0020
3FE0
4020
8020
8020
8020
8060
80A0
7F20
ENDCHAR
STARTCHAR 0062
ENCODING 98
SWIDTH 648 0
DWIDTH 18 0
BBX 14 21 3 0
BITMAP
8000
8000
8000
8000
8000
8000
8000
8FE0
B010
C008
8008
8004
8004
8004
8004
8004
8004
C008
C008
B010
8FE0
ENDCHAR
STARTCHAR 0063
ENCODING 99
SWIDTH 540 0
DWIDTH 15 0
BBX 12 14 1 0
BITMAP
0FE0
3010
4000
4000
8000
8000
8000
8000
8000
4000
4000
2000
1010
0FE0
ENDCHAR
STARTCHAR 0064
ENCODING 100
SWIDTH 648 0
DWIDTH 18 0
BBX 14 20 1 1
BITMAP
0004
0004
0004
0004
0004
0004
0FE4
3014
400C
4004
8004
8004
8004
8004
8004
4004
4004
200C
1014
0FE4
ENDCHAR
STARTCHAR 0065
ENCODING 101
SWIDTH 576 0
DWIDTH 16 0
BBX 14 14 1 0
BITMAP
0FE0
3010
4008
4008
8004
8004
FFFC
8000
8000
8000
4000
2008
1010
0FE0
ENDCHAR
STARTCHAR 0066
ENCODING 102
SWIDTH 288 0
DWIDTH 8 0
BBX 9 21 1 0
BITMAP
0600
1980
2000
2000
2000
2000
2000
FE00
2000
2000
2000
2000
2000
2000
2000
2000
2000
2000
2000
2000
2000
ENDCHAR
STARTCHAR 0067
ENCODING 103
SWIDTH 648 0
DWIDTH 18 0
BBX 15 19 1 -5
BITMAP
0FE2
301A
400A
4006
8002
8002
8002
8002
8002
4006
400A
200A
1832
07C2
0004
0004
0004
2008
1FF0
ENDCHAR
STARTCHAR 0068
ENCODING 104
SWIDTH 648 0
DWIDTH 18 0
BBX 13 21 3 0
BITMAP
8000
8000
8000
8000
8000
8000
8000
9FC0
A020
C010
8010
8010
8008
8008
8008
8008
8008
8008
8008
8008
8008
ENDCHAR
STARTCHAR 0069
ENCODING 105
SWIDTH 216 0
DWIDTH 6 0
BBX 1 20 3 0
BITMAP
80
80
00
00
00
00
80
80
80
80
80
80
80
80
80
80
80
80
80
80
ENDCHAR
STARTCHAR 006A
ENCODING 106
SWIDTH 252 0
DWIDTH 7 0
BBX 6 25 -2 -5
BITMAP
04
04
00
00
00
00
04
04
04
04
04
04
04
04
04
04
04
04
04
04
04
04
04
04
F8
ENDCHAR
STARTCHAR 006B
ENCODING 107
SWIDTH 540 0
DWIDTH 15 0
BBX 12 21 3 0
BITMAP
8000
8000
8000
8000
8000
8000
8000
8020
8040
8080
8100
8600
8C00
9400
A200
C100
8080
8040
8040
8020
8010
ENDCHAR
STARTCHAR 006C
ENCODING 108
SWIDTH 216 0
DWIDTH 6 0
BBX 1 21 3 0
BITMAP
80
80
80
80
80
80
80
80
80
80
80
80
80
80
80
80
80
80
80
80
80
ENDCHAR
STARTCHAR 006D
ENCODING 109
SWIDTH 1044 0
DWIDTH 29 0
BBX 24 14 3 0
BITMAP
9FC3F8
A02404
C01802
801802
801001
801001
801001
801001
801001
801001
801001
801001
801001
801001
ENDCHAR
STARTCHAR 006E
ENCODING 110
SWIDTH 648 0
DWIDTH 18 0
BBX 13 14 3 0
BITMAP
9FC0
A020
C010
8010
8010
8008
8008
8008
8008
8008
8008
8008
8008
8008
ENDCHAR
STARTCHAR 006F
ENCODING 111
SWIDTH 576 0
DWIDTH 16 0
BBX 14 14 1 0
BITMAP
0FE0
3010
4008
4004
8004
8004
8004
8004
8004
4004
4004
2008
1010
0FE0
ENDCHAR
STARTCHAR 0070
ENCODING 112
SWIDTH 648 0
DWIDTH 18 0
BBX 14 19 3 -5
BITMAP
8FE0
B010
C008
8008
8004
8004
8004
8004
8004
8004
C008
C008
B010
8EE0
8100
8000
8000
8000
8000
ENDCHAR
STARTCHAR 0071
ENCODING 113
SWIDTH 648 0
DWIDTH 18 0
BBX 14 19 1 -5
BITMAP
0FE4
3014
400C
4004
8004
8004
8004
8004
8004
4004
4004
200C
1014
0EE4
0104
0004
0004
0004
0004
ENDCHAR
STARTCHAR 0072
ENCODING 114
SWIDTH 360 0
DWIDTH 10 0
BBX 6 14 3 0
BITMAP
9C
E0
C0
80
80
80
80
80
80
80
80
80
80
80
ENDCHAR
STARTCHAR 0073
ENCODING 115
SWIDTH 432 0
DWIDTH 12 0
BBX 11 14 1 0
BITMAP
3F80
4040
8000
8000
8000
4000
3800
0780
0040
0020
0020
0020
8040
7F80
ENDCHAR
STARTCHAR 0074
ENCODING 116
SWIDTH 360 0
DWIDTH 10 0
BBX 8 18 1 0
BITMAP
20
20
20
20
FE
20
20
20
20
20
20
20
20
20
20
20
10
0F
ENDCHAR
STARTCHAR 0075
ENCODING 117
SWIDTH 648 0
DWIDTH 18 0
BBX 12 14 3 0
BITMAP
8010
8010
8010
8010
8010
8010
8010
8010
8010
8010
8010
8030
4050
3F90
ENDCHAR
STARTCHAR 0076
ENCODING 118
SWIDTH 504 0
DWIDTH 14 0
BBX 14 14 0 0
BITMAP
8004
4008
4008
2010
2010
2020
1020
1040
0840
0880
0480
0480
0300
0100
ENDCHAR
STARTCHAR 0077
ENCODING 119
SWIDTH 828 0
DWIDTH 23 0
BBX 23 14 0 0
BITMAP
801002
402804
402804
404808
204408
204408
208210
108210
110210
090120
090120
0A0140
0600C0
020040
ENDCHAR
STARTCHAR 0078
ENCODING 120
SWIDTH 468 0
DWIDTH 13 0
BBX 12 14 1 0
BITMAP
8020
4040
2080
1080
0900
0A00
0400
0600
0900
1080
2080
4040
4020
8010
ENDCHAR
STARTCHAR 0079
ENCODING 121
SWIDTH 504 0
DWIDTH 14 0
BBX 15 19 -1 -5
BITMAP
4002
2004
2004
1008
1008
1010
0810
0820
0420
0440
0240
0240
0180
0080
0100
0100
0200
0200
FC00
ENDCHAR
STARTCHAR 007A
ENCODING 122
SWIDTH 468 0
DWIDTH 13 0
BBX 11 14 1 0
BITMAP
7FE0
0040
0080
0080
0100
0200
0400
0400
0800
1000
2000
2000
4000
FFE0
ENDCHAR
STARTCHAR 007B
ENCODING 123
SWIDTH 288 0
DWIDTH 8 0
BBX 6 26 2 -5
BITMAP
0C
30
20
20
20
20
20
20
20
20
20
20
40
C0
20
20
20
20
20
20
20
20
20
20
20
38
ENDCHAR
STARTCHAR 007C
ENCODING 124
SWIDTH 252 0
DWIDTH 7 0
BBX 1 25 3 -4
BITMAP
80
80
80
80
80
80
80
80
80
80
80
80
80
80
80
80
80
80
80
80
80
80
80
80
80
ENDCHAR
STARTCHAR 007D
ENCODING 125
SWIDTH 288 0
DWIDTH 8 0
BBX 6 26 1 -5
BITMAP
80
60
20
20
20
20
20
20
20
20
20
20
20
1C
20
20
20
20
20
20
20
20
20
20
20
E0
ENDCHAR
STARTCHAR 007E
ENCODING 126
SWIDTH 540 0
DWIDTH 15 0
BBX 12 3 2 9
BITMAP
F810
8420
83C0
ENDCHAR
STARTCHAR 00A0
ENCODING 160
SWIDTH 216 0
DWIDTH 6 0
BBX 0 0 0 0
BITMAP
ENDCHAR
STARTCHAR 00A1
ENCODING 161
SWIDTH 216 0
DWIDTH 6 0
BBX 1 18 3 -4
BITMAP
80
00
00
00
00
80
80
80
80
80
80
80
80
80
80
80
80
80
ENDCHAR
STARTCHAR 00A2
ENCODING 162
SWIDTH 540 0
DWIDTH 15 0
BBX 12 21 1 -3
BITMAP
0100
0100
0100
0100
0FE0
3110
4100
4100
8100
8100
8100
8100
8100
4100
4100
2100
1110
0FE0
0100
0100
0100
ENDCHAR
STARTCHAR 00A3
ENCODING 163
SWIDTH 612 0
DWIDTH 17 0
BBX 15 19 1 1
BITMAP
039E
0C00
1000
1000
1000
1000
1000
1000
1000
FFF0
1000
1000
1000
1000
1000
1000
1000
1000
FFFE
ENDCHAR
STARTCHAR 00A4
ENCODING 164
SWIDTH 684 0
DWIDTH 19 0
BBX 17 17 1 0
BITMAP
800080
47F100
280E00
300200
200100
400100
400100
400080
400080
400100
400100
400100
200200
100400
2C0A00
43F100
800080
ENDCHAR
STARTCHAR 00A5
ENCODING 165
SWIDTH 648 0
DWIDTH 18 0
BBX 17 19 1 0
BITMAP
800080
800100
400200
200400
100400
080800
081000
042000
024000
014000
7FFE00
008000
008000
008000
7FFE00
008000
008000
008000
008000
ENDCHAR
STARTCHAR 00A6
ENCODING 166
SWIDTH 252 0
DWIDTH 7 0
BBX 1 25 3 -4
BITMAP
80
80
80
80
80
80
80
80
80
00
00
00
00
00
00
00
80
80
80
80
80
80
80
80
80
ENDCHAR
STARTCHAR 00A7
ENCODING 167
SWIDTH 468 0
DWIDTH 13 0
BBX 11 23 1 -3
BITMAP
0600
39C0
4020
4000
4000
4000
4000
3000
6F00
80C0
8020
8020
8020
4020
3040
0F80
0080
0040
0040
0040
0040
C080
3E00
ENDCHAR
STARTCHAR 00A8
ENCODING 168
SWIDTH 576 0
DWIDTH 16 0
BBX 6 1 5 18
BITMAP
C4
ENDCHAR
STARTCHAR 00A9
ENCODING 169
SWIDTH 792 0
DWIDTH 22 0
BBX 19 20 2 0
BITMAP
004000
07BC00
180300
200080
404080
839840
840420
880020
880020
880020
880020
880020
880020
880020
840440
43B840
204080
100100
080200
07FC00
ENDCHAR
STARTCHAR 00AA
ENCODING 170
SWIDTH 360 0
DWIDTH 10 0
BBX 8 9 1 12
BITMAP
1C
62
01
01
3F
C1
81
83
7D
ENDCHAR
STARTCHAR 00AB
ENCODING 171
SWIDTH 396 0
DWIDTH 11 0
BBX 8 10 2 2
BITMAP
11
22
44
88
88
88
44
42
22
11
ENDCHAR
STARTCHAR 00AC
ENCODING 172
SWIDTH 540 0
DWIDTH 15 0
BBX 11 5 2 4
BITMAP
FFE0
0020
0020
0020
0020
ENDCHAR
STARTCHAR 00AD
ENCODING 173
SWIDTH 360 0
DWIDTH 10 0
BBX 7 1 2 7
BITMAP
FE
ENDCHAR
STARTCHAR 00AE
ENCODING 174
SWIDTH 792 0
DWIDTH 22 0
BBX 19 20 2 0
BITMAP
004000
07BC00
180300
200080
43C080
843840
840420
840420
840420
840420
840420
83F820
841020
840820
840840
440440
200080
100100
080200
07FC00
ENDCHAR
STARTCHAR 00AF
ENCODING 175
SWIDTH 576 0
DWIDTH 16 0
BBX 7 1 5 18
BITMAP
FE
ENDCHAR
STARTCHAR 00B0
ENCODING 176
SWIDTH 396 0
DWIDTH 11 0
BBX 8 9 2 11
BITMAP
10
6E
82
81
81
81
81
42
3C
ENDCHAR
STARTCHAR 00B1
ENCODING 177
SWIDTH 540 0
DWIDTH 15 0
BBX 11 15 2 0
BITMAP
0400
0400
0400
0400
0400
FFE0
0400
0400
0400
0400
0400
0000
0000
0000
FFE0
ENDCHAR
STARTCHAR 00B2
ENCODING 178
SWIDTH 396 0
DWIDTH 11 0
BBX 9 12 1 9
BITMAP
1C00
E300
0100
0080
0100
0100
0200
0400
0800
3000
4000
FF80
ENDCHAR
STARTCHAR 00B3
ENCODING 179
SWIDTH 396 0
DWIDTH 11 0
BBX 9 12 1 9
BITMAP
FF80
0100
0200
0400
0800
0800
0700
0080
0080
0080
8100
7E00
ENDCHAR
STARTCHAR 00B4
ENCODING 180
SWIDTH 576 0
DWIDTH 16 0
BBX 4 3 8 17
BITMAP
30
40
80
ENDCHAR
STARTCHAR 00B5
ENCODING 181
SWIDTH 648 0
DWIDTH 18 0
BBX 12 19 3 -5
BITMAP
8010
8010
8010
8010
8010
8010
8010
8010
8010
8010
8010
C030
A050
9D90
8200
8000
8000
8000
8000
ENDCHAR
STARTCHAR 00B6
ENCODING 182
SWIDTH 576 0
DWIDTH 16 0
BBX 12 24 1 -3
BITMAP
0FF0
7C10
FC10
FC10
FC10
FC10
FC10
7C10
3C10
0410
0410
0410
0410
0410
0410
0410
0410
0410
0410
0410
0410
0410
0410
0410
ENDCHAR
STARTCHAR 00B7
ENCODING 183
SWIDTH 216 0
DWIDTH 6 0
BBX 2 1 2 7
BITMAP
C0
ENDCHAR
STARTCHAR 00B8
ENCODING 184
SWIDTH 576 0
DWIDTH 16 0
BBX 4 6 6 -6
BITMAP
40
40
30
10
10
E0
ENDCHAR
STARTCHAR 00B9
ENCODING 185
SWIDTH 396 0
DWIDTH 11 0
BBX 8 12 2 9
BITMAP
78
08
08
08
08
08
08
08
08
08
08
FF
ENDCHAR
STARTCHAR 00BA
ENCODING 186
SWIDTH 396 0
DWIDTH 11 0
BBX 9 9 1 12
BITMAP
1C00
6300
8080
8080
8080
8080
8080
4100
3E00
ENDCHAR
STARTCHAR 00BB
ENCODING 187
SWIDTH 396 0
DWIDTH 11 0
BBX 8 9 2 2
BITMAP
88
84
44
22
11
21
22
44
88
ENDCHAR
STARTCHAR 00BC
ENCODING 188
SWIDTH 1008 0
DWIDTH 28 0
BBX 24 19 3 0
BITMAP
F000C0
100080
100100
100200
100200
100400
100800
100808
101010
102020
102020
EE4040
008084
008104
010104
0203FF
020004
040004
080004
ENDCHAR
STARTCHAR 00BD
ENCODING 189
SWIDTH 1008 0
DWIDTH 28 0
BBX 24 19 3 0
BITMAP
F000C0
100080
100100
100200
100200
100400
100800
100820
1011CC
102002
102002
EE4002
008004
008008
010010
020020
020040
040080
0801FF
ENDCHAR
STARTCHAR 00BE
ENCODING 190
SWIDTH 1008 0
DWIDTH 28 0
BBX 26 19 1 0
BITMAP
7F003000
02002000
04004000
08008000
08008000
07010000
00820000
00820200
00840400
80880800
73080800
0C101000
00202100
00204100
00404100
0080FFC0
00800100
01000100
02000100
ENDCHAR
STARTCHAR 00BF
ENCODING 191
SWIDTH 540 0
DWIDTH 15 0
BBX 12 18 2 -4
BITMAP
0600
0000
0000
0000
0000
0400
0400
0400
0800
1000
2000
4000
8000
8000
8000
8000
4010
3FE0
ENDCHAR
STARTCHAR 00C0
ENCODING 192
SWIDTH 684 0
DWIDTH 19 0
BBX 19 24 0 0
BITMAP
030000
008000
004000
000000
000000
00C000
00A000
00A000
011000
011000
020800
020800
040400
040400
080400
080200
100200
100100
2FFF00
200080
200080
400040
400040
800020
ENDCHAR
STARTCHAR 00C1
ENCODING 193
SWIDTH 684 0
DWIDTH 19 0
BBX 19 24 0 0
BITMAP
001800
002000
004000
000000
000000
00C000
00A000
00A000
011000
011000
020800
020800
040400
040400
080400
080200
100200
100100
2FFF00
200080
200080
400040
400040
800020
ENDCHAR
STARTCHAR 00C2
ENCODING 194
SWIDTH 684 0
DWIDTH 19 0
BBX 19 24 0 0
BITMAP
00E000
011000
020800
000000
000000
00C000
00A000
00A000
011000
011000
020800
020800
040400
040400
080400
080200
100200
100100
2FFF00
200080
200080
400040
400040
800020
ENDCHAR
STARTCHAR 00C3
ENCODING 195
SWIDTH 684 0
DWIDTH 19 0
BBX 19 24 0 0
BITMAP
018000
024800
003000
000000
000000
00C000
00A000
00A000
011000
011000
020800
020800
040400
040400
080400
080200
100200
100100
2FFF00
200080
200080
400040
400040
800020
ENDCHAR
STARTCHAR 00C4
ENCODING 196
SWIDTH 684 0
DWIDTH 19 0
BBX 19 23 0 0
BITMAP
011800
000000
000000
000000
00C000
00A000
00A000
011000
011000
020800
020800
040400
040400
080400
080200
100200
100100
2FFF00
200080
200080
400040
400040
800020
ENDCHAR
STARTCHAR 00C5
ENCODING 197
SWIDTH 684 0
DWIDTH 19 0
BBX 19 27 0 0
BITMAP
004000
011000
011000
011000
012000
00C000
000000
000000
00C000
00A000
00A000
011000
011000
020800
020800
040400
040400
080400
080200
100200
100100
2FFF00
200080
200080
400040
400040
800020
ENDCHAR
STARTCHAR 00C6
ENCODING 198
SWIDTH 972 0
DWIDTH 27 0
BBX 26 19 0 0
BITMAP
000FFF80
00140000
00240000
00240000
00440000
00840000
00840000
01040000
01040000
0207FF00
04040000
04040000
08040000
17FC0000
10040000
20040000
40040000
40040000
8007FFC0
ENDCHAR
STARTCHAR 00C7
ENCODING 199
SWIDTH 684 0
DWIDTH 19 0
BBX 16 26 2 -6
BITMAP
0060
079C
1803
2000
4000
8000
8000
8000
8000
8000
8000
8000
8000
8000
8000
4000
2000
1000
0803
07BC
00C0
0080
0060
0020
0020
01C0
ENDCHAR
STARTCHAR 00C8
ENCODING 200
SWIDTH 648 0
DWIDTH 18 0
BBX 13 24 4 0
BITMAP
1000
0800
0600
0000
0000
FFF0
8000
8000
8000
8000
8000
8000
8000
8000
FFC0
8000
8000
8000
8000
8000
8000
8000
8000
FFF8
ENDCHAR
STARTCHAR 00C9
ENCODING 201
SWIDTH 648 0
DWIDTH 18 0
BBX 13 24 4 0
BITMAP
0080
0100
0600
0000
0000
FFF0
8000
8000
8000
8000
8000
8000
8000
8000
FFC0
8000
8000
8000
8000
8000
8000
8000
8000
FFF8
ENDCHAR
STARTCHAR 00CA
ENCODING 202
SWIDTH 648 0
DWIDTH 18 0
BBX 13 24 4 0
BITMAP
0600
0900
1080
0000
0000
FFF0
8000
8000
8000
8000
8000
8000
8000
8000
FFC0
8000
8000
8000
8000
8000
8000
8000
8000
FFF8
ENDCHAR
STARTCHAR 00CB
ENCODING 203
SWIDTH 648 0
DWIDTH 18 0
BBX 13 23 4 0
BITMAP
1080
0000
0000
0000
FFF0
8000
8000
8000
8000
8000
8000
8000
8000
FFC0
8000
8000
8000
8000
8000
8000
8000
8000
FFF8
ENDCHAR
STARTCHAR 00CC
ENCODING 204
SWIDTH 252 0
DWIDTH 7 0
BBX 4 24 1 0
BITMAP
80
40
30
00
00
20
20
20
20
20
20
20
20
20
20
20
20
20
20
20
20
20
20
20
ENDCHAR
STARTCHAR 00CD
ENCODING 205
SWIDTH 252 0
DWIDTH 7 0
BBX 4 24 3 0
BITMAP
10
20
C0
00
00
80
80
80
80
80
80
80
80
80
80
80
80
80
80
80
80
80
80
80
ENDCHAR
STARTCHAR 00CE
ENCODING 206
SWIDTH 252 0
DWIDTH 7 0
BBX 6 24 1 0
BITMAP
30
48
84
00
00
20
20
20
20
20
20
20
20
20
20
20
20
20
20
20
20
20
20
20
ENDCHAR
STARTCHAR 00CF
ENCODING 207
SWIDTH 252 0
DWIDTH 7 0
BBX 6 23 1 0
BITMAP
84
00
00
00
20
20
20
20
20
20
20
20
20
20
20
20
20
20
20
20
20
20
20
ENDCHAR
STARTCHAR 00D0
ENCODING 208
SWIDTH 792 0
DWIDTH 22 0
BBX 20 19 1 0
BITMAP
3FFE00
200180
200040
200020
200020
200010
200010
200010
200010
FF8010
200010
200010
200010
200020
200020
200040
200080
200100
1FFE00
ENDCHAR
STARTCHAR 00D1
ENCODING 209
SWIDTH 792 0
DWIDTH 22 0
BBX 15 24 4 0
BITMAP
0600
1920
0040
0000
0000
8002
C002
C002
A002
9002
8802
8402
8402
8202
8102
8082
8082
8042
8022
8012
800A
800A
8006
8002
ENDCHAR
STARTCHAR 00D2
ENCODING 210
SWIDTH 828 0
DWIDTH 23 0
BBX 20 24 2 0
BITMAP
010000
008000
004000
000000
006000
079C00
180300
200080
400040
800040
800020
800020
800020
800010
800010
800010
800020
800020
800020
400040
200080
100100
080200
07FC00
ENDCHAR
STARTCHAR 00D3
ENCODING 211
SWIDTH 828 0
DWIDTH 23 0
BBX 20 24 2 0
BITMAP
001800
002000
004000
000000
006000
079C00
180300
200080
400040
800040
800020
800020
800020
800010
800010
800010
800020
800020
800020
400040
200080
100100
080200
07FC00
ENDCHAR
STARTCHAR 00D4
ENCODING 212
SWIDTH 828 0
DWIDTH 23 0
BBX 20 24 2 0
BITMAP
00E000
011000
020800
000000
006000
079C00
180300
200080
400040
800040
800020
800020
800020
800010
800010
800010
800020
800020
800020
400040
200080
100100
080200
07FC00
ENDCHAR
STARTCHAR 00D5
ENCODING 213
SWIDTH 828 0
DWIDTH 23 0
BBX 20 24 2 0
BITMAP
018000
024800
003000
000000
006000
079C00
180300
200080
400040
800040
800020
800020
800020
800010
800010
800010
800020
800020
800020
400040
200080
100100
080200
07FC00
ENDCHAR
STARTCHAR 00D6
ENCODING 214
SWIDTH 828 0
DWIDTH 23 0
BBX 20 23 2 0
BITMAP
011800
000000
000000
006000
079C00
180300
200080
400040
800040
800020
800020
800020
800010
800010
800010
800020
800020
800020
400040
200080
100100
080200
07FC00
ENDCHAR
STARTCHAR 00D7
ENCODING 215
SWIDTH 540 0
DWIDTH 15 0
BBX 8 9 4 5
BITMAP
01
82
44
28
10
28
44
82
01
ENDCHAR
STARTCHAR 00D8
ENCODING 216
SWIDTH 828 0
DWIDTH 23 0
BBX 20 23 2 -2
BITMAP
000040
006080
079D00
180300
200280
400440
800840
800820
801020
802020
802010
804010
808010
810020
810020
820020
440040
280080
180100
180200
27BC00
404000
400000
ENDCHAR
STARTCHAR 00D9
ENCODING 217
SWIDTH 792 0
DWIDTH 22 0
BBX 15 24 4 0
BITMAP
0800
0400
0300
0000
0000
8002
8002
8002
8002
8002
8002
8002
8002
8002
8002
8002
8002
8004
8004
8004
8004
4008
2010
1FE0
ENDCHAR
STARTCHAR 00DA
ENCODING 218
SWIDTH 792 0
DWIDTH 22 0
BBX 15 24 4 0
BITMAP
0040
0080
0300
0000
0000
8002
8002
8002
8002
8002
8002
8002
8002
8002
8002
8002
8002
8004
8004
8004
8004
4008
2010
1FE0
ENDCHAR
STARTCHAR 00DB
ENCODING 219
SWIDTH 792 0
DWIDTH 22 0
BBX 15 24 4 0
BITMAP
0300
0480
0840
0000
0000
8002
8002
8002
8002
8002
8002
8002
8002
8002
8002
8002
8002
8004
8004
8004
8004
4008
2010
1FE0
ENDCHAR
STARTCHAR 00DC
ENCODING 220
SWIDTH 792 0
DWIDTH 22 0
BBX 15 23 4 0
BITMAP
0840
0000
0000
0000
8002
8002
8002
8002
8002
8002
8002
8002
8002
8002
8002
8002
8004
8004
8004
8004
4008
2010
1FE0
ENDCHAR
STARTCHAR 00DD
ENCODING 221
SWIDTH 576 0
DWIDTH 16 0
BBX 15 24 1 0
BITMAP
0060
0080
0100
0000
0000
8002
8004
4004
4008
2008
1010
1020
0820
0840
0440
0280
0300
0100
0100
0100
0100
0100
0100
0100
ENDCHAR
STARTCHAR 00DE
ENCODING 222
SWIDTH 684 0
DWIDTH 19 0
BBX 14 19 4 0
BITMAP
8000
8000
FF00
80E0
8010
8008
8004
8004
8004
8004
8004
8008
8008
8010
81E0
FE00
8000
8000
8000
ENDCHAR
STARTCHAR 00DF
ENCODING 223
SWIDTH 648 0
DWIDTH 18 0
BBX 14 21 3 0
BITMAP
0700
38C0
4020
8010
8010
8010
8010
8010
8020
8040
8380
8030
8008
8008
8004
8004
8004
8008
8008
8010
8FE0
ENDCHAR
STARTCHAR 00E0
ENCODING 224
SWIDTH 540 0
DWIDTH 15 0
BBX 11 20 2 0
BITMAP
2000
1800
0400
0000
0000
0000
3F80
C040
0020
0020
0020
0020
3FE0
4020
8020
8020
8020
8060
80A0
7F20
ENDCHAR
STARTCHAR 00E1
ENCODING 225
SWIDTH 540 0
DWIDTH 15 0
BBX 11 20 2 0
BITMAP
0080
0300
0400
0000
0000
0000
3F80
C040
0020
0020
0020
0020
3FE0
4020
8020
8020
8020
8060
80A0
7F20
ENDCHAR
STARTCHAR 00E2
ENCODING 226
SWIDTH 540 0
DWIDTH 15 0
BBX 11 20 2 0
BITMAP
0600
1900
2080
0000
0000
0000
3F80
C040
0020
0020
0020
0020
3FE0
4020
8020
8020
8020
8060
80A0
7F20
ENDCHAR
STARTCHAR 00E3
ENCODING 227
SWIDTH 540 0
DWIDTH 15 0
BBX 11 20 2 0
BITMAP
1000
2480
0300
0000
0000
0000
3F80
C040
0020
0020
0020
0020
3FE0
4020
8020
8020
8020
8060
80A0
7F20
ENDCHAR
STARTCHAR 00E4
ENCODING 228
SWIDTH 540 0
DWIDTH 15 0
BBX 11 19 2 0
BITMAP
1180
0000
0000
0000
0000
3F80
C040
0020
0020
0020
0020
3FE0
4020
8020
8020
8020
8060
80A0
7F20
ENDCHAR
STARTCHAR 00E5
ENCODING 229
SWIDTH 540 0
DWIDTH 15 0
BBX 11 22 2 0
BITMAP
0400
1B00
1100
1100
1100
0E00
0000
0000
3F80
C040
0020
0020
0020
0020
3FE0
4020
8020
8020
8020
8060
80A0
7F20
ENDCHAR
STARTCHAR 00E6
ENCODING 230
SWIDTH 972 0
DWIDTH 27 0
BBX 24 14 2 0
BITMAP
3F83F0
C04C0C
003002
003002
002002
002001
1FFFFF
602000
802000
802000
803000
804802
808404
7F03F8
ENDCHAR
STARTCHAR 00E7
ENCODING 231
SWIDTH 540 0
DWIDTH 15 0
BBX 12 20 1 -6
BITMAP
0FE0
3010
4000
4000
8000
8000
8000
8000
8000
4000
4000
2000
1010
0EE0
0300
0200
0180
0080
0080
0700
ENDCHAR
STARTCHAR 00E8
ENCODING 232
SWIDTH 576 0
DWIDTH 16 0
BBX 14 20 1 0
BITMAP
0800
0400
0300
0000
0000
0000
0FE0
3010
4008
4008
8004
8004
FFFC
8000
8000
8000
4000
2008
1010
0FE0
ENDCHAR
STARTCHAR 00E9
ENCODING 233
SWIDTH 576 0
DWIDTH 16 0
BBX 14 20 1 0
BITMAP
0040
0080
0100
0000
0000
0000
0FE0
3010
4008
4008
8004
8004
FFFC
8000
8000
8000
4000
2008
1010
0FE0
ENDCHAR
STARTCHAR 00EA
ENCODING 234
SWIDTH 576 0
DWIDTH 16 0
BBX 14 20 1 0
BITMAP
0300
0480
0840
0000
0000
0000
0FE0
3010
4008
4008
8004
8004
FFFC
8000
8000
8000
4000
2008
1010
0FE0
ENDCHAR
STARTCHAR 00EB
ENCODING 235
SWIDTH 576 0
DWIDTH 16 0
BBX 14 19 1 0
BITMAP
0C40
0000
0000
0000
0000
0FE0
3010
4008
4008
8004
8004
FFFC
8000
8000
8000
4000
2008
1010
0FE0
ENDCHAR
STARTCHAR 00EC
ENCODING 236
SWIDTH 216 0
DWIDTH 6 0
BBX 4 20 0 0
BITMAP
80
60
10
00
00
00
10
10
10
10
10
10
10
10
10
10
10
10
10
10
ENDCHAR
STARTCHAR 00ED
ENCODING 237
SWIDTH 216 0
DWIDTH 6 0
BBX 4 20 3 0
BITMAP
10
60
80
00
00
00
80
80
80
80
80
80
80
80
80
80
80
80
80
80
ENDCHAR
STARTCHAR 00EE
ENCODING 238
SWIDTH 216 0
DWIDTH 6 0
BBX 5 20 1 0
BITMAP
20
50
88
00
00
00
20
20
20
20
20
20
20
20
20
20
20
20
20
20
ENDCHAR
STARTCHAR 00EF
ENCODING 239
SWIDTH 216 0
DWIDTH 6 0
BBX 5 19 1 0
BITMAP
D8
00
00
00
00
20
20
20
20
20
20
20
20
20
20
20
20
20
20
ENDCHAR
STARTCHAR 00F0
ENCODING 240
SWIDTH 612 0
DWIDTH 17 0
BBX 15 20 1 0
BITMAP
0400
39D8
00F0
0308
0C08
1004
0004
0004
0FC2
3032
400A
400A
8006
8004
8004
8004
4008
4008
2010
1FE0
ENDCHAR
STARTCHAR 00F1
ENCODING 241
SWIDTH 648 0
DWIDTH 18 0
BBX 13 20 3 0
BITMAP
0800
3640
0180
0000
0000
0000
9FC0
A020
C010
8010
8010
8008
8008
8008
8008
8008
8008
8008
8008
8008
ENDCHAR
STARTCHAR 00F2
ENCODING 242
SWIDTH 576 0
DWIDTH 16 0
BBX 14 20 1 0
BITMAP
0800
0600
0100
0000
0000
0000
0FE0
3010
4008
4004
8004
8004
8004
8004
8004
4004
4004
2008
1010
0FE0
ENDCHAR
STARTCHAR 00F3
ENCODING 243
SWIDTH 576 0
DWIDTH 16 0
BBX 14 20 1 0
BITMAP
0020
00C0
0100
0000
0000
0000
0FE0
3010
4008
4004
8004
8004
8004
8004
8004
4004
4004
2008
1010
0FE0
ENDCHAR
STARTCHAR 00F4
ENCODING 244
SWIDTH 576 0
DWIDTH 16 0
BBX 14 20 1 0
BITMAP
0100
0680
0820
0000
0000
0000
0FE0
3010
4008
4004
8004
8004
8004
8004
8004
4004
4004
2008
1010
0FE0
ENDCHAR
STARTCHAR 00F5
ENCODING 245
SWIDTH 576 0
DWIDTH 16 0
BBX 14 20 1 0
BITMAP
0400
0B20
00C0
0000
0000
0000
0FE0
3010
4008
4004
8004
8004
8004
8004
8004
4004
4004
2008
1010
0FE0
ENDCHAR
STARTCHAR 00F6
ENCODING 246
SWIDTH 576 0
DWIDTH 16 0
BBX 14 19 1 0
BITMAP
0C40
0000
0000
0000
0000
0FE0
3010
4008
4004
8004
8004
8004
8004
8004
4004
4004
2008
1010
0FE0
ENDCHAR
STARTCHAR 00F7
ENCODING 247
SWIDTH 540 0
DWIDTH 15 0
BBX 11 11 2 4
BITMAP
0400
0000
0000
0000
0000
FFE0
0000
0000
0000
0000
0400
ENDCHAR
STARTCHAR 00F8
ENCODING 248
SWIDTH 576 0
DWIDTH 16 0
BBX 14 18 1 -2
BITMAP
0008
0008
0FF0
3030
4028
4044
8084
8084
8104
8204
8204
4404
4804
2808
1010
2EE0
2100
4000
ENDCHAR
STARTCHAR 00F9
ENCODING 249
SWIDTH 648 0
DWIDTH 18 0
BBX 12 20 3 0
BITMAP
1000
0800
0600
0000
0000
0000
8010
8010
8010
8010
8010
8010
8010
8010
8010
8010
8010
8030
4050
3F90
ENDCHAR
STARTCHAR 00FA
ENCODING 250
SWIDTH 648 0
DWIDTH 18 0
BBX 12 20 3 0
BITMAP
0080
0100
0200
0000
0000
0000
8010
8010
8010
8010
8010
8010
8010
8010
8010
8010
8010
8030
4050
3F90
ENDCHAR
STARTCHAR 00FB
ENCODING 251
SWIDTH 648 0
DWIDTH 18 0
BBX 12 20 3 0
BITMAP
0600
0900
1080
0000
0000
0000
8010
8010
8010
8010
8010
8010
8010
8010
8010
8010
8010
8030
4050
3F90
ENDCHAR
STARTCHAR 00FC
ENCODING 252
SWIDTH 648 0
DWIDTH 18 0
BBX 12 19 3 0
BITMAP
1880
0000
0000
0000
0000
8010
8010
8010
8010
8010
8010
8010
8010
8010
8010
8010
8030
4050
3F90
ENDCHAR
STARTCHAR 00FD
ENCODING 253
SWIDTH 504 0
DWIDTH 14 0
BBX 15 25 -1 -5
BITMAP
0020
00C0
0100
0000
0000
0000
4002
2004
2004
1008
1008
1010
0810
0820
0420
0440
0240
0240
0180
0080
0100
0100
0200
0200
FC00
ENDCHAR
STARTCHAR 00FE
ENCODING 254
SWIDTH 648 0
DWIDTH 18 0
BBX 14 26 3 -5
BITMAP
8000
8000
8000
8000
8000
8000
8000
8FE0
B010
C008
8008
8004
8004
8004
8004
8004
8004
C008
C008
B010
8EE0
8100
8000
8000
8000
8000
ENDCHAR
STARTCHAR 00FF
ENCODING 255
SWIDTH 504 0
DWIDTH 14 0
BBX 15 24 -1 -5
BITMAP
0460
0000
0000
0000
0000
4002
2004
2004
1008
1008
1010
0810
0820
0420
0440
0240
0240
0180
0080
0100
0100
0200
0200
FC00
ENDCHAR
STARTCHAR 0100
ENCODING 256
SWIDTH 684 0
DWIDTH 19 0
BBX 19 23 0 0
BITMAP
03F800
000000
000000
000000
00C000
00A000
00A000
011000
011000
020800
020800
040400
040400
080400
080200
100200
100100
2FFF00
200080
200080
400040
400040
800020
ENDCHAR
STARTCHAR 0101
ENCODING 257
SWIDTH 540 0
DWIDTH 15 0
BBX 11 19 2 0
BITMAP
3F80
0000
0000
0000
0000
3F80
C040
0020
0020
0020
0020
3FE0
4020
8020
8020
8020
8060
80A0
7F20
ENDCHAR
STARTCHAR 0102
ENCODING 258
SWIDTH 684 0
DWIDTH 19 0
BBX 19 24 0 0
BITMAP
040800
020800
01B000
004000
000000
00C000
00A000
00A000
011000
011000
020800
020800
040400
040400
080400
080200
100200
100100
2FFF00
200080
200080
400040
400040
800020
ENDCHAR
STARTCHAR 0103
ENCODING 259
SWIDTH 540 0
DWIDTH 15 0
BBX 11 19 2 1
BITMAP
2080
1100
0E00
0000
0000
3F80
C040
0020
0020
0020
0020
3FE0
4020
8020
8020
8020
8060
80A0
7F20
ENDCHAR
STARTCHAR 0104
ENCODING 260
SWIDTH 684 0
DWIDTH 19 0
BBX 19 25 0 -6
BITMAP
00C000
00A000
00A000
011000
011000
020800
020800
040400
040400
080400
080200
100200
100100
2FFF00
200080
200080
400040
400040
800020
000040
000180
000100
000200
000100
0000E0
ENDCHAR
STARTCHAR 0105
ENCODING 261
SWIDTH 540 0
DWIDTH 15 0
BBX 11 20 2 -6
BITMAP
3F80
C040
0020
0020
0020
0020
3FE0
4020
8020
8020
8020
8060
80A0
7720
0840
0180
0100
0200
0100
00E0
ENDCHAR
STARTCHAR 0106
ENCODING 262
SWIDTH 684 0
DWIDTH 19 0
BBX 16 24 2 0
BITMAP
0010
0020
0040
0000
0060
079C
1803
2000
4000
8000
8000
8000
8000
8000
8000
8000
8000
8000
8000
4000
2000
1000
0803
07FC
ENDCHAR
STARTCHAR 0107
ENCODING 263
SWIDTH 540 0
DWIDTH 15 0
BBX 12 20 1 0
BITMAP
0040
0080
0100
0200
0000
0000
0FE0
3010
4000
4000
8000
8000
8000
8000
8000
4000
4000
2000
1010
0FE0
ENDCHAR
STARTCHAR 0108
ENCODING 264
SWIDTH 684 0
DWIDTH 19 0
BBX 16 24 2 0
BITMAP
00C0
0130
0208
0000
0060
079C
1803
2000
4000
8000
8000
8000
8000
8000
8000
8000
8000
8000
8000
4000
2000
1000
0803
07FC
ENDCHAR
STARTCHAR 0109
ENCODING 265
SWIDTH 540 0
DWIDTH 15 0
BBX 12 20 1 0
BITMAP
0300
0480
0840
0000
0000
0000
0FE0
3010
4000
4000
8000
8000
8000
8000
8000
4000
4000
2000
1010
0FE0
ENDCHAR
STARTCHAR 010A
ENCODING 266
SWIDTH 684 0
DWIDTH 19 0
BBX 16 23 2 0
BITMAP
0040
0000
0000
0060
079C
1803
2000
4000
8000
8000
8000
8000
8000
8000
8000
8000
8000
8000
4000
2000
1000
0803
07FC
ENDCHAR
STARTCHAR 010B
ENCODING 267
SWIDTH 540 0
DWIDTH 15 0
BBX 12 19 1 0
BITMAP
0300
0000
0000
0000
0000
0FE0
3010
4000
4000
8000
8000
8000
8000
8000
4000
4000
2000
1010
0FE0
ENDCHAR
STARTCHAR 010C
ENCODING 268
SWIDTH 684 0
DWIDTH 19 0
BBX 16 24 2 0
BITMAP
0208
0130
00C0
0000
0060
079C
1803
2000
4000
8000
8000
8000
8000
8000
8000
8000
8000
8000
8000
4000
2000
1000
0803
07FC
ENDCHAR
STARTCHAR 010D
ENCODING 269
SWIDTH 540 0
DWIDTH 15 0
BBX 12 20 1 0
BITMAP
0800
04C0
0300
0000
0000
0000
0FE0
3010
4000
4000
8000
8000
8000
8000
8000
4000
4000
2000
1010
0FE0
ENDCHAR
STARTCHAR 010E
ENCODING 270
SWIDTH 792 0
DWIDTH 22 0
BBX 17 24 4 0
BITMAP
104000
0C8000
030000
000000
000000
FFF000
800C00
800200
800100
800100
800080
800080
800080
800080
800080
800080
800080
800080
800100
800100
800200
800400
800800
FFF000
ENDCHAR
STARTCHAR 010F
ENCODING 271
SWIDTH 648 0
DWIDTH 18 0
BBX 18 21 1 0
BITMAP
000040
000440
000440
000440
000440
000400
000400
0FE400
301400
400C00
400400
800400
800400
800400
800400
800400
400400
400400
200C00
101400
0FE400
ENDCHAR
STARTCHAR 0110
ENCODING 272
SWIDTH 792 0
DWIDTH 22 0
BBX 20 19 1 0
BITMAP
3FFE00
200180
200040
200020
200020
200010
200010
200010
200010
FF8010
200010
200010
200010
200020
200020
200040
200080
200100
1FFE00
ENDCHAR
STARTCHAR 0111
ENCODING 273
SWIDTH 648 0
DWIDTH 18 0
BBX 18 20 1 1
BITMAP
000400
000400
01FFC0
000400
000400
000400
0FE400
301400
400C00
400400
800400
800400
800400
800400
800400
400400
400400
200C00
101400
0FE400
ENDCHAR
STARTCHAR 0112
ENCODING 274
SWIDTH 648 0
DWIDTH 18 0
BBX 13 23 4 0
BITMAP
3FC0
0000
0000
0000
FFF0
8000
8000
8000
8000
8000
8000
8000
8000
FFC0
8000
8000
8000
8000
8000
8000
8000
8000
FFF8
ENDCHAR
STARTCHAR 0113
ENCODING 275
SWIDTH 576 0
DWIDTH 16 0
BBX 14 19 1 0
BITMAP
1FE0
0000
0000
0000
0000
0FE0
3010
4008
4008
8004
8004
FFFC
8000
8000
8000
4000
2008
1010
0FE0
ENDCHAR
STARTCHAR 0114
ENCODING 276
SWIDTH 648 0
DWIDTH 18 0
BBX 13 24 4 0
BITMAP
2040
2080
1F00
0000
0000
FFF0
8000
8000
8000
8000
8000
8000
8000
8000
FFC0
8000
8000
8000
8000
8000
8000
8000
8000
FFF8
ENDCHAR
STARTCHAR 0115
ENCODING 277
SWIDTH 576 0
DWIDTH 16 0
BBX 14 20 1 0
BITMAP
0020
0840
04C0
0300
0000
0000
0FE0
3010
4008
4008
8004
8004
FFFC
8000
8000
8000
4000
2008
1010
0FE0
ENDCHAR
STARTCHAR 0116
ENCODING 278
SWIDTH 648 0
DWIDTH 18 0
BBX 13 23 4 0
BITMAP
0600
0000
0000
0000
FFF0
8000
8000
8000
8000
8000
8000
8000
8000
FFC0
8000
8000
8000
8000
8000
8000
8000
8000
FFF8
ENDCHAR
STARTCHAR 0117
ENCODING 279
SWIDTH 576 0
DWIDTH 16 0
BBX 14 19 1 0
BITMAP
0300
0000
0000
0000
0000
0FE0
3010
4008
4008
8004
8004
FFFC
8000
8000
8000
4000
2008
1010
0FE0
ENDCHAR
STARTCHAR 0118
ENCODING 280
SWIDTH 648 0
DWIDTH 18 0
BBX 13 25 4 -6
BITMAP
FFF0
8000
8000
8000
8000
8000
8000
8000
8000
FFC0
8000
8000
8000
8000
8000
8000
8000
8000
FFF8
0010
0060
0080
0080
0080
0078
ENDCHAR
STARTCHAR 0119
ENCODING 281
SWIDTH 576 0
DWIDTH 16 0
BBX 14 20 1 -6
BITMAP
0FE0
3010
4008
4008
8004
8004
FFFC
8000
8000
8000
4000
2008
1010
0EE0
0140
0080
0080
0080
0080
0070
ENDCHAR
STARTCHAR 011A
ENCODING 282
SWIDTH 648 0
DWIDTH 18 0
BBX 13 24 4 0
BITMAP
1080
0900
0600
0000
0000
FFF0
8000
8000
8000
8000
8000
8000
8000
8000
FFC0
8000
8000
8000
8000
8000
8000
8000
8000
FFF8
ENDCHAR
STARTCHAR 011B
ENCODING 283
SWIDTH 576 0
DWIDTH 16 0
BBX 14 20 1 0
BITMAP
0820
04C0
0300
0000
0000
0000
0FE0
3010
4008
4008
8004
8004
FFFC
8000
8000
8000
4000
2008
1010
0FE0
ENDCHAR
STARTCHAR 011C
ENCODING 284
SWIDTH 756 0
DWIDTH 21 0
BBX 16 24 2 0
BITMAP
00C0
0120
0210
0000
0060
079C
1803
2000
4000
8000
8000
8000
8000
8000
8000
8001
8001
8001
8001
4001
2001
1000
0803
07FC
ENDCHAR
STARTCHAR 011D
ENCODING 285
SWIDTH 648 0
DWIDTH 18 0
BBX 15 25 1 -5
BITMAP
0180
0240
0C20
0000
0000
0000
0FE2
301A
400A
4006
8002
8002
8002
8002
8002
4006
400A
200A
1832
07C2
0004
0004
0004
2008
1FF0
ENDCHAR
STARTCHAR 011E
ENCODING 286
SWIDTH 756 0
DWIDTH 21 0
BBX 16 24 2 0
BITMAP
0408
0210
01E0
0000
0060
079C
1803
2000
4000
8000
8000
8000
8000
8000
8000
8001
8001
8001
8001
4001
2001
1000
0803
07FC
ENDCHAR
STARTCHAR 011F
ENCODING 287
SWIDTH 648 0
DWIDTH 18 0
BBX 15 25 1 -5
BITMAP
0800
0820
0640
0180
0000
0000
0FE2
301A
400A
4006
8002
8002
8002
8002
8002
4006
400A
200A
1832
07C2
0004
0004
0004
2008
1FF0
ENDCHAR
STARTCHAR 0120
ENCODING 288
SWIDTH 756 0
DWIDTH 21 0
BBX 16 23 2 0
BITMAP
00C0
0000
0000
0060
079C
1803
2000
4000
8000
8000
8000
8000
8000
8000
8001
8001
8001
8001
4001
2001
1000
0803
07FC
ENDCHAR
STARTCHAR 0121
ENCODING 289
SWIDTH 648 0
DWIDTH 18 0
BBX 15 24 1 -5
BITMAP
0100
0000
0000
0000
0000
0FE2
301A
400A
4006
8002
8002
8002
8002
8002
4006
400A
200A
1832
07C2
0004
0004
0004
2008
1FF0
ENDCHAR
STARTCHAR 0122
ENCODING 290
SWIDTH 756 0
DWIDTH 21 0
BBX 16 27 2 -7
BITMAP
0060
079C
1803
2000
4000
8000
8000
8000
8000
8000
8000
8001
8001
8001
8001
4001
2001
1000
0803
07BC
0040
0000
0000
0000
0040
0040
0080
ENDCHAR
STARTCHAR 0123
ENCODING 291
SWIDTH 648 0
DWIDTH 18 0
BBX 15 26 1 -5
BITMAP
0100
0100
0100
0100
0000
0000
0000
0FE2
301A
400A
4006
8002
8002
8002
8002
8002
4006
400A
200A
1832
07C2
0004
0004
0004
2008
1FF0
ENDCHAR
STARTCHAR 0124
ENCODING 292
SWIDTH 792 0
DWIDTH 22 0
BBX 15 24 4 0
BITMAP
0300
04C0
0820
0000
0000
8002
8002
8002
8002
8002
8002
8002
8002
8002
FFFE
8002
8002
8002
8002
8002
8002
8002
8002
8002
ENDCHAR
STARTCHAR 0125
ENCODING 293
SWIDTH 648 0
DWIDTH 18 0
BBX 16 25 0 0
BITMAP
3800
4400
8200
0000
1000
1000
1000
1000
1000
1000
1000
13F8
1404
1802
1002
1002
1001
1001
1001
1001
1001
1001
1001
1001
1001
ENDCHAR
STARTCHAR 0126
ENCODING 294
SWIDTH 792 0
DWIDTH 22 0
BBX 21 19 1 0
BITMAP
200040
200040
200040
200040
FFFFF8
200040
200040
200040
200040
2FFFC0
200040
200040
200040
200040
200040
200040
200040
200040
200040
ENDCHAR
STARTCHAR 0127
ENCODING 295
SWIDTH 648 0
DWIDTH 18 0
BBX 16 21 0 0
BITMAP
1000
1000
1000
FFE0
1000
1000
1000
13F8
1404
1802
1002
1002
1001
1001
1001
1001
1001
1001
1001
1001
1001
ENDCHAR
STARTCHAR 0128
ENCODING 296
SWIDTH 252 0
DWIDTH 7 0
BBX 8 24 0 0
BITMAP
61
92
8C
00
00
10
10
10
10
10
10
10
10
10
10
10
10
10
10
10
10
10
10
10
ENDCHAR
STARTCHAR 0129
ENCODING 297
SWIDTH 216 0
DWIDTH 6 0
BBX 7 20 0 0
BITMAP
42
94
8C
00
00
00
10
10
10
10
10
10
10
10
10
10
10
10
10
10
ENDCHAR
STARTCHAR 012A
ENCODING 298
SWIDTH 252 0
DWIDTH 7 0
BBX 6 23 1 0
BITMAP
FC
00
00
00
20
20
20
20
20
20
20
20
20
20
20
20
20
20
20
20
20
20
20
ENDCHAR
STARTCHAR 012B
ENCODING 299
SWIDTH 216 0
DWIDTH 6 0
BBX 7 19 0 0
BITMAP
FE
00
00
00
00
10
10
10
10
10
10
10
10
10
10
10
10
10
10
ENDCHAR
STARTCHAR 012C
ENCODING 300
SWIDTH 252 0
DWIDTH 7 0
BBX 8 24 0 0
BITMAP
81
82
7C
00
00
10
10
10
10
10
10
10
10
10
10
10
10
10
10
10
10
10
10
10
ENDCHAR
STARTCHAR 012D
ENCODING 301
SWIDTH 216 0
DWIDTH 6 0
BBX 6 19 0 1
BITMAP
84
48
30
00
00
10
10
10
10
10
10
10
10
10
10
10
10
10
10
ENDCHAR
STARTCHAR 012E
ENCODING 302
SWIDTH 252 0
DWIDTH 7 0
BBX 3 25 2 -6
BITMAP
40
40
40
40
40
40
40
40
40
40
40
40
40
40
40
40
40
40
40
40
80
80
80
80
60
ENDCHAR
STARTCHAR 012F
ENCODING 303
SWIDTH 216 0
DWIDTH 6 0
BBX 3 26 2 -6
BITMAP
40
40
00
00
00
00
40
40
40
40
40
40
40
40
40
40
40
40
40
40
80
80
80
80
80
E0
ENDCHAR
STARTCHAR 0130
ENCODING 304
SWIDTH 252 0
DWIDTH 7 0
BBX 2 23 3 0
BITMAP
C0
00
00
00
80
80
80
80
80
80
80
80
80
80
80
80
80
80
80
80
80
80
80
ENDCHAR
STARTCHAR 0131
ENCODING 305
SWIDTH 216 0
DWIDTH 6 0
BBX 1 14 3 0
BITMAP
80
80
80
80
80
80
80
80
80
80
80
80
80
80
ENDCHAR
STARTCHAR 0132
ENCODING 306
SWIDTH 684 0
DWIDTH 19 0
BBX 13 19 3 0
BITMAP
8008
8008
8008
8008
8008
8008
8008
8008
8008
8008
0008
0008
0008
0008
0008
0010
0010
4020
3FC0
ENDCHAR
STARTCHAR 0133
ENCODING 307
SWIDTH 504 0
DWIDTH 14 0
BBX 8 25 3 -5
BITMAP
81
81
00
00
00
00
81
81
81
81
81
81
81
81
81
81
81
81
81
81
01
01
01
01
3E
ENDCHAR
STARTCHAR 0134
ENCODING 308
SWIDTH 468 0
DWIDTH 13 0
BBX 10 24 0 0
BITMAP
0600
1900
2080
0000
0000
3FC0
0040
0040
0040
0040
0040
0040
0040
0040
0040
0040
0040
0040
0040
0040
0040
8080
4080
3E00
ENDCHAR
STARTCHAR 0135
ENCODING 309
SWIDTH 252 0
DWIDTH 7 0
BBX 8 25 -2 -5
BITMAP
04
0A
11
00
00
00
04
04
04
04
04
04
04
04
04
04
04
04
04
04
04
04
04
04
F8
ENDCHAR
STARTCHAR 0136
ENCODING 310
SWIDTH 684 0
DWIDTH 19 0
BBX 14 26 4 -7
BITMAP
800C
8010
8020
8040
8080
8100
8200
8400
8400
9C00
A200
A100
C080
8040
8020
8010
8008
800C
8004
0000
0000
0000
0000
0200
0200
0400
ENDCHAR
STARTCHAR 0137
ENCODING 311
SWIDTH 540 0
DWIDTH 15 0
BBX 12 28 3 -7
BITMAP
8000
8000
8000
8000
8000
8000
8000
8020
8040
8080
8100
8600
8C00
9400
A200
C100
8080
8040
8040
8020
8010
0000
0000
0000
0400
0400
0400
0400
ENDCHAR
STARTCHAR 0138
ENCODING 312
SWIDTH 540 0
DWIDTH 15 0
BBX 12 14 3 0
BITMAP
8020
8040
8080
8100
8600
8C00
9400
A200
C100
8080
8040
8040
8020
8010
ENDCHAR
STARTCHAR 0139
ENCODING 313
SWIDTH 576 0
DWIDTH 16 0
BBX 13 24 3 0
BITMAP
1000
2000
C000
0000
0000
8000
8000
8000
8000
8000
8000
8000
8000
8000
8000
8000
8000
8000
8000
8000
8000
8000
8000
7FF8
ENDCHAR
STARTCHAR 013A
ENCODING 314
SWIDTH 216 0
DWIDTH 6 0
BBX 4 26 3 0
BITMAP
30
40
80
00
00
80
80
80
80
80
80
80
80
80
80
80
80
80
80
80
80
80
80
80
80
80
ENDCHAR
STARTCHAR 013B
ENCODING 315
SWIDTH 576 0
DWIDTH 16 0
BBX 12 26 4 -7
BITMAP
8000
8000
8000
8000
8000
8000
8000
8000
8000
8000
8000
8000
8000
8000
8000
8000
8000
8000
FFF0
0000
0000
0000
0000
0600
0400
0400
ENDCHAR
STARTCHAR 013C
ENCODING 316
SWIDTH 216 0
DWIDTH 6 0
BBX 1 28 3 -7
BITMAP
80
80
80
80
80
80
80
80
80
80
80
80
80
80
80
80
80
80
80
80
80
00
00
00
80
80
80
80
ENDCHAR
STARTCHAR 013D
ENCODING 317
SWIDTH 576 0
DWIDTH 16 0
BBX 12 20 4 0
BITMAP
0080
8080
8080
8080
8080
8000
8000
8000
8000
8000
8000
8000
8000
8000
8000
8000
8000
8000
8000
FFF0
ENDCHAR
STARTCHAR 013E
ENCODING 318
SWIDTH 216 0
DWIDTH 6 0
BBX 4 21 3 0
BITMAP
90
90
90
90
80
80
80
80
80
80
80
80
80
80
80
80
80
80
80
80
80
ENDCHAR
STARTCHAR 013F
ENCODING 319
SWIDTH 576 0
DWIDTH 16 0
BBX 12 19 4 0
BITMAP
8000
8000
8000
8000
8000
8000
8000
8000
8080
8080
8000
8000
8000
8000
8000
8000
8000
8000
FFF0
ENDCHAR
STARTCHAR 0140
ENCODING 320
SWIDTH 216 0
DWIDTH 6 0
BBX 5 21 3 0
BITMAP
80
80
80
80
80
80
80
80
80
80
80
98
80
80
80
80
80
80
80
80
80
ENDCHAR
STARTCHAR 0141
ENCODING 321
SWIDTH 576 0
DWIDTH 16 0
BBX 15 19 1 0
BITMAP
2000
2000
2000
2000
2000
2000
2200
2C00
1000
2000
E000
2000
2000
2000
2000
2000
2000
2000
1FFE
ENDCHAR
STARTCHAR 0142
ENCODING 322
SWIDTH 216 0
DWIDTH 6 0
BBX 5 21 1 0
BITMAP
20
20
20
20
20
20
20
20
20
28
30
20
E0
20
20
20
20
20
20
20
20
ENDCHAR
STARTCHAR 0143
ENCODING 323
SWIDTH 792 0
DWIDTH 22 0
BBX 15 24 4 0
BITMAP
0040
0080
0100
0000
0000
8002
C002
C002
A002
9002
8802
8402
8402
8202
8102
8082
8082
8042
8022
8012
800A
800A
8006
8002
ENDCHAR
STARTCHAR 0144
ENCODING 324
SWIDTH 648 0
DWIDTH 18 0
BBX 13 20 3 0
BITMAP
0080
0100
0200
0000
0000
0000
9FC0
A020
C010
8010
8010
8008
8008
8008
8008
8008
8008
8008
8008
8008
ENDCHAR
STARTCHAR 0145
ENCODING 325
SWIDTH 792 0
DWIDTH 22 0
BBX 15 26 4 -7
BITMAP
8002
C002
C002
A002
9002
8802
8402
8402
8202
8102
8082
8082
8042
8022
8012
800A
800A
8006
8002
0000
0000
0000
0000
0100
0100
0200
ENDCHAR
STARTCHAR 0146
ENCODING 326
SWIDTH 648 0
DWIDTH 18 0
BBX 13 21 3 -7
BITMAP
9FC0
A020
C010
8010
8010
8008
8008
8008
8008
8008
8008
8008
8008
8008
0000
0000
0000
0000
0200
0200
0400
ENDCHAR
STARTCHAR 0147
ENCODING 327
SWIDTH 792 0
DWIDTH 22 0
BBX 15 24 4 0
BITMAP
0820
04C0
0300
0000
0000
8002
C002
C002
A002
9002
8802
8402
8402
8202
8102
8082
8082
8042
8022
8012
800A
800A
8006
8002
ENDCHAR
STARTCHAR 0148
ENCODING 328
SWIDTH 648 0
DWIDTH 18 0
BBX 13 20 3 0
BITMAP
1040
0880
0700
0000
0000
0000
9FC0
A020
C010
8010
8010
8008
8008
8008
8008
8008
8008
8008
8008
8008
ENDCHAR
STARTCHAR 0149
ENCODING 329
SWIDTH 684 0
DWIDTH 19 0
BBX 15 21 2 0
BITMAP
8000
8000
8000
8000
8000
0000
0000
27F0
2808
3004
2004
2002
2002
2002
2002
2002
2002
2002
2002
2002
2002
ENDCHAR
STARTCHAR 014A
ENCODING 330
SWIDTH 792 0
DWIDTH 22 0
BBX 15 24 4 -5
BITMAP
8002
C002
C002
A002
9002
8802
8402
8402
8202
8102
8082
8082
8042
8022
8012
800A
800A
8006
8002
0002
0002
0002
0204
01F8
ENDCHAR
STARTCHAR 014B
ENCODING 331
SWIDTH 648 0
DWIDTH 18 0
BBX 13 19 3 -5
BITMAP
9FC0
A020
C010
8010
8010
8008
8008
8008
8008
8008
8008
8008
8008
8008
0008
0008
0008
0010
03F0
ENDCHAR
STARTCHAR 014C
ENCODING 332
SWIDTH 828 0
DWIDTH 23 0
BBX 20 23 2 0
BITMAP
03F800
000000
000000
006000
079C00
180300
200080
400040
800040
800020
800020
800020
800010
800010
800010
800020
800020
800020
400040
200080
100100
080200
07FC00
ENDCHAR
STARTCHAR 014D
ENCODING 333
SWIDTH 576 0
DWIDTH 16 0
BBX 14 19 1 0
BITMAP
0FE0
0000
0000
0000
0000
0FE0
3010
4008
4004
8004
8004
8004
8004
8004
4004
4004
2008
1010
0FE0
ENDCHAR
STARTCHAR 014E
ENCODING 334
SWIDTH 828 0
DWIDTH 23 0
BBX 20 24 2 0
BITMAP
020800
020800
01F000
000000
006000
079C00
180300
200080
400040
800040
800020
800020
800020
800010
800010
800010
800020
800020
800020
400040
200080
100100
080200
07FC00
ENDCHAR
STARTCHAR 014F
ENCODING 335
SWIDTH 576 0
DWIDTH 16 0
BBX 14 19 1 1
BITMAP
0820
0440
0380
0000
0000
0FE0
3010
4008
4004
8004
8004
8004
8004
8004
4004
4004
2008
1010
0FE0
ENDCHAR
STARTCHAR 0150
ENCODING 336
SWIDTH 828 0
DWIDTH 23 0
BBX 20 24 2 0
BITMAP
002200
004400
008800
000000
006000
079C00
180300
200080
400040
800040
800020
800020
800020
800010
800010
800010
800020
800020
800020
400040
200080
100100
080200
07FC00
ENDCHAR
STARTCHAR 0151
ENCODING 337
SWIDTH 576 0
DWIDTH 16 0
BBX 14 20 1 0
BITMAP
0088
0110
0260
0000
0000
0000
0FE0
3010
4008
4004
8004
8004
8004
8004
8004
4004
4004
2008
1010
0FE0
ENDCHAR
STARTCHAR 0152
ENCODING 338
SWIDTH 1080 0
DWIDTH 30 0
BBX 27 19 2 0
BITMAP
07FFFFC0
18020000
20020000
40020000
80020000
80020000
80020000
80020000
80020000
8003FF80
80020000
80020000
80020000
80020000
40020000
40020000
30020000
08020000
07FFFFE0
ENDCHAR
STARTCHAR 0153
ENCODING 339
SWIDTH 1044 0
DWIDTH 29 0
BBX 27 14 1 0
BITMAP
0FE07F00
30108080
40090040
40060020
80020020
80020020
8003FFE0
80040000
80020000
40060000
40060000
20090000
10108040
0FE07F80
ENDCHAR
STARTCHAR 0154
ENCODING 340
SWIDTH 684 0
DWIDTH 19 0
BBX 14 24 4 0
BITMAP
0080
0100
0600
0000
0000
FFE0
8010
8008
8008
8004
8004
8004
8004
8008
8008
8010
8060
FFC0
8040
8020
8010
8010
8008
8004
ENDCHAR
STARTCHAR 0155
ENCODING 341
SWIDTH 360 0
DWIDTH 10 0
BBX 6 20 3 0
BITMAP
04
08
10
00
00
00
9C
E0
C0
80
80
80
80
80
80
80
80
80
80
80
ENDCHAR
STARTCHAR 0156
ENCODING 342
SWIDTH 684 0
DWIDTH 19 0
BBX 14 26 4 -7
BITMAP
FFE0
8010
8008
8008
8004
8004
8004
8004
8008
8008
8010
8060
FFC0
8040
8020
8010
8010
8008
8004
0000
0000
0000
0000
0200
0200
0400
ENDCHAR
STARTCHAR 0157
ENCODING 343
SWIDTH 360 0
DWIDTH 10 0
BBX 6 21 3 -7
BITMAP
9C
E0
C0
80
80
80
80
80
80
80
80
80
80
80
00
00
00
80
80
80
80
ENDCHAR
STARTCHAR 0158
ENCODING 344
SWIDTH 684 0
DWIDTH 19 0
BBX 14 24 4 0
BITMAP
1080
0900
0600
0000
0000
FFE0
8010
8008
8008
8004
8004
8004
8004
8008
8008
8010
8060
FFC0
8040
8020
8010
8010
8008
8004
ENDCHAR
STARTCHAR 0159
ENCODING 345
SWIDTH 360 0
DWIDTH 10 0
BBX 7 20 3 0
BITMAP
82
44
38
00
00
00
9C
E0
C0
80
80
80
80
80
80
80
80
80
80
80
ENDCHAR
STARTCHAR 015A
ENCODING 346
SWIDTH 576 0
DWIDTH 16 0
BBX 13 24 2 0
BITMAP
0040
0180
0200
0000
0300
3CE0
4010
8000
8000
8000
8000
8000
4000
3800
0700
00E0
0010
0008
0008
0008
0008
8010
4010
3FE0
ENDCHAR
STARTCHAR 015B
ENCODING 347
SWIDTH 432 0
DWIDTH 12 0
BBX 11 20 1 0
BITMAP
0080
0300
0400
0000
0000
0000
3F80
4040
8000
8000
8000
4000
3800
0780
0040
0020
0020
0020
8040
7F80
ENDCHAR
STARTCHAR 015C
ENCODING 348
SWIDTH 576 0
DWIDTH 16 0
BBX 13 24 2 0
BITMAP
0300
0480
0840
0000
0300
3CE0
4010
8000
8000
8000
8000
8000
4000
3800
0700
00E0
0010
0008
0008
0008
0008
8010
4010
3FE0
ENDCHAR
STARTCHAR 015D
ENCODING 349
SWIDTH 432 0
DWIDTH 12 0
BBX 11 20 1 0
BITMAP
0400
1A00
2180
0000
0000
0000
3F80
4040
8000
8000
8000
4000
3800
0780
0040
0020
0020
0020
8040
7F80
ENDCHAR
STARTCHAR 015E
ENCODING 350
SWIDTH 576 0
DWIDTH 16 0
BBX 13 26 2 -6
BITMAP
0300
3CE0
4010
8000
8000
8000
8000
8000
4000
3800
0700
00E0
0010
0008
0008
0008
0008
8010
4010
3DE0
0200
0200
0180
0080
0080
0700
ENDCHAR
STARTCHAR 015F
ENCODING 351
SWIDTH 432 0
DWIDTH 12 0
BBX 11 20 1 -6
BITMAP
3F80
4040
8000
8000
8000
4000
3800
0780
0040
0020
0020
0020
8040
7B80
0400
0800
0600
0100
0200
1C00
ENDCHAR
STARTCHAR 0160
ENCODING 352
SWIDTH 576 0
DWIDTH 16 0
BBX 13 24 2 0
BITMAP
1040
0C80
0300
0000
0300
3CE0
4010
8000
8000
8000
8000
8000
4000
3800
0700
00E0
0010
0008
0008
0008
0008
8010
4010
3FE0
ENDCHAR
STARTCHAR 0161
ENCODING 353
SWIDTH 432 0
DWIDTH 12 0
BBX 11 20 1 0
BITMAP
2080
1100
0A00
0400
0000
0000
3F80
4040
8000
8000
8000
4000
3800
0780
0040
0020
0020
0020
8040
7F80
ENDCHAR
STARTCHAR 0162
ENCODING 354
SWIDTH 540 0
DWIDTH 15 0
BBX 14 25 1 -6
BITMAP
FFFC
0200
0200
0200
0200
0200
0200
0200
0200
0200
0200
0200
0200
0200
0200
0200
0200
0200
0200
0200
0400
0300
0080
0080
0700
ENDCHAR
STARTCHAR 0163
ENCODING 355
SWIDTH 360 0
DWIDTH 10 0
BBX 8 24 1 -6
BITMAP
20
20
20
20
FE
20
20
20
20
20
20
20
20
20
20
20
10
0F
04
04
02
01
01
0E
ENDCHAR
STARTCHAR 0164
ENCODING 356
SWIDTH 540 0
DWIDTH 15 0
BBX 14 24 1 0
BITMAP
1040
0880
0700
0000
0000
FFFC
0200
0200
0200
0200
0200
0200
0200
0200
0200
0200
0200
0200
0200
0200
0200
0200
0200
0200
ENDCHAR
STARTCHAR 0165
ENCODING 357
SWIDTH 360 0
DWIDTH 10 0
BBX 8 21 1 0
BITMAP
04
04
04
20
20
20
20
FE
20
20
20
20
20
20
20
20
20
20
20
10
0F
ENDCHAR
STARTCHAR 0166
ENCODING 358
SWIDTH 540 0
DWIDTH 15 0
BBX 14 19 1 0
BITMAP
FFFC
0200
0200
0200
0200
0200
0200
0200
0200
3FE0
0200
0200
0200
0200
0200
0200
0200
0200
0200
ENDCHAR
STARTCHAR 0167
ENCODING 359
SWIDTH 396 0
DWIDTH 11 0
BBX 8 17 1 1
BITMAP
20
20
20
FE
20
20
20
20
FF
20
20
20
20
20
20
10
0F
ENDCHAR
STARTCHAR 0168
ENCODING 360
SWIDTH 792 0
DWIDTH 22 0
BBX 15 24 4 0
BITMAP
0C20
1320
10C0
0000
0000
8002
8002
8002
8002
8002
8002
8002
8002
8002
8002
8002
8002
8004
8004
8004
8004
4008
2010
1FE0
ENDCHAR
STARTCHAR 0169
ENCODING 361
SWIDTH 648 0
DWIDTH 18 0
BBX 12 20 3 0
BITMAP
0840
3440
2380
0000
0000
0000
8010
8010
8010
8010
8010
8010
8010
8010
8010
8010
8010
8030
4050
3F90
ENDCHAR
STARTCHAR 016A
ENCODING 362
SWIDTH 792 0
DWIDTH 22 0
BBX 15 23 4 0
BITMAP
1FE0
0000
0000
0000
8002
8002
8002
8002
8002
8002
8002
8002
8002
8002
8002
8002
8004
8004
8004
8004
4008
2010
1FE0
ENDCHAR
STARTCHAR 016B
ENCODING 363
SWIDTH 648 0
DWIDTH 18 0
BBX 12 19 3 0
BITMAP
3FC0
0000
0000
0000
0000
8010
8010
8010
8010
8010
8010
8010
8010
8010
8010
8010
8030
4050
3F90
ENDCHAR
STARTCHAR 016C
ENCODING 364
SWIDTH 792 0
DWIDTH 22 0
BBX 15 24 4 0
BITMAP
1020
0840
0780
0000
0000
8002
8002
8002
8002
8002
8002
8002
8002
8002
8002
8002
8002
8004
8004
8004
8004
4008
2010
1FE0
ENDCHAR
STARTCHAR 016D
ENCODING 365
SWIDTH 648 0
DWIDTH 18 0
BBX 12 20 3 0
BITMAP
0040
3080
0980
0600
0000
0000
8010
8010
8010
8010
8010
8010
8010
8010
8010
8010
8010
8030
4050
3F90
ENDCHAR
STARTCHAR 016E
ENCODING 366
SWIDTH 792 0
DWIDTH 22 0
BBX 15 27 4 0
BITMAP
0300
0C80
0840
0880
0480
0300
0000
0000
8002
8002
8002
8002
8002
8002
8002
8002
8002
8002
8002
8002
8004
8004
8004
8004
4008
2010
1FE0
ENDCHAR
STARTCHAR 016F
ENCODING 367
SWIDTH 648 0
DWIDTH 18 0
BBX 12 22 3 0
BITMAP
0600
0900
1080
1080
0900
0600
0000
0000
8010
8010
8010
8010
8010
8010
8010
8010
8010
8010
8010
8030
4050
3F90
ENDCHAR
STARTCHAR 0170
ENCODING 368
SWIDTH 792 0
DWIDTH 22 0
BBX 15 24 4 0
BITMAP
0110
0220
0440
0000
0000
8002
8002
8002
8002
8002
8002
8002
8002
8002
8002
8002
8002
8004
8004
8004
8004
4008
2010
1FE0
ENDCHAR
STARTCHAR 0171
ENCODING 369
SWIDTH 648 0
DWIDTH 18 0
BBX 12 20 3 0
BITMAP
0220
0440
0880
0000
0000
0000
8010
8010
8010
8010
8010
8010
8010
8010
8010
8010
8010
8030
4050
3F90
ENDCHAR
STARTCHAR 0172
ENCODING 370
SWIDTH 792 0
DWIDTH 22 0
BBX 15 25 4 -6
BITMAP
8002
8002
8002
8002
8002
8002
8002
8002
8002
8002
8002
8002
8004
8004
8004
8004
4008
2010
1FE0
0100
0600
0400
0800
0800
0380
ENDCHAR
STARTCHAR 0173
ENCODING 371
SWIDTH 648 0
DWIDTH 18 0
BBX 12 20 3 -6
BITMAP
8010
8010
8010
8010
8010
8010
8010
8010
8010
8010
8010
8030
4050
3B90
0420
0040
0080
0080
0080
0070
ENDCHAR
STARTCHAR 0174
ENCODING 372
SWIDTH 1080 0
DWIDTH 30 0
BBX 27 24 1 0
BITMAP
00060000
00090000
00108000
00000000
00000000
80060020
40060020
400A0020
40090040
20090040
20110040
20108080
10108080
10208080
10204100
08404100
08404100
08402200
04802200
04801200
04801400
03001400
03000C00
01000800
ENDCHAR
STARTCHAR 0175
ENCODING 373
SWIDTH 828 0
DWIDTH 23 0
BBX 23 20 0 0
BITMAP
001800
002400
00C200
000000
000000
000000
801002
402804
402804
404808
204408
204408
208210
108210
110210
090120
090120
0A0140
0600C0
020040
ENDCHAR
STARTCHAR 0176
ENCODING 374
SWIDTH 576 0
DWIDTH 16 0
BBX 15 24 1 0
BITMAP
0380
0440
0820
0000
0000
8002
8004
4004
4008
2008
1010
1020
0820
0840
0440
0280
0300
0100
0100
0100
0100
0100
0100
0100
ENDCHAR
STARTCHAR 0177
ENCODING 375
SWIDTH 504 0
DWIDTH 14 0
BBX 15 25 -1 -5
BITMAP
0180
0240
0C20
0000
0000
0000
4002
2004
2004
1008
1008
1010
0810
0820
0420
0440
0240
0240
0180
0080
0100
0100
0200
0200
FC00
ENDCHAR
STARTCHAR 0178
ENCODING 376
SWIDTH 576 0
DWIDTH 16 0
BBX 15 23 1 0
BITMAP
0440
0000
0000
0000
8002
8004
4004
4008
2008
1010
1020
0820
0840
0440
0280
0300
0100
0100
0100
0100
0100
0100
0100
ENDCHAR
STARTCHAR 0179
ENCODING 377
SWIDTH 612 0
DWIDTH 17 0
BBX 16 24 1 0
BITMAP
0020
0040
0180
0000
0000
7FFE
0004
0008
0008
0010
0020
0040
0040
0080
0100
0200
0200
0400
0800
1000
2000
2000
4000
FFFF
ENDCHAR
STARTCHAR 017A
ENCODING 378
SWIDTH 468 0
DWIDTH 13 0
BBX 11 20 1 0
BITMAP
0080
0100
0600
0000
0000
0000
7FE0
0040
0080
0080
0100
0200
0400
0400
0800
1000
2000
2000
4000
FFE0
ENDCHAR
STARTCHAR 017B
ENCODING 379
SWIDTH 612 0
DWIDTH 17 0
BBX 16 23 1 0
BITMAP
0180
0000
0000
0000
7FFE
0004
0008
0008
0010
0020
0040
0040
0080
0100
0200
0200
0400
0800
1000
2000
2000
4000
FFFF
ENDCHAR
STARTCHAR 017C
ENCODING 380
SWIDTH 468 0
DWIDTH 13 0
BBX 11 19 1 0
BITMAP
0600
0000
0000
0000
0000
7FE0
0040
0080
0080
0100
0200
0400
0400
0800
1000
2000
2000
4000
FFE0
ENDCHAR
STARTCHAR 017D
ENCODING 381
SWIDTH 612 0
DWIDTH 17 0
BBX 16 24 1 0
BITMAP
0420
0240
0180
0000
0000
7FFE
0004
0008
0008
0010
0020
0040
0040
0080
0100
0200
0200
0400
0800
1000
2000
2000
4000
FFFF
ENDCHAR
STARTCHAR 017E
ENCODING 382
SWIDTH 468 0
DWIDTH 13 0
BBX 11 20 1 0
BITMAP
2080
1100
0E00
0000
0000
0000
7FE0
0040
0080
0080
0100
0200
0400
0400
0800
1000
2000
2000
4000
FFE0
ENDCHAR
STARTCHAR 017F
ENCODING 383
SWIDTH 252 0
DWIDTH 7 0
BBX 9 21 1 0
BITMAP
0600
1880
1000
2000
2000
2000
2000
E000
2000
2000
2000
2000
2000
2000
2000
2000
2000
2000
2000
2000
2000
ENDCHAR
STARTCHAR 018F
ENCODING 399
SWIDTH 792 0
DWIDTH 22 0
BBX 19 20 2 0
BITMAP
008000
0F3C00
100200
000100
000080
000040
000040
000020
000020
000020
FFFFE0
800020
800020
800020
800040
400040
400080
200100
180200
07FC00
ENDCHAR
STARTCHAR 0192
ENCODING 402
SWIDTH 396 0
DWIDTH 11 0
BBX 14 26 -2 -5
BITMAP
0018
0064
0080
0080
0100
0100
0100
07F8
0100
0100
0100
0100
0200
0200
0200
0200
0200
0200
0200
0200
0400
0400
0400
0400
0400
F800
ENDCHAR
STARTCHAR 01A0
ENCODING 416
SWIDTH 828 0
DWIDTH 23 0
BBX 20 23 2 0
BITMAP
000020
000020
000020
004040
079F80
180300
200080
400040
800040
800020
800020
800020
800010
800010
800010
800020
800020
800020
400040
200080
100100
080200
07FC00
ENDCHAR
STARTCHAR 01A1
ENCODING 417
SWIDTH 576 0
DWIDTH 16 0
BBX 14 18 1 0
BITMAP
0004
0004
0004
0008
0FF0
3010
4008
4004
8004
8004
8004
8004
8004
4004
4004
2008
1010
0FE0
ENDCHAR
STARTCHAR 01AF
ENCODING 431
SWIDTH 792 0
DWIDTH 22 0
BBX 17 23 4 0
BITMAP
000080
000080
000080
000100
800200
800200
800200
800200
800200
800200
800200
800200
800200
800200
800200
800200
800400
800400
800400
800400
400800
201000
1FE000
ENDCHAR
STARTCHAR 01B0
ENCODING 432
SWIDTH 648 0
DWIDTH 18 0
BBX 14 18 3 0
BITMAP
0004
0004
0004
0004
8018
8010
8010
8010
8010
8010
8010
8010
8010
8010
8010
8030
4050
3F90
ENDCHAR
STARTCHAR 01B7
ENCODING 439
SWIDTH 576 0
DWIDTH 16 0
BBX 14 19 1 0
BITMAP
7FF8
0010
0020
0040
0080
0080
0100
0200
0380
0070
0008
0008
0004
0004
0004
0004
8008
4010
3FE0
ENDCHAR
STARTCHAR 01C4
ENCODING 452
SWIDTH 1440 0
DWIDTH 40 0
BBX 35 24 4 0
BITMAP
0000008200
0000004400
0000003800
0000000000
0000000000
FFF007FFE0
800C000040
8002000080
8001000100
8001000200
8000800200
8000800400
8000800800
8000801000
8000801000
8000802000
8000804000
8000808000
8001008000
8001010000
8002020000
8004040000
8008080000
FFF00FFFE0
ENDCHAR
STARTCHAR 01C5
ENCODING 453
SWIDTH 1296 0
DWIDTH 36 0
BBX 31 20 4 0
BITMAP
00000208
FFF00110
800C00E0
80020000
80010000
80010000
800087FE
80008004
80008008
80008008
80008010
80008020
80008040
80008040
80010080
80010100
80020200
80040200
80080400
FFF00FFE
ENDCHAR
STARTCHAR 01C6
ENCODING 454
SWIDTH 1152 0
DWIDTH 32 0
BBX 30 20 1 1
BITMAP
00040410
00040220
00040140
00040080
00040000
00040000
0FE40FFC
30140008
400C0010
40040020
80040020
80040040
80040080
80040100
80040100
40040200
40040400
200C0800
10141000
0FE41FFC
ENDCHAR
STARTCHAR 01C7
ENCODING 455
SWIDTH 1044 0
DWIDTH 29 0
BBX 22 19 4 0
BITMAP
8003FC
800004
800004
800004
800004
800004
800004
800004
800004
800004
800004
800004
800004
800004
800004
800004
800808
800408
FFF3F0
ENDCHAR
STARTCHAR 01C8
ENCODING 456
SWIDTH 828 0
DWIDTH 23 0
BBX 16 25 4 -5
BITMAP
0001
8001
8000
8000
8000
8000
8001
8001
8001
8001
8001
8001
8001
8001
8001
8001
8001
8001
8001
FFF1
0001
0001
0001
0001
003E
ENDCHAR
STARTCHAR 01C9
ENCODING 457
SWIDTH 504 0
DWIDTH 14 0
BBX 8 26 3 -5
BITMAP
80
81
81
80
80
80
80
81
81
81
81
81
81
81
81
81
81
81
81
81
81
01
01
01
01
3E
ENDCHAR
STARTCHAR 01CA
ENCODING 458
SWIDTH 1260 0
DWIDTH 35 0
BBX 28 19 4 0
BITMAP
800207F0
C0020010
C0020010
A0020010
90020010
88020010
84020010
84020010
82020010
81020010
80820010
80820010
80420010
80220010
80120010
800A0010
800A1010
80060820
800207C0
ENDCHAR
STARTCHAR 01CB
ENCODING 459
SWIDTH 1044 0
DWIDTH 29 0
BBX 23 25 4 -5
BITMAP
000002
800202
C00200
C00200
A00200
900200
880202
840202
840202
820202
810202
808202
808202
804202
802202
801202
800A02
800A02
800602
800202
000002
000002
000002
000004
0000FC
ENDCHAR
STARTCHAR 01CC
ENCODING 460
SWIDTH 900 0
DWIDTH 25 0
BBX 20 25 3 -5
BITMAP
000010
000010
000000
000000
000000
000000
9FC020
A02020
C01020
801020
801020
800820
800820
800820
800820
800820
800820
800820
800820
800820
000020
000020
000020
000020
0007E0
ENDCHAR
STARTCHAR 01CD
ENCODING 461
SWIDTH 684 0
DWIDTH 19 0
BBX 19 24 0 0
BITMAP
020800
011000
00E000
000000
000000
00C000
00A000
00A000
011000
011000
020800
020800
040400
040400
080400
080200
100200
100100
2FFF00
200080
200080
400040
400040
800020
ENDCHAR
STARTCHAR 01CE
ENCODING 462
SWIDTH 540 0
DWIDTH 15 0
BBX 11 20 2 0
BITMAP
2080
1100
0A00
0400
0000
0000
3F80
C040
0020
0020
0020
0020
3FE0
4020
8020
8020
8020
8060
80A0
7F20
ENDCHAR
STARTCHAR 01D3
ENCODING 467
SWIDTH 792 0
DWIDTH 22 0
BBX 15 24 4 0
BITMAP
0840
0480
0300
0000
0000
8002
8002
8002
8002
8002
8002
8002
8002
8002
8002
8002
8002
8004
8004
8004
8004
4008
2010
1FE0
ENDCHAR
STARTCHAR 01D4
ENCODING 468
SWIDTH 648 0
DWIDTH 18 0
BBX 12 20 3 0
BITMAP
1040
0980
0600
0000
0000
0000
8010
8010
8010
8010
8010
8010
8010
8010
8010
8010
8010
8030
4050
3F90
ENDCHAR
STARTCHAR 01E4
ENCODING 484
SWIDTH 792 0
DWIDTH 22 0
BBX 20 20 2 0
BITMAP
006000
079C00
180300
200000
400000
800000
800000
800000
800000
800000
800000
800100
800100
803FF0
800100
400100
200100
100000
080300
07FC00
ENDCHAR
STARTCHAR 01E5
ENCODING 485
SWIDTH 648 0
DWIDTH 18 0
BBX 16 19 1 -5
BITMAP
0FE2
301A
400A
4006
8002
8002
8002
8002
8002
4006
400A
200A
1832
07C2
0004
01FF
0004
2008
1FF0
ENDCHAR
STARTCHAR 01E6
ENCODING 486
SWIDTH 756 0
DWIDTH 21 0
BBX 16 24 2 0
BITMAP
0210
0120
00C0
0000
0060
079C
1803
2000
4000
8000
8000
8000
8000
8000
8000
8001
8001
8001
8001
4001
2001
1000
0803
07FC
ENDCHAR
STARTCHAR 01E7
ENCODING 487
SWIDTH 648 0
DWIDTH 18 0
BBX 15 25 1 -5
BITMAP
0820
0440
0380
0000
0000
0000
0FE2
301A
400A
4006
8002
8002
8002
8002
8002
4006
400A
200A
1832
07C2
0004
0004
0004
2008
1FF0
ENDCHAR
STARTCHAR 01E8
ENCODING 488
SWIDTH 684 0
DWIDTH 19 0
BBX 14 24 4 0
BITMAP
10C0
0900
0600
0000
0000
800C
8010
8020
8040
8080
8100
8200
8400
8400
9C00
A200
A100
C080
8040
8020
8010
8008
800C
8004
ENDCHAR
STARTCHAR 01E9
ENCODING 489
SWIDTH 540 0
DWIDTH 15 0
BBX 15 26 0 0
BITMAP
8200
4C00
3000
0000
0000
1000
1000
1000
1000
1000
1000
1000
1004
1008
1010
1020
10C0
1180
1280
1440
1820
1010
1008
1008
1004
1002
ENDCHAR
STARTCHAR 01EA
ENCODING 490
SWIDTH 828 0
DWIDTH 23 0
BBX 20 26 2 -6
BITMAP
006000
079C00
180300
200080
400040
800040
800020
800020
800020
800010
800010
800010
800020
800020
800020
400040
200080
100080
080300
07BC00
004000
008000
010000
010000
010000
00E000
ENDCHAR
STARTCHAR 01EB
ENCODING 491
SWIDTH 576 0
DWIDTH 16 0
BBX 14 20 1 -6
BITMAP
0FE0
3010
4008
4004
8004
8004
8004
8004
8004
4004
4004
2008
1010
0EE0
0180
0300
0200
0400
0200
01C0
ENDCHAR
STARTCHAR 01EE
ENCODING 494
SWIDTH 576 0
DWIDTH 16 0
BBX 14 24 1 0
BITMAP
0840
0480
0300
0000
0000
7FF8
0010
0020
0040
0080
0080
0100
0200
0380
0070
0008
0008
0004
0004
0004
0004
8008
4010
3FE0
ENDCHAR
STARTCHAR 01EF
ENCODING 495
SWIDTH 468 0
DWIDTH 13 0
BBX 13 26 -1 -6
BITMAP
0040
0C80
0300
0000
0000
0000
7FF0
0010
0020
0040
0080
0080
0100
0200
0200
01E0
0010
0008
0008
0008
0008
0008
8008
4010
1020
0FC0
ENDCHAR
STARTCHAR 01FA
ENCODING 506
SWIDTH 684 0
DWIDTH 19 0
BBX 19 28 0 0
BITMAP
000800
005000
011000
011000
011000
012000
00C000
000000
000000
00C000
00A000
00A000
011000
011000
020800
020800
040400
040400
080400
080200
100200
100100
2FFF00
200080
200080
400040
400040
800020
ENDCHAR
STARTCHAR 01FB
ENCODING 507
SWIDTH 540 0
DWIDTH 15 0
BBX 11 23 2 0
BITMAP
0080
0500
1B00
1100
1100
1100
0E00
0000
0000
3F80
C040
0020
0020
0020
0020
3FE0
4020
8020
8020
8020
8060
80A0
7F20
ENDCHAR
STARTCHAR 01FC
ENCODING 508
SWIDTH 972 0
DWIDTH 27 0
BBX 26 24 0 0
BITMAP
00010000
00020000
00040000
00000000
00000000
000FFF80
00140000
00240000
00240000
00440000
00840000
00840000
01040000
01040000
0207FF00
04040000
04040000
08040000
17FC0000
10040000
20040000
40040000
40040000
8007FFC0
ENDCHAR
STARTCHAR 01FD
ENCODING 509
SWIDTH 972 0
DWIDTH 27 0
BBX 24 20 2 0
BITMAP
000400
001800
002000
000000
000000
000000
3F83F0
C04C0C
003002
003002
002002
002001
1FFFFF
602000
802000
802000
803000
804802
808404
7F03F8
ENDCHAR
STARTCHAR 01FE
ENCODING 510
SWIDTH 828 0
DWIDTH 23 0
BBX 20 26 2 -2
BITMAP
001800
002000
004000
000040
006080
079D00
180300
200280
400440
800840
800820
801020
802020
802010
804010
808010
810020
810020
820020
440040
280080
180100
180200
27BC00
404000
400000
ENDCHAR
STARTCHAR 01FF
ENCODING 511
SWIDTH 576 0
DWIDTH 16 0
BBX 14 22 1 -2
BITMAP
0020
00C0
0100
0000
0008
0008
0FF0
3030
4028
4044
8084
8084
8104
8204
8204
4404
4804
2808
1010
2EE0
2100
4000
ENDCHAR
STARTCHAR 0200
ENCODING 512
SWIDTH 684 0
DWIDTH 19 0
BBX 19 24 0 0
BITMAP
0C8000
024000
012000
000000
000000
00C000
00A000
00A000
011000
011000
020800
020800
040400
040400
080400
080200
100200
100100
2FFF00
200080
200080
400040
400040
800020
ENDCHAR
STARTCHAR 0201
ENCODING 513
SWIDTH 540 0
DWIDTH 15 0
BBX 11 20 2 0
BITMAP
8800
4400
2200
1000
0000
0000
3F80
C040
0020
0020
0020
0020
3FE0
4020
8020
8020
8020
8060
80A0
7F20
ENDCHAR
STARTCHAR 0202
ENCODING 514
SWIDTH 684 0
DWIDTH 19 0
BBX 19 24 0 0
BITMAP
01F000
020800
000000
000000
000000
00C000
00A000
00A000
011000
011000
020800
020800
040400
040400
080400
080200
100200
100100
2FFF00
200080
200080
400040
400040
800020
ENDCHAR
STARTCHAR 0203
ENCODING 515
SWIDTH 540 0
DWIDTH 15 0
BBX 11 20 2 0
BITMAP
0F00
3080
2080
0000
0000
0000
3F80
C040
0020
0020
0020
0020
3FE0
4020
8020
8020
8020
8060
80A0
7F20
ENDCHAR
STARTCHAR 0204
ENCODING 516
SWIDTH 648 0
DWIDTH 18 0
BBX 13 24 4 0
BITMAP
4400
2200
1100
0000
0000
FFF0
8000
8000
8000
8000
8000
8000
8000
8000
FFC0
8000
8000
8000
8000
8000
8000
8000
8000
FFF8
ENDCHAR
STARTCHAR 0205
ENCODING 517
SWIDTH 576 0
DWIDTH 16 0
BBX 14 20 1 0
BITMAP
2200
1100
0880
0000
0000
0000
0FE0
3010
4008
4008
8004
8004
FFFC
8000
8000
8000
4000
2008
1010
0FE0
ENDCHAR
STARTCHAR 0206
ENCODING 518
SWIDTH 648 0
DWIDTH 18 0
BBX 13 24 4 0
BITMAP
0F00
3080
2040
0000
0000
FFF0
8000
8000
8000
8000
8000
8000
8000
8000
FFC0
8000
8000
8000
8000
8000
8000
8000
8000
FFF8
ENDCHAR
STARTCHAR 0207
ENCODING 519
SWIDTH 576 0
DWIDTH 16 0
BBX 14 20 1 0
BITMAP
0780
0840
1020
0000
0000
0000
0FE0
3010
4008
4008
8004
8004
FFFC
8000
8000
8000
4000
2008
1010
0FE0
ENDCHAR
STARTCHAR 0208
ENCODING 520
SWIDTH 252 0
DWIDTH 7 0
BBX 7 24 -1 0
BITMAP
88
44
22
00
00
08
08
08
08
08
08
08
08
08
08
08
08
08
08
08
08
08
08
08
ENDCHAR
STARTCHAR 0209
ENCODING 521
SWIDTH 216 0
DWIDTH 6 0
BBX 7 20 -2 0
BITMAP
88
44
22
00
00
00
04
04
04
04
04
04
04
04
04
04
04
04
04
04
ENDCHAR
STARTCHAR 020A
ENCODING 522
SWIDTH 252 0
DWIDTH 7 0
BBX 8 24 0 0
BITMAP
3C
C2
81
00
00
10
10
10
10
10
10
10
10
10
10
10
10
10
10
10
10
10
10
10
ENDCHAR
STARTCHAR 020B
ENCODING 523
SWIDTH 216 0
DWIDTH 6 0
BBX 6 20 0 0
BITMAP
38
84
84
00
00
00
10
10
10
10
10
10
10
10
10
10
10
10
10
10
ENDCHAR
STARTCHAR 020C
ENCODING 524
SWIDTH 828 0
DWIDTH 23 0
BBX 20 24 2 0
BITMAP
048000
024000
012000
000000
006000
079C00
180300
200080
400040
800040
800020
800020
800020
800010
800010
800010
800020
800020
800020
400040
200080
100100
080200
07FC00
ENDCHAR
STARTCHAR 020D
ENCODING 525
SWIDTH 576 0
DWIDTH 16 0
BBX 14 20 1 0
BITMAP
2200
1100
0880
0000
0000
0000
0FE0
3010
4008
4004
8004
8004
8004
8004
8004
4004
4004
2008
1010
0FE0
ENDCHAR
STARTCHAR 020E
ENCODING 526
SWIDTH 828 0
DWIDTH 23 0
BBX 20 24 2 0
BITMAP
01F000
020800
020000
000000
006000
079C00
180300
200080
400040
800040
800020
800020
800020
800010
800010
800010
800020
800020
800020
400040
200080
100100
080200
07FC00
ENDCHAR
STARTCHAR 020F
ENCODING 527
SWIDTH 576 0
DWIDTH 16 0
BBX 14 20 1 0
BITMAP
07C0
0820
1020
0000
0000
0000
0FE0
3010
4008
4004
8004
8004
8004
8004
8004
4004
4004
2008
1010
0FE0
ENDCHAR
STARTCHAR 0210
ENCODING 528
SWIDTH 684 0
DWIDTH 19 0
BBX 14 24 4 0
BITMAP
4400
2200
1100
0000
0000
FFE0
8010
8008
8008
8004
8004
8004
8004
8008
8008
8010
8060
FFC0
8040
8020
8010
8010
8008
8004
ENDCHAR
STARTCHAR 0211
ENCODING 529
SWIDTH 360 0
DWIDTH 10 0
BBX 8 20 1 0
BITMAP
88
44
22
00
00
00
27
38
30
20
20
20
20
20
20
20
20
20
20
20
ENDCHAR
STARTCHAR 0212
ENCODING 530
SWIDTH 684 0
DWIDTH 19 0
BBX 14 24 4 0
BITMAP
0F00
1080
0040
0000
0000
FFE0
8010
8008
8008
8004
8004
8004
8004
8008
8008
8010
8060
FFC0
8040
8020
8010
8010
8008
8004
ENDCHAR
STARTCHAR 0213
ENCODING 531
SWIDTH 360 0
DWIDTH 10 0
BBX 7 20 3 0
BITMAP
78
84
82
00
00
00
9C
E0
C0
80
80
80
80
80
80
80
80
80
80
80
ENDCHAR
STARTCHAR 0214
ENCODING 532
SWIDTH 792 0
DWIDTH 22 0
BBX 15 24 4 0
BITMAP
2200
1100
0880
0000
0000
8002
8002
8002
8002
8002
8002
8002
8002
8002
8002
8002
8002
8004
8004
8004
8004
4008
2010
1FE0
ENDCHAR
STARTCHAR 0215
ENCODING 533
SWIDTH 648 0
DWIDTH 18 0
BBX 12 20 3 0
BITMAP
4400
2200
1100
0000
0000
0000
8010
8010
8010
8010
8010
8010
8010
8010
8010
8010
8010
8030
4050
3F90
ENDCHAR
STARTCHAR 0216
ENCODING 534
SWIDTH 792 0
DWIDTH 22 0
BBX 15 24 4 0
BITMAP
0780
1840
1020
0000
0000
8002
8002
8002
8002
8002
8002
8002
8002
8002
8002
8002
8002
8004
8004
8004
8004
4008
2010
1FE0
ENDCHAR
STARTCHAR 0217
ENCODING 535
SWIDTH 648 0
DWIDTH 18 0
BBX 12 20 3 0
BITMAP
0F00
1080
2040
0000
0000
0000
8010
8010
8010
8010
8010
8010
8010
8010
8010
8010
8010
8030
4050
3F90
ENDCHAR
STARTCHAR 0218
ENCODING 536
SWIDTH 576 0
DWIDTH 16 0
BBX 13 27 2 -7
BITMAP
0300
3CE0
4010
8000
8000
8000
8000
8000
4000
3800
0700
00E0
0010
0008
0008
0008
0008
8010
4010
3DE0
0200
0000
0000
0000
0300
0200
0200
ENDCHAR
STARTCHAR 0219
ENCODING 537
SWIDTH 432 0
DWIDTH 12 0
BBX 11 21 1 -7
BITMAP
3F80
4040
8000
8000
8000
4000
3800
0780
0040
0020
0020
0020
8040
7B80
0400
0000
0000
0400
0400
0400
0400
ENDCHAR
STARTCHAR 021A
ENCODING 538
SWIDTH 540 0
DWIDTH 15 0
BBX 14 26 1 -7
BITMAP
FFFC
0200
0200
0200
0200
0200
0200
0200
0200
0200
0200
0200
0200
0200
0200
0200
0200
0200
0200
0000
0000
0000
0200
0200
0200
0200
ENDCHAR
STARTCHAR 021B
ENCODING 539
SWIDTH 360 0
DWIDTH 10 0
BBX 8 25 1 -7
BITMAP
20
20
20
20
FE
20
20
20
20
20
20
20
20
20
20
20
10
0F
00
00
00
00
04
04
04
ENDCHAR
STARTCHAR 021E
ENCODING 542
SWIDTH 792 0
DWIDTH 22 0
BBX 15 24 4 0
BITMAP
0820
04C0
0300
0000
0000
8002
8002
8002
8002
8002
8002
8002
8002
8002
FFFE
8002
8002
8002
8002
8002
8002
8002
8002
8002
ENDCHAR
STARTCHAR 021F
ENCODING 543
SWIDTH 648 0
DWIDTH 18 0
BBX 16 26 0 0
BITMAP
8200
4C00
3000
0000
0000
1000
1000
1000
1000
1000
1000
1000
13F8
1404
1802
1002
1002
1001
1001
1001
1001
1001
1001
1001
1001
1001
ENDCHAR
STARTCHAR 022A
ENCODING 554
SWIDTH 828 0
DWIDTH 23 0
BBX 20 26 2 0
BITMAP
03F800
000000
000000
011800
000000
000000
006000
079C00
180300
200080
400040
800040
800020
800020
800020
800010
800010
800010
800020
800020
800020
400040
200080
100100
080200
07FC00
ENDCHAR
STARTCHAR 022B
ENCODING 555
SWIDTH 576 0
DWIDTH 16 0
BBX 14 21 1 0
BITMAP
0FE0
0000
0C40
0000
0000
0000
0000
0FE0
3010
4008
4004
8004
8004
8004
8004
8004
4004
4004
2008
1010
0FE0
ENDCHAR
STARTCHAR 022C
ENCODING 556
SWIDTH 828 0
DWIDTH 23 0
BBX 20 26 2 0
BITMAP
03F800
000000
000000
03C800
003000
000000
006000
079C00
180300
200080
400040
800040
800020
800020
800020
800010
800010
800010
800020
800020
800020
400040
200080
100100
080200
07FC00
ENDCHAR
STARTCHAR 022D
ENCODING 557
SWIDTH 576 0
DWIDTH 16 0
BBX 14 21 1 0
BITMAP
0FE0
0000
0F20
00C0
0000
0000
0000
0FE0
3010
4008
4004
8004
8004
8004
8004
8004
4004
4004
2008
1010
0FE0
ENDCHAR
STARTCHAR 0230
ENCODING 560
SWIDTH 828 0
DWIDTH 23 0
BBX 20 26 2 0
BITMAP
03F800
000000
000000
004000
000000
000000
006000
079C00
180300
200080
400040
800040
800020
800020
800020
800010
800010
800010
800020
800020
800020
400040
200080
100100
080200
07FC00
ENDCHAR
STARTCHAR 0231
ENCODING 561
SWIDTH 576 0
DWIDTH 16 0
BBX 14 21 1 0
BITMAP
0FE0
0000
0100
0000
0000
0000
0000
0FE0
3010
4008
4004
8004
8004
8004
8004
8004
4004
4004
2008
1010
0FE0
ENDCHAR
STARTCHAR 0232
ENCODING 562
SWIDTH 576 0
DWIDTH 16 0
BBX 15 23 1 0
BITMAP
0FE0
0000
0000
0000
8002
8004
4004
4008
2008
1010
1020
0820
0840
0440
0280
0300
0100
0100
0100
0100
0100
0100
0100
ENDCHAR
STARTCHAR 0233
ENCODING 563
SWIDTH 504 0
DWIDTH 14 0
BBX 15 24 -1 -5
BITMAP
0FE0
0000
0000
0000
0000
4002
2004
2004
1008
1008
1010
0810
0820
0420
0440
0240
0240
0180
0080
0100
0100
0200
0200
FC00
ENDCHAR
STARTCHAR 0237
ENCODING 567
SWIDTH 252 0
DWIDTH 7 0
BBX 6 19 -2 -5
BITMAP
04
04
04
04
04
04
04
04
04
04
04
04
04
04
04
04
04
04
F8
ENDCHAR
STARTCHAR 0259
ENCODING 601
SWIDTH 576 0
DWIDTH 16 0
BBX 14 14 1 0
BITMAP
1FC0
2030
0008
0008
0008
0004
0004
FFFC
8004
8008
4008
2010
1020
0FC0
ENDCHAR
STARTCHAR 0292
ENCODING 658
SWIDTH 468 0
DWIDTH 13 0
BBX 13 20 -1 -6
BITMAP
7FF0
0010
0020
0040
0080
0080
0100
0200
0200
01E0
0010
0008
0008
0008
0008
0008
8008
4010
1020
0FC0
ENDCHAR
STARTCHAR 02B9
ENCODING 697
SWIDTH 180 0
DWIDTH 5 0
BBX 1 7 2 12
BITMAP
80
80
80
80
80
80
80
ENDCHAR
STARTCHAR 02BA
ENCODING 698
SWIDTH 324 0
DWIDTH 9 0
BBX 5 7 2 12
BITMAP
88
88
88
88
88
88
88
ENDCHAR
STARTCHAR 02BB
ENCODING 699
SWIDTH 252 0
DWIDTH 7 0
BBX 1 5 3 17
BITMAP
80
80
80
80
80
ENDCHAR
STARTCHAR 02BC
ENCODING 700
SWIDTH 180 0
DWIDTH 5 0
BBX 1 5 2 15
BITMAP
80
80
80
80
80
ENDCHAR
STARTCHAR 02BE
ENCODING 702
SWIDTH 576 0
DWIDTH 16 0
BBX 3 5 8 17
BITMAP
80
40
20
20
40
ENDCHAR
STARTCHAR 02BF
ENCODING 703
SWIDTH 576 0
DWIDTH 16 0
BBX 2 4 6 18
BITMAP
80
80
80
C0
ENDCHAR
STARTCHAR 02C6
ENCODING 710
SWIDTH 576 0
DWIDTH 16 0
BBX 7 3 5 17
BITMAP
30
48
86
ENDCHAR
STARTCHAR 02C7
ENCODING 711
SWIDTH 576 0
DWIDTH 16 0
BBX 7 3 5 17
BITMAP
82
44
38
ENDCHAR
STARTCHAR 02C8
ENCODING 712
SWIDTH 144 0
DWIDTH 4 0
BBX 1 4 2 14
BITMAP
80
80
80
80
ENDCHAR
STARTCHAR 02C9
ENCODING 713
SWIDTH 576 0
DWIDTH 16 0
BBX 7 1 5 18
BITMAP
FE
ENDCHAR
STARTCHAR 02CA
ENCODING 714
SWIDTH 576 0
DWIDTH 16 0
BBX 4 3 8 17
BITMAP
30
40
80
ENDCHAR
STARTCHAR 02CB
ENCODING 715
SWIDTH 576 0
DWIDTH 16 0
BBX 4 3 5 17
BITMAP
80
60
10
ENDCHAR
STARTCHAR 02CC
ENCODING 716
SWIDTH 144 0
DWIDTH 4 0
BBX 1 4 2 -6
BITMAP
80
80
80
80
ENDCHAR
STARTCHAR 02D8
ENCODING 728
SWIDTH 576 0
DWIDTH 16 0
BBX 7 3 5 17
BITMAP
02
82
7C
ENDCHAR
STARTCHAR 02D9
ENCODING 729
SWIDTH 576 0
DWIDTH 16 0
BBX 1 1 8 18
BITMAP
80
ENDCHAR
STARTCHAR 02DA
ENCODING 730
SWIDTH 576 0
DWIDTH 16 0
BBX 5 5 6 17
BITMAP
20
90
88
88
F0
ENDCHAR
STARTCHAR 02DB
ENCODING 731
SWIDTH 576 0
DWIDTH 16 0
BBX 4 6 4 -6
BITMAP
30
40
80
80
80
70
ENDCHAR
STARTCHAR 02DC
ENCODING 732
SWIDTH 576 0
DWIDTH 16 0
BBX 7 3 5 17
BITMAP
40
B2
0C
ENDCHAR
STARTCHAR 02DD
ENCODING 733
SWIDTH 576 0
DWIDTH 16 0
BBX 7 3 6 17
BITMAP
10
26
C8
ENDCHAR
STARTCHAR 0300
ENCODING 768
SWIDTH 0 0
DWIDTH 0 0
BBX 4 3 5 17
BITMAP
80
60
10
ENDCHAR
STARTCHAR 0301
ENCODING 769
SWIDTH 0 0
DWIDTH 0 0
BBX 4 3 8 17
BITMAP
30
40
80
ENDCHAR
STARTCHAR 0302
ENCODING 770
SWIDTH 0 0
DWIDTH 0 0
BBX 7 3 5 17
BITMAP
30
48
86
ENDCHAR
STARTCHAR 0303
ENCODING 771
SWIDTH 0 0
DWIDTH 0 0
BBX 7 3 5 17
BITMAP
40
B2
0C
ENDCHAR
STARTCHAR 0304
ENCODING 772
SWIDTH 0 0
DWIDTH 0 0
BBX 7 1 5 18
BITMAP
FE
ENDCHAR
STARTCHAR 0306
ENCODING 774
SWIDTH 0 0
DWIDTH 0 0
BBX 7 3 5 17
BITMAP
02
82
7C
ENDCHAR
STARTCHAR 0307
ENCODING 775
SWIDTH 0 0
DWIDTH 0 0
BBX 1 1 8 18
BITMAP
80
ENDCHAR
STARTCHAR 0308
ENCODING 776
SWIDTH 0 0
DWIDTH 0 0
BBX 6 1 5 18
BITMAP
C4
ENDCHAR
STARTCHAR 0309
ENCODING 777
SWIDTH 0 0
DWIDTH 0 0
BBX 4 4 6 17
BITMAP
F0
10
10
10
ENDCHAR
STARTCHAR 030A
ENCODING 778
SWIDTH 0 0
DWIDTH 0 0
BBX 5 5 6 17
BITMAP
20
90
88
88
F0
ENDCHAR
STARTCHAR 030B
ENCODING 779
SWIDTH 0 0
DWIDTH 0 0
BBX 7 3 6 17
BITMAP
10
26
C8
ENDCHAR
STARTCHAR 030C
ENCODING 780
SWIDTH 0 0
DWIDTH 0 0
BBX 7 3 5 17
BITMAP
82
44
38
ENDCHAR
STARTCHAR 030F
ENCODING 783
SWIDTH 0 0
DWIDTH 0 0
BBX 7 3 3 17
BITMAP
88
44
22
ENDCHAR
STARTCHAR 0311
ENCODING 785
SWIDTH 0 0
DWIDTH 0 0
BBX 7 3 5 17
BITMAP
78
86
82
ENDCHAR
STARTCHAR 0312
ENCODING 786
SWIDTH 0 0
DWIDTH 0 0
BBX 1 4 8 17
BITMAP
80
80
80
80
ENDCHAR
STARTCHAR 031B
ENCODING 795
SWIDTH 0 0
DWIDTH 0 0
BBX 2 4 9 14
BITMAP
40
40
40
80
ENDCHAR
STARTCHAR 0323
ENCODING 803
SWIDTH 0 0
DWIDTH 0 0
BBX 1 1 8 -4
BITMAP
80
ENDCHAR
STARTCHAR 0324
ENCODING 804
SWIDTH 0 0
DWIDTH 0 0
BBX 5 2 6 -5
BITMAP
08
88
ENDCHAR
STARTCHAR 0326
ENCODING 806
SWIDTH 0 0
DWIDTH 0 0
BBX 1 3 8 -6
BITMAP
80
80
80
ENDCHAR
STARTCHAR 0327
ENCODING 807
SWIDTH 0 0
DWIDTH 0 0
BBX 4 6 6 -6
BITMAP
40
40
30
10
10
E0
ENDCHAR
STARTCHAR 0328
ENCODING 808
SWIDTH 0 0
DWIDTH 0 0
BBX 4 6 4 -6
BITMAP
30
40
80
80
80
70
ENDCHAR
STARTCHAR 032E
ENCODING 814
SWIDTH 0 0
DWIDTH 0 0
BBX 7 4 5 -6
BITMAP
02
82
44
38
ENDCHAR
STARTCHAR 0331
ENCODING 817
SWIDTH 0 0
DWIDTH 0 0
BBX 7 1 5 -5
BITMAP
FE
ENDCHAR
STARTCHAR 0335
ENCODING 821
SWIDTH 0 0
DWIDTH 0 0
BBX 11 1 3 12
BITMAP
FFE0
ENDCHAR
STARTCHAR 0336
ENCODING 822
SWIDTH 0 0
DWIDTH 0 0
BBX 22 1 0 12
BITMAP
FFFFFC
ENDCHAR
STARTCHAR 0337
ENCODING 823
SWIDTH 0 0
DWIDTH 0 0
BBX 5 3 2 9
BITMAP
18
20
C0
ENDCHAR
STARTCHAR 0338
ENCODING 824
SWIDTH 0 0
DWIDTH 0 0
BBX 12 18 2 -2
BITMAP
0010
0010
0020
0040
0040
0080
0100
0100
0200
0400
0400
0800
1000
1000
2000
4000
4000
8000
ENDCHAR
STARTCHAR 0394
ENCODING 916
SWIDTH 684 0
DWIDTH 19 0
BBX 19 19 0 0
BITMAP
00C000
00A000
00A000
011000
011000
020800
020800
040400
040400
080400
080200
100200
100100
200100
200080
400080
400040
400040
FFFFE0
ENDCHAR
STARTCHAR 03A9
ENCODING 937
SWIDTH 900 0
DWIDTH 25 0
BBX 25 20 0 0
BITMAP
000C0000
00F38000
03006000
04001000
08000800
18000800
10000400
10000400
20000400
20000200
20000200
20000200
20000400
10000400
10000400
08000800
08000800
04001000
03002000
FF80FF80
ENDCHAR
STARTCHAR 03BC
ENCODING 956
SWIDTH 648 0
DWIDTH 18 0
BBX 12 19 3 -5
BITMAP
8010
8010
8010
8010
8010
8010
8010
8010
8010
8010
8010
C030
A050
9D90
8200
8000
8000
8000
8000
ENDCHAR
STARTCHAR 03C0
ENCODING 960
SWIDTH 684 0
DWIDTH 19 0
BBX 19 14 0 0
BITMAP
7FFFE0
820200
820200
820200
820200
820200
020200
020200
040200
040200
040200
040200
040200
040200
ENDCHAR
STARTCHAR 0400
ENCODING 1024
SWIDTH 612 0
DWIDTH 17 0
BBX 13 24 4 0
BITMAP
1000
0800
0600
0000
0000
FFF0
8000
8000
8000
8000
8000
8000
8000
8000
FFE0
8000
8000
8000
8000
8000
8000
8000
8000
FFF8
ENDCHAR
STARTCHAR 0401
ENCODING 1025
SWIDTH 612 0
DWIDTH 17 0
BBX 13 23 4 0
BITMAP
1080
0000
0000
0000
FFF0
8000
8000
8000
8000
8000
8000
8000
8000
FFE0
8000
8000
8000
8000
8000
8000
8000
8000
FFF8
ENDCHAR
STARTCHAR 0402
ENCODING 1026
SWIDTH 792 0
DWIDTH 22 0
BBX 20 19 1 0
BITMAP
FFFC00
020000
020000
020000
020000
020000
020000
020400
02FBC0
030020
020010
020010
020010
020010
020010
020010
020020
020040
020F80
ENDCHAR
STARTCHAR 0403
ENCODING 1027
SWIDTH 540 0
DWIDTH 15 0
BBX 11 24 4 0
BITMAP
0100
0200
0400
0000
0000
FFE0
8000
8000
8000
8000
8000
8000
8000
8000
8000
8000
8000
8000
8000
8000
8000
8000
8000
8000
ENDCHAR
STARTCHAR 0404
ENCODING 1028
SWIDTH 684 0
DWIDTH 19 0
BBX 16 20 2 0
BITMAP
0040
07BC
1803
2000
4000
4000
8000
8000
8000
8000
FFF0
8000
8000
8000
8000
4000
2000
1000
0803
07FC
ENDCHAR
STARTCHAR 0405
ENCODING 1029
SWIDTH 576 0
DWIDTH 16 0
BBX 13 20 2 0
BITMAP
0200
3CE0
4010
8000
8000
8000
8000
8000
4000
3800
0780
0060
0010
0008
0008
0008
0008
8008
4010
3FE0
ENDCHAR
STARTCHAR 0406
ENCODING 1030
SWIDTH 288 0
DWIDTH 8 0
BBX 1 19 4 0
BITMAP
80
80
80
80
80
80
80
80
80
80
80
80
80
80
80
80
80
80
80
ENDCHAR
STARTCHAR 0407
ENCODING 1031
SWIDTH 252 0
DWIDTH 7 0
BBX 6 23 1 0
BITMAP
84
00
00
00
20
20
20
20
20
20
20
20
20
20
20
20
20
20
20
20
20
20
20
ENDCHAR
STARTCHAR 0408
ENCODING 1032
SWIDTH 468 0
DWIDTH 13 0
BBX 9 19 1 0
BITMAP
3F80
0080
0080
0080
0080
0080
0080
0080
0080
0080
0080
0080
0080
0080
0080
0080
8080
4100
3E00
ENDCHAR
STARTCHAR 0409
ENCODING 1033
SWIDTH 1152 0
DWIDTH 32 0
BBX 31 19 0 0
BITMAP
07FFC000
04004000
04004000
04004000
04004000
04004000
04004000
04007FF0
0400400C
04004002
04004002
04004002
04004002
08004002
08004002
08004002
08004004
10004004
E0007FF8
ENDCHAR
STARTCHAR 040A
ENCODING 1034
SWIDTH 1188 0
DWIDTH 33 0
BBX 28 19 4 0
BITMAP
80020000
80020000
80020000
80020000
80020000
80020000
80020000
80020000
FFFFFF00
800200C0
80020020
80020010
80020010
80020010
80020010
80020020
80020020
80020040
8003FF80
ENDCHAR
STARTCHAR 040B
ENCODING 1035
SWIDTH 792 0
DWIDTH 22 0
BBX 20 19 1 0
BITMAP
FFFC00
020000
020000
020000
020000
020000
020000
020400
02F9C0
030020
020010
020010
020010
020010
020010
020010
020010
020010
020010
ENDCHAR
STARTCHAR 040C
ENCODING 1036
SWIDTH 684 0
DWIDTH 19 0
BBX 14 24 4 0
BITMAP
0100
0200
0400
0000
0000
8008
8010
8020
8040
8040
8080
8100
8200
8400
FC00
8200
8100
8080
8040
8040
8020
8010
8008
8004
ENDCHAR
STARTCHAR 040D
ENCODING 1037
SWIDTH 792 0
DWIDTH 22 0
BBX 15 24 4 0
BITMAP
0C00
0200
0100
0000
0000
8002
8006
800A
8012
8012
8022
8042
8082
8102
8102
8202
8402
8802
8802
9002
A002
C002
8002
8002
ENDCHAR
STARTCHAR 040E
ENCODING 1038
SWIDTH 648 0
DWIDTH 18 0
BBX 16 24 1 0
BITMAP
1010
0820
07C0
0000
0000
8001
8001
4002
2002
2004
1004
1008
0810
0810
0420
0420
0240
0240
0180
0080
0100
0100
0200
3C00
ENDCHAR
STARTCHAR 040F
ENCODING 1039
SWIDTH 792 0
DWIDTH 22 0
BBX 15 23 4 -5
BITMAP
8002
8002
8002
8002
8002
8002
8002
8002
8002
8002
8002
8002
8002
8002
8002
8002
8002
8002
FFFE
0200
0200
0200
0200
ENDCHAR
STARTCHAR 0410
ENCODING 1040
SWIDTH 684 0
DWIDTH 19 0
BBX 18 19 1 0
BITMAP
00C000
014000
012000
022000
021000
021000
041000
040800
080800
080400
100400
100200
200200
3FFD00
400100
400080
800080
800040
800040
ENDCHAR
STARTCHAR 0411
ENCODING 1041
SWIDTH 684 0
DWIDTH 19 0
BBX 14 19 4 0
BITMAP
FFF8
8000
8000
8000
8000
8000
8000
8000
FFE0
8018
8008
8004
8004
8004
8004
8004
8008
8010
FFE0
ENDCHAR
STARTCHAR 0412
ENCODING 1042
SWIDTH 720 0
DWIDTH 20 0
BBX 15 19 4 0
BITMAP
FFE0
8018
8008
8008
8004
8008
8008
8008
8030
FFF0
8008
8004
8004
8002
8002
8004
8004
8008
FFF0
ENDCHAR
STARTCHAR 0413
ENCODING 1043
SWIDTH 540 0
DWIDTH 15 0
BBX 11 19 4 0
BITMAP
FFE0
8000
8000
8000
8000
8000
8000
8000
8000
8000
8000
8000
8000
8000
8000
8000
8000
8000
8000
ENDCHAR
STARTCHAR 0414
ENCODING 1044
SWIDTH 756 0
DWIDTH 21 0
BBX 20 24 0 -5
BITMAP
07FF80
040080
040080
040080
040080
040080
040080
040080
080080
080080
080080
080080
080080
080080
080080
080080
100080
100080
FFFFF0
800010
800010
800010
800010
800000
ENDCHAR
STARTCHAR 0415
ENCODING 1045
SWIDTH 612 0
DWIDTH 17 0
BBX 13 19 4 0
BITMAP
FFF0
8000
8000
8000
8000
8000
8000
8000
8000
FFE0
8000
8000
8000
8000
8000
8000
8000
8000
FFF8
ENDCHAR
STARTCHAR 0416
ENCODING 1046
SWIDTH 972 0
DWIDTH 27 0
BBX 25 19 1 0
BITMAP
40080100
20080200
20080200
10080400
08080800
08081000
04081000
02082000
02084000
01FFC000
02082000
04081000
08081000
08080800
10080400
20080200
40080200
40080100
80080080
ENDCHAR
STARTCHAR 0417
ENCODING 1047
SWIDTH 612 0
DWIDTH 17 0
BBX 14 20 1 0
BITMAP
0300
3CE0
4010
0008
0008
0008
0008
0008
0010
00E0
0F30
0008
0004
0004
0004
0004
0004
8008
6010
1FE0
ENDCHAR
STARTCHAR 0418
ENCODING 1048
SWIDTH 792 0
DWIDTH 22 0
BBX 15 19 4 0
BITMAP
8002
8006
800A
8012
8012
8022
8042
8082
8102
8102
8202
8402
8802
8802
9002
A002
C002
8002
8002
ENDCHAR
STARTCHAR 0419
ENCODING 1049
SWIDTH 792 0
DWIDTH 22 0
BBX 15 24 4 0
BITMAP
1020
0820
06C0
0100
0000
8002
8006
800A
8012
8012
8022
8042
8082
8102
8102
8202
8402
8802
8802
9002
A002
C002
8002
8002
ENDCHAR
STARTCHAR 041A
ENCODING 1050
SWIDTH 684 0
DWIDTH 19 0
BBX 14 19 4 0
BITMAP
8008
8010
8020
8040
8040
8080
8100
8200
8400
FC00
8200
8100
8080
8040
8040
8020
8010
8008
8004
ENDCHAR
STARTCHAR 041B
ENCODING 1051
SWIDTH 756 0
DWIDTH 21 0
BBX 18 19 0 0
BITMAP
07FFC0
040040
040040
040040
040040
040040
040040
040040
040040
040040
040040
040040
040040
080040
080040
080040
080040
100040
E00040
ENDCHAR
STARTCHAR 041C
ENCODING 1052
SWIDTH 936 0
DWIDTH 26 0
BBX 19 19 4 0
BITMAP
800020
800060
C000A0
A000A0
A00120
900120
900220
880220
880420
840820
820820
821020
811020
812020
80A020
804020
800020
800020
800020
ENDCHAR
STARTCHAR 041D
ENCODING 1053
SWIDTH 792 0
DWIDTH 22 0
BBX 15 19 4 0
BITMAP
8002
8002
8002
8002
8002
8002
8002
8002
8002
FFFE
8002
8002
8002
8002
8002
8002
8002
8002
8002
ENDCHAR
STARTCHAR 041E
ENCODING 1054
SWIDTH 828 0
DWIDTH 23 0
BBX 20 19 2 1
BITMAP
079E00
080100
300080
400040
400020
800020
800020
800010
800010
800010
800010
800010
800020
800020
400040
200040
100080
080300
07FC00
ENDCHAR
STARTCHAR 041F
ENCODING 1055
SWIDTH 828 0
DWIDTH 23 0
BBX 15 19 4 0
BITMAP
FFFE
8002
8002
8002
8002
8002
8002
8002
8002
8002
8002
8002
8002
8002
8002
8002
8002
8002
8002
ENDCHAR
STARTCHAR 0420
ENCODING 1056
SWIDTH 684 0
DWIDTH 19 0
BBX 14 19 4 0
BITMAP
FFE0
8010
8008
8004
8004
8004
8004
8004
8004
8008
8010
8060
FF80
8000
8000
8000
8000
8000
8000
ENDCHAR
STARTCHAR 0421
ENCODING 1057
SWIDTH 684 0
DWIDTH 19 0
BBX 16 19 2 1
BITMAP
079E
0801
3000
4000
4000
8000
8000
8000
8000
8000
8000
8000
8000
8000
4000
2000
1000
0803
07FC
ENDCHAR
STARTCHAR 0422
ENCODING 1058
SWIDTH 540 0
DWIDTH 15 0
BBX 14 19 1 0
BITMAP
FFFC
0200
0200
0200
0200
0200
0200
0200
0200
0200
0200
0200
0200
0200
0200
0200
0200
0200
0200
ENDCHAR
STARTCHAR 0423
ENCODING 1059
SWIDTH 648 0
DWIDTH 18 0
BBX 16 19 1 0
BITMAP
8001
8001
4002
2002
2004
1004
1008
0810
0810
0420
0420
0240
0240
0180
0080
0100
0100
0200
3C00
ENDCHAR
STARTCHAR 0424
ENCODING 1060
SWIDTH 864 0
DWIDTH 24 0
BBX 21 21 2 -1
BITMAP
002000
002000
03FE00
0C2180
302060
402010
802010
802008
802008
802008
802008
802008
802008
802008
802010
402020
302040
0C2180
037600
002000
002000
ENDCHAR
STARTCHAR 0425
ENCODING 1061
SWIDTH 612 0
DWIDTH 17 0
BBX 15 19 1 0
BITMAP
4004
2008
2010
1010
0820
0840
0440
0280
0100
0300
0280
0440
0840
0820
1010
2008
4008
4004
8002
ENDCHAR
STARTCHAR 0426
ENCODING 1062
SWIDTH 792 0
DWIDTH 22 0
BBX 18 24 4 -5
BITMAP
800200
800200
800200
800200
800200
800200
800200
800200
800200
800200
800200
800200
800200
800200
800200
800200
800200
800200
FFFFC0
000040
000040
000040
000040
000040
ENDCHAR
STARTCHAR 0427
ENCODING 1063
SWIDTH 720 0
DWIDTH 20 0
BBX 14 19 2 0
BITMAP
8004
8004
8004
8004
8004
8004
8004
8004
8004
4004
200C
1FF4
0004
0004
0004
0004
0004
0004
0004
ENDCHAR
STARTCHAR 0428
ENCODING 1064
SWIDTH 1080 0
DWIDTH 30 0
BBX 23 19 4 0
BITMAP
802002
802002
802002
802002
802002
802002
802002
802002
802002
802002
802002
802002
802002
802002
802002
802002
802002
802002
FFFFFE
ENDCHAR
STARTCHAR 0429
ENCODING 1065
SWIDTH 1080 0
DWIDTH 30 0
BBX 26 24 4 -5
BITMAP
80200200
80200200
80200200
80200200
80200200
80200200
80200200
80200200
80200200
80200200
80200200
80200200
80200200
80200200
80200200
80200200
80200200
80200200
FFFFFFC0
00000040
00000040
00000040
00000040
00000040
ENDCHAR
STARTCHAR 042A
ENCODING 1066
SWIDTH 792 0
DWIDTH 22 0
BBX 20 19 1 0
BITMAP
FC0000
040000
040000
040000
040000
040000
040000
07FF80
040040
040020
040010
040010
040010
040010
040010
040020
040020
040040
03FF80
ENDCHAR
STARTCHAR 042B
ENCODING 1067
SWIDTH 936 0
DWIDTH 26 0
BBX 19 19 4 0
BITMAP
800020
800020
800020
800020
800020
800020
800020
FFE020
801020
800820
800420
800420
800420
800420
800420
800420
800820
801020
FFE020
ENDCHAR
STARTCHAR 042C
ENCODING 1068
SWIDTH 684 0
DWIDTH 19 0
BBX 14 19 4 0
BITMAP
8000
8000
8000
8000
8000
8000
8000
FFE0
8010
8008
8004
8004
8004
8004
8004
8004
8008
8010
FFE0
ENDCHAR
STARTCHAR 042D
ENCODING 1069
SWIDTH 684 0
DWIDTH 19 0
BBX 17 20 1 0
BITMAP
030000
3CE000
401800
000400
000200
000200
000100
000100
000100
000080
07FF80
000080
000100
000100
000100
000200
000200
800400
401800
3FE000
ENDCHAR
STARTCHAR 042E
ENCODING 1070
SWIDTH 1080 0
DWIDTH 30 0
BBX 24 20 4 0
BITMAP
000300
803CE0
804010
81800C
810004
820002
820002
840001
840001
840001
FC0001
840001
840001
840001
820002
820002
810004
808008
804010
803FE0
ENDCHAR
STARTCHAR 042F
ENCODING 1071
SWIDTH 720 0
DWIDTH 20 0
BBX 15 19 2 0
BITMAP
1FFE
2002
4002
8002
8002
8002
8002
8002
8002
4002
4002
3002
0FFE
0802
1002
2002
2002
4002
8002
ENDCHAR
STARTCHAR 0430
ENCODING 1072
SWIDTH 540 0
DWIDTH 15 0
BBX 11 14 2 0
BITMAP
3F80
C040
0020
0020
0020
0020
3FE0
4020
8020
8020
8020
8060
80A0
7F20
ENDCHAR
STARTCHAR 0431
ENCODING 1073
SWIDTH 648 0
DWIDTH 18 0
BBX 14 21 2 0
BITMAP
0018
01E0
0E00
1000
2000
4000
4000
87C0
9830
A008
C004
C004
8004
8004
8004
8004
4004
4004
2008
1010
0FE0
ENDCHAR
STARTCHAR 0432
ENCODING 1074
SWIDTH 576 0
DWIDTH 16 0
BBX 11 14 3 0
BITMAP
FF80
8040
8020
8020
8020
8040
FF80
80C0
8020
8020
8020
8020
8020
FFC0
ENDCHAR
STARTCHAR 0433
ENCODING 1075
SWIDTH 432 0
DWIDTH 12 0
BBX 9 14 3 0
BITMAP
FF80
8000
8000
8000
8000
8000
8000
8000
8000
8000
8000
8000
8000
8000
ENDCHAR
STARTCHAR 0434
ENCODING 1076
SWIDTH 612 0
DWIDTH 17 0
BBX 16 18 0 -4
BITMAP
0FFC
0804
0804
0804
0804
0804
1004
1004
1004
1004
1004
1004
2004
FFFF
8001
8001
8001
8001
ENDCHAR
STARTCHAR 0435
ENCODING 1077
SWIDTH 576 0
DWIDTH 16 0
BBX 13 14 2 0
BITMAP
1FC0
4020
4010
8010
8008
8008
FFF8
8000
8000
8000
8000
4000
2030
1FC0
ENDCHAR
STARTCHAR 0436
ENCODING 1078
SWIDTH 756 0
DWIDTH 21 0
BBX 20 14 1 0
BITMAP
804020
404040
204080
104080
104100
084200
07FC00
084200
084100
104100
204080
404040
404020
804010
ENDCHAR
STARTCHAR 0437
ENCODING 1079
SWIDTH 504 0
DWIDTH 14 0
BBX 11 14 1 0
BITMAP
7F80
0040
0020
0020
0040
0040
0E80
00C0
0020
0020
0020
0020
8040
7F80
ENDCHAR
STARTCHAR 0438
ENCODING 1080
SWIDTH 648 0
DWIDTH 18 0
BBX 12 14 3 0
BITMAP
8010
8030
8050
8090
8090
8110
8210
8410
8810
9010
9010
A010
C010
8010
ENDCHAR
STARTCHAR 0439
ENCODING 1081
SWIDTH 648 0
DWIDTH 18 0
BBX 12 20 3 0
BITMAP
0040
1040
0880
0700
0000
0000
8010
8030
8050
8090
8090
8110
8210
8410
8810
9010
9010
A010
C010
8010
ENDCHAR
STARTCHAR 043A
ENCODING 1082
SWIDTH 540 0
DWIDTH 15 0
BBX 11 14 3 0
BITMAP
8060
8040
8080
8100
8200
8400
F800
8400
8200
8100
8080
8080
8040
8020
ENDCHAR
STARTCHAR 043B
ENCODING 1083
SWIDTH 612 0
DWIDTH 17 0
BBX 14 14 0 0
BITMAP
0FFC
0804
0804
0804
0804
0804
1004
1004
1004
1004
1004
1004
2004
E004
ENDCHAR
STARTCHAR 043C
ENCODING 1084
SWIDTH 756 0
DWIDTH 21 0
BBX 15 14 3 0
BITMAP
8002
C006
C006
A00A
9012
9012
8822
8C22
8442
8282
8282
8102
8002
8002
ENDCHAR
STARTCHAR 043D
ENCODING 1085
SWIDTH 648 0
DWIDTH 18 0
BBX 12 14 3 0
BITMAP
8010
8010
8010
8010
8010
8010
FFF0
8010
8010
8010
8010
8010
8010
8010
ENDCHAR
STARTCHAR 043E
ENCODING 1086
SWIDTH 612 0
DWIDTH 17 0
BBX 14 14 2 0
BITMAP
1FC0
2030
4010
8008
8008
8004
8004
8004
8004
8008
8008
4010
2020
1FC0
ENDCHAR
STARTCHAR 043F
ENCODING 1087
SWIDTH 648 0
DWIDTH 18 0
BBX 12 14 3 0
BITMAP
FFF0
8010
8010
8010
8010
8010
8010
8010
8010
8010
8010
8010
8010
8010
ENDCHAR
STARTCHAR 0440
ENCODING 1088
SWIDTH 648 0
DWIDTH 18 0
BBX 14 19 3 -5
BITMAP
8FE0
B010
C008
C004
8004
8004
8004
8004
8004
8004
C008
C008
B010
8EE0
8100
8000
8000
8000
8000
ENDCHAR
STARTCHAR 0441
ENCODING 1089
SWIDTH 540 0
DWIDTH 15 0
BBX 12 14 2 0
BITMAP
1FC0
2030
4000
8000
8000
8000
8000
8000
8000
8000
8000
4010
2020
1FC0
ENDCHAR
STARTCHAR 0442
ENCODING 1090
SWIDTH 432 0
DWIDTH 12 0
BBX 12 14 0 0
BITMAP
FFF0
0400
0400
0400
0400
0400
0400
0400
0400
0400
0400
0400
0400
0400
ENDCHAR
STARTCHAR 0443
ENCODING 1091
SWIDTH 504 0
DWIDTH 14 0
BBX 14 19 0 -5
BITMAP
8004
4008
4008
2010
2010
1010
1020
0820
0840
0440
0480
0680
0300
0100
0200
0200
0200
0400
F800
ENDCHAR
STARTCHAR 0444
ENCODING 1092
SWIDTH 720 0
DWIDTH 20 0
BBX 17 26 2 -5
BITMAP
008000
008000
008000
008000
008000
008000
008000
1FF800
208600
408100
808100
808080
808080
808080
808080
808080
808080
808100
408200
208400
1FF800
008000
008000
008000
008000
008000
ENDCHAR
STARTCHAR 0445
ENCODING 1093
SWIDTH 468 0
DWIDTH 13 0
BBX 12 14 1 0
BITMAP
8020
4040
2080
1080
0900
0A00
0400
0A00
0900
1100
2080
4040
4020
8010
ENDCHAR
STARTCHAR 0446
ENCODING 1094
SWIDTH 648 0
DWIDTH 18 0
BBX 14 17 3 -4
BITMAP
8010
8010
8010
8010
8010
8010
8010
8010
8010
8010
8010
8010
8010
FFFC
0004
0004
0004
ENDCHAR
STARTCHAR 0447
ENCODING 1095
SWIDTH 576 0
DWIDTH 16 0
BBX 11 14 2 0
BITMAP
8020
8020
8020
8020
8020
8020
8020
4060
3FA0
0020
0020
0020
0020
0020
ENDCHAR
STARTCHAR 0448
ENCODING 1096
SWIDTH 900 0
DWIDTH 25 0
BBX 19 14 3 0
BITMAP
804020
804020
804020
804020
804020
804020
804020
804020
804020
804020
804020
804020
804020
FFFFE0
ENDCHAR
STARTCHAR 0449
ENCODING 1097
SWIDTH 900 0
DWIDTH 25 0
BBX 21 17 3 -3
BITMAP
804020
804020
804020
804020
804020
804020
804020
804020
804020
804020
804020
804020
804020
FFFFF8
000008
000008
000008
ENDCHAR
STARTCHAR 044A
ENCODING 1098
SWIDTH 576 0
DWIDTH 16 0
BBX 15 14 0 0
BITMAP
F800
0800
0800
0800
0800
07F8
0804
0802
0802
0802
0802
0802
0804
0FF0
ENDCHAR
STARTCHAR 044B
ENCODING 1099
SWIDTH 720 0
DWIDTH 20 0
BBX 14 14 3 0
BITMAP
8004
8004
8004
8004
8004
FF04
80C4
8044
8024
8024
8024
8044
8044
FF84
ENDCHAR
STARTCHAR 044C
ENCODING 1100
SWIDTH 504 0
DWIDTH 14 0
BBX 11 14 3 0
BITMAP
8000
8000
8000
8000
8000
FF00
80C0
8040
8020
8020
8020
8040
8040
FF80
ENDCHAR
STARTCHAR 044D
ENCODING 1101
SWIDTH 540 0
DWIDTH 15 0
BBX 13 14 1 0
BITMAP
3F80
C060
0010
0010
0008
0008
0FF8
0008
0008
0008
0010
0020
8040
7F80
ENDCHAR
STARTCHAR 044E
ENCODING 1102
SWIDTH 828 0
DWIDTH 23 0
BBX 19 14 3 0
BITMAP
80FE00
810180
820080
840040
840040
840020
FC0020
840020
840020
840040
840040
820080
810100
80FE00
ENDCHAR
STARTCHAR 044F
ENCODING 1103
SWIDTH 576 0
DWIDTH 16 0
BBX 11 14 2 0
BITMAP
3FE0
4020
8020
8020
8020
8020
8020
4020
3FE0
1020
2020
4020
4020
8020
ENDCHAR
STARTCHAR 0450
ENCODING 1104
SWIDTH 612 0
DWIDTH 17 0
BBX 13 20 2 0
BITMAP
1000
0C00
0200
0000
0000
0000
1FC0
4020
4010
8010
8008
8008
FFF8
8000
8000
8000
8000
4000
2030
1FC0
ENDCHAR
STARTCHAR 0451
ENCODING 1105
SWIDTH 576 0
DWIDTH 16 0
BBX 13 19 2 0
BITMAP
1880
0000
0000
0000
0000
1FC0
4020
4010
8010
8008
8008
FFF8
8000
8000
8000
8000
4000
2030
1FC0
ENDCHAR
STARTCHAR 0452
ENCODING 1106
SWIDTH 648 0
DWIDTH 18 0
BBX 16 26 0 -5
BITMAP
1000
1000
1000
FFE0
1000
1000
1000
13F8
1404
1802
1002
1001
1001
1001
1001
1001
1001
1001
1001
1001
1001
0001
0001
0001
0002
007E
ENDCHAR
STARTCHAR 0453
ENCODING 1107
SWIDTH 432 0
DWIDTH 12 0
BBX 9 20 3 0
BITMAP
0100
0200
0C00
0000
0000
0000
FF80
8000
8000
8000
8000
8000
8000
8000
8000
8000
8000
8000
8000
8000
ENDCHAR
STARTCHAR 0454
ENCODING 1108
SWIDTH 540 0
DWIDTH 15 0
BBX 12 14 2 0
BITMAP
1FE0
2010
4000
8000
8000
8000
8000
FF00
8000
8000
8000
4000
2010
1FE0
ENDCHAR
STARTCHAR 0455
ENCODING 1109
SWIDTH 504 0
DWIDTH 14 0
BBX 11 14 2 0
BITMAP
3F80
C000
8000
8000
8000
4000
3800
0780
0040
0040
0020
0040
8040
7F80
ENDCHAR
STARTCHAR 0456
ENCODING 1110
SWIDTH 252 0
DWIDTH 7 0
BBX 1 20 3 0
BITMAP
80
80
00
00
00
00
80
80
80
80
80
80
80
80
80
80
80
80
80
80
ENDCHAR
STARTCHAR 0457
ENCODING 1111
SWIDTH 216 0
DWIDTH 6 0
BBX 5 19 1 0
BITMAP
D8
00
00
00
00
20
20
20
20
20
20
20
20
20
20
20
20
20
20
ENDCHAR
STARTCHAR 0458
ENCODING 1112
SWIDTH 252 0
DWIDTH 7 0
BBX 6 25 -2 -5
BITMAP
04
04
00
00
00
00
04
04
04
04
04
04
04
04
04
04
04
04
04
04
04
04
04
04
F8
ENDCHAR
STARTCHAR 0459
ENCODING 1113
SWIDTH 864 0
DWIDTH 24 0
BBX 24 14 0 0
BITMAP
0FFC00
080400
080400
080400
080400
0807F8
100406
100402
100401
100401
100401
100402
200402
E007FC
ENDCHAR
STARTCHAR 045A
ENCODING 1114
SWIDTH 900 0
DWIDTH 25 0
BBX 22 14 3 0
BITMAP
801000
801000
801000
801000
801000
801000
FFFFF0
801008
801004
801004
801004
801008
801008
801FF0
ENDCHAR
STARTCHAR 045B
ENCODING 1115
SWIDTH 648 0
DWIDTH 18 0
BBX 17 21 -1 0
BITMAP
080000
080000
080000
FFF000
080000
080000
080000
09FC00
0A0200
0C0100
080100
080080
080080
080080
080080
080080
080080
080080
080080
080080
080080
ENDCHAR
STARTCHAR 045C
ENCODING 1116
SWIDTH 540 0
DWIDTH 15 0
BBX 11 20 3 0
BITMAP
0100
0200
0C00
0000
0000
0000
8060
8040
8080
8100
8200
8400
F800
8400
8200
8100
8080
8080
8040
8020
ENDCHAR
STARTCHAR 045D
ENCODING 1117
SWIDTH 648 0
DWIDTH 18 0
BBX 12 20 3 0
BITMAP
1000
0C00
0200
0000
0000
0000
8010
8030
8050
8090
8090
8110
8210
8410
8810
9010
9010
A010
C010
8010
ENDCHAR
STARTCHAR 045E
ENCODING 1118
SWIDTH 504 0
DWIDTH 14 0
BBX 14 25 0 -5
BITMAP
1020
1040
0C80
0300
0000
0000
8004
4008
4008
2010
2010
1010
1020
0820
0840
0440
0480
0680
0300
0100
0200
0200
0200
0400
F800
ENDCHAR
STARTCHAR 045F
ENCODING 1119
SWIDTH 612 0
DWIDTH 17 0
BBX 11 18 3 -4
BITMAP
8020
8020
8020
8020
8020
8020
8020
8020
8020
8020
8020
8020
8020
FFE0
0400
0400
0400
0400
ENDCHAR
STARTCHAR 0462
ENCODING 1122
SWIDTH 756 0
DWIDTH 21 0
BBX 20 21 0 0
BITMAP
020000
020000
020000
020000
FFF800
020000
020000
020000
020000
03FF80
020060
020020
020010
020010
020010
020010
020010
020010
020020
020040
03FF00
ENDCHAR
STARTCHAR 0463
ENCODING 1123
SWIDTH 540 0
DWIDTH 15 0
BBX 15 21 0 0
BITMAP
0800
0800
0800
0800
0800
0800
FFC0
0800
0800
0800
0800
0800
0FF0
0808
0804
0804
0802
0804
0804
0808
0FF0
ENDCHAR
STARTCHAR 046A
ENCODING 1130
SWIDTH 828 0
DWIDTH 23 0
BBX 22 19 1 0
BITMAP
3FFFE0
100020
080040
040080
020100
010200
008400
008800
005000
01FE00
062180
082040
102020
202020
202010
402010
402008
802008
802004
ENDCHAR
STARTCHAR 046B
ENCODING 1131
SWIDTH 612 0
DWIDTH 17 0
BBX 16 14 1 0
BITMAP
7FFC
2008
1010
0820
0440
0280
0180
0F70
3108
2104
4104
4102
8102
8101
ENDCHAR
STARTCHAR 0472
ENCODING 1138
SWIDTH 828 0
DWIDTH 23 0
BBX 20 19 2 1
BITMAP
079E00
080100
300080
400040
400020
800020
800020
800010
800010
FFFFF0
800010
800010
800020
800020
400040
200040
100080
080300
07FC00
ENDCHAR
STARTCHAR 0473
ENCODING 1139
SWIDTH 612 0
DWIDTH 17 0
BBX 14 14 2 0
BITMAP
1FE0
2010
4008
8008
8004
8004
8004
FFFC
8004
8004
8008
4010
2020
1FC0
ENDCHAR
STARTCHAR 0474
ENCODING 1140
SWIDTH 720 0
DWIDTH 20 0
BBX 18 19 1 1
BITMAP
8001C0
800200
400400
400400
400400
200800
200800
100800
101000
081000
082000
082000
042000
044000
024000
024000
028000
018000
008000
ENDCHAR
STARTCHAR 0475
ENCODING 1141
SWIDTH 504 0
DWIDTH 14 0
BBX 13 14 1 1
BITMAP
8018
8020
8020
4040
4040
2040
2080
1080
1080
1100
0900
0A00
0600
0200
ENDCHAR
STARTCHAR 048A
ENCODING 1162
SWIDTH 828 0
DWIDTH 23 0
BBX 18 28 4 -5
BITMAP
102000
082000
06C000
010000
000000
800200
800600
800A00
801200
801200
802200
804200
808200
810200
810200
820200
840200
880200
880200
900200
A00200
C00200
800200
8001C0
000040
000080
000080
000080
ENDCHAR
STARTCHAR 048B
ENCODING 1163
SWIDTH 684 0
DWIDTH 19 0
BBX 15 23 3 -3
BITMAP
0040
1040
0880
0700
0000
0000
8010
8030
8050
8090
8090
8110
8210
8410
8810
9010
9010
A010
C010
800E
0002
0004
0004
ENDCHAR
STARTCHAR 048C
ENCODING 1164
SWIDTH 720 0
DWIDTH 20 0
BBX 18 21 1 0
BITMAP
100000
100000
100000
100000
FFE000
100000
100000
100000
100000
1FFC00
100300
100080
100080
100040
100040
100040
100040
100080
100080
100100
1FFE00
ENDCHAR
STARTCHAR 048D
ENCODING 1165
SWIDTH 540 0
DWIDTH 15 0
BBX 14 14 1 0
BITMAP
1000
1000
FF80
1000
1000
1FE0
1018
1008
1004
1004
1004
1008
1008
1FF0
ENDCHAR
STARTCHAR 048E
ENCODING 1166
SWIDTH 720 0
DWIDTH 20 0
BBX 14 19 4 0
BITMAP
FFE0
8010
8008
8004
8004
8004
8204
8104
8104
8088
8050
8060
FFA0
8010
8008
8004
8000
8000
8000
ENDCHAR
STARTCHAR 048F
ENCODING 1167
SWIDTH 684 0
DWIDTH 19 0
BBX 14 19 3 -5
BITMAP
8FE0
B010
C008
C004
8004
8004
8004
8004
8004
8004
C048
C028
B010
8EF0
8108
8000
8000
8000
8000
ENDCHAR
STARTCHAR 0490
ENCODING 1168
SWIDTH 540 0
DWIDTH 15 0
BBX 11 23 4 0
BITMAP
0020
0020
0020
0020
FFC0
8000
8000
8000
8000
8000
8000
8000
8000
8000
8000
8000
8000
8000
8000
8000
8000
8000
8000
ENDCHAR
STARTCHAR 0491
ENCODING 1169
SWIDTH 396 0
DWIDTH 11 0
BBX 9 17 3 0
BITMAP
0080
0080
0080
FF00
8000
8000
8000
8000
8000
8000
8000
8000
8000
8000
8000
8000
8000
ENDCHAR
STARTCHAR 0492
ENCODING 1170
SWIDTH 576 0
DWIDTH 16 0
BBX 13 19 2 0
BITMAP
3FF8
2000
2000
2000
2000
2000
2000
2000
2000
2000
FFE0
2000
2000
2000
2000
2000
2000
2000
2000
ENDCHAR
STARTCHAR 0493
ENCODING 1171
SWIDTH 468 0
DWIDTH 13 0
BBX 11 14 1 0
BITMAP
3FE0
2000
2000
2000
2000
2000
2000
FFC0
2000
2000
2000
2000
2000
2000
ENDCHAR
STARTCHAR 0494
ENCODING 1172
SWIDTH 684 0
DWIDTH 19 0
BBX 14 23 4 -4
BITMAP
FFE0
8000
8000
8000
8000
8000
8000
8000
9FC0
E020
8010
8008
8008
8008
8004
8004
8008
8008
8008
0010
0010
0060
0780
ENDCHAR
STARTCHAR 0495
ENCODING 1173
SWIDTH 540 0
DWIDTH 15 0
BBX 12 20 3 -6
BITMAP
FF80
8000
8000
8000
8000
8000
8600
B980
C060
8020
8010
8010
8010
8010
0010
0020
0020
0040
0080
0F00
ENDCHAR
STARTCHAR 0496
ENCODING 1174
SWIDTH 1008 0
DWIDTH 28 0
BBX 27 24 1 -5
BITMAP
40080100
20080200
20080200
10080400
08080800
08081000
04081000
02082000
02084000
01FFC000
02082000
04081000
08081000
08080800
10080400
20080200
40080200
40080100
800800E0
00000020
00000020
00000020
00000020
00000020
ENDCHAR
STARTCHAR 0497
ENCODING 1175
SWIDTH 792 0
DWIDTH 22 0
BBX 22 17 1 -3
BITMAP
804020
404040
204080
104080
104100
084200
07FC00
084200
084100
104100
204080
404040
404020
80401C
000004
000004
000004
ENDCHAR
STARTCHAR 0498
ENCODING 1176
SWIDTH 612 0
DWIDTH 17 0
BBX 14 25 1 -5
BITMAP
0300
3CE0
4010
0008
0008
0008
0008
0008
0010
00E0
0F30
0008
0004
0004
0004
0004
0004
8008
6010
1CE0
0300
0100
0100
0100
0100
ENDCHAR
STARTCHAR 0499
ENCODING 1177
SWIDTH 504 0
DWIDTH 14 0
BBX 11 17 1 -3
BITMAP
7F80
0040
0020
0020
0040
0040
0E80
00C0
0020
0020
0020
0020
8040
7380
0C00
0400
0400
ENDCHAR
STARTCHAR 049A
ENCODING 1178
SWIDTH 720 0
DWIDTH 20 0
BBX 16 24 4 -5
BITMAP
8008
8010
8020
8040
8040
8080
8100
8200
8400
FC00
8200
8100
8080
8040
8040
8020
8010
8008
8007
0001
0001
0001
0001
0001
ENDCHAR
STARTCHAR 049B
ENCODING 1179
SWIDTH 540 0
DWIDTH 15 0
BBX 13 17 3 -3
BITMAP
8060
8040
8080
8100
8200
8400
F800
8400
8200
8100
8080
8080
8040
8038
0008
0008
0008
ENDCHAR
STARTCHAR 049C
ENCODING 1180
SWIDTH 684 0
DWIDTH 19 0
BBX 14 19 4 0
BITMAP
800C
8008
8010
8020
8040
9040
9080
9100
9200
FE00
9100
9080
9040
9040
8020
8010
8008
800C
8004
ENDCHAR
STARTCHAR 049D
ENCODING 1181
SWIDTH 540 0
DWIDTH 15 0
BBX 12 14 3 0
BITMAP
8020
8040
8080
9100
9100
9200
FC00
9200
9200
9100
8080
8040
8020
8010
ENDCHAR
STARTCHAR 049E
ENCODING 1182
SWIDTH 684 0
DWIDTH 19 0
BBX 17 19 1 0
BITMAP
100080
100100
FFC200
100400
100800
101000
101000
102000
104000
1FC000
102000
101000
101000
100800
100400
100200
100100
100080
100080
ENDCHAR
STARTCHAR 049F
ENCODING 1183
SWIDTH 540 0
DWIDTH 15 0
BBX 14 21 0 0
BITMAP
1000
1000
1000
FF80
1000
1000
1000
1004
1008
1010
1020
1040
1080
1F00
1080
1040
1020
1010
1010
1008
1004
ENDCHAR
STARTCHAR 04A0
ENCODING 1184
SWIDTH 756 0
DWIDTH 21 0
BBX 20 19 1 0
BITMAP
FC0020
040040
040080
040100
040200
040200
040400
040800
041000
07F000
040800
040400
040200
040200
040100
040080
040040
040020
040010
ENDCHAR
STARTCHAR 04A1
ENCODING 1185
SWIDTH 576 0
DWIDTH 16 0
BBX 16 14 0 0
BITMAP
F802
0804
0808
0810
0820
0840
07C0
0840
0820
0810
0808
0804
0802
0801
ENDCHAR
STARTCHAR 04A2
ENCODING 1186
SWIDTH 828 0
DWIDTH 23 0
BBX 18 23 4 -5
BITMAP
800200
800200
800200
800200
800200
800200
800200
800200
800200
FFFE00
800200
800200
800200
800200
800200
800200
800200
800200
8001C0
000040
000040
000040
000040
ENDCHAR
STARTCHAR 04A3
ENCODING 1187
SWIDTH 648 0
DWIDTH 18 0
BBX 15 17 3 -3
BITMAP
8010
8010
8010
8010
8010
8010
FFF0
8010
8010
8010
8010
8010
8010
800E
0002
0002
0002
ENDCHAR
STARTCHAR 04A4
ENCODING 1188
SWIDTH 1080 0
DWIDTH 30 0
BBX 26 19 4 0
BITMAP
8003FFC0
80020000
80020000
80020000
80020000
80020000
80020000
80020000
80020000
FFFE0000
80020000
80020000
80020000
80020000
80020000
80020000
80020000
80020000
80020000
ENDCHAR
STARTCHAR 04A5
ENCODING 1189
SWIDTH 828 0
DWIDTH 23 0
BBX 20 14 3 0
BITMAP
801FF0
801000
801000
801000
801000
801000
FFF000
801000
801000
801000
801000
801000
801000
801000
ENDCHAR
STARTCHAR 04A6
ENCODING 1190
SWIDTH 1188 0
DWIDTH 33 0
BBX 28 23 4 -4
BITMAP
FFFE0000
80020000
80020000
80020000
80020000
80020000
80020000
80020000
80023F80
8002C040
80020020
80020010
80020010
80020010
80020010
80020010
80020010
80020010
80020010
00000020
00000040
00000080
00000F00
ENDCHAR
STARTCHAR 04A7
ENCODING 1191
SWIDTH 936 0
DWIDTH 26 0
BBX 23 20 3 -6
BITMAP
FFF000
801000
801000
801000
801000
801000
8010C0
801730
801808
801004
801004
801002
801002
801002
000002
000004
000004
000008
000010
0001E0
ENDCHAR
STARTCHAR 04A8
ENCODING 1192
SWIDTH 936 0
DWIDTH 26 0
BBX 22 20 2 0
BITMAP
000300
081CE0
102010
204008
408008
408004
818004
810004
810004
810004
810004
810004
808004
808008
404008
404010
202020
101040
0C0D80
03FFFC
ENDCHAR
STARTCHAR 04A9
ENCODING 1193
SWIDTH 756 0
DWIDTH 21 0
BBX 17 14 2 0
BITMAP
30FE00
410100
C20100
820080
840080
840080
840080
840080
820080
820100
810200
408200
304C00
0FFF80
ENDCHAR
STARTCHAR 04AA
ENCODING 1194
SWIDTH 684 0
DWIDTH 19 0
BBX 16 24 2 -4
BITMAP
079E
0801
3000
4000
4000
8000
8000
8000
8000
8000
8000
8000
8000
8000
4000
2000
1000
0803
079C
0060
0040
0040
0040
0040
ENDCHAR
STARTCHAR 04AB
ENCODING 1195
SWIDTH 540 0
DWIDTH 15 0
BBX 12 17 2 -3
BITMAP
1FC0
2030
4000
8000
8000
8000
8000
8000
8000
8000
8000
4010
2020
1DC0
0200
0200
0200
ENDCHAR
STARTCHAR 04AC
ENCODING 1196
SWIDTH 540 0
DWIDTH 15 0
BBX 14 23 1 -5
BITMAP
FFFC
0200
0200
0200
0200
0200
0200
0200
0200
0200
0200
0200
0200
0200
0200
0200
0200
0200
03C0
0040
0040
0040
0040
ENDCHAR
STARTCHAR 04AD
ENCODING 1197
SWIDTH 432 0
DWIDTH 12 0
BBX 12 17 0 -3
BITMAP
FFF0
0400
0400
0400
0400
0400
0400
0400
0400
0400
0400
0400
0400
0380
0080
0080
0080
ENDCHAR
STARTCHAR 04AE
ENCODING 1198
SWIDTH 612 0
DWIDTH 17 0
BBX 15 19 1 0
BITMAP
8002
8002
4004
2008
2008
1010
1010
0820
0440
0440
0280
0300
0100
0100
0100
0100
0100
0100
0100
ENDCHAR
STARTCHAR 04AF
ENCODING 1199
SWIDTH 504 0
DWIDTH 14 0
BBX 13 19 1 -5
BITMAP
8008
8010
8010
4020
4020
2020
2040
1040
1080
0880
0900
0500
0600
0200
0200
0200
0200
0200
0200
ENDCHAR
STARTCHAR 04B0
ENCODING 1200
SWIDTH 612 0
DWIDTH 17 0
BBX 15 19 1 0
BITMAP
8002
8002
4004
2008
2008
1010
1010
0820
0440
0440
0280
0300
3FF8
0100
0100
0100
0100
0100
0100
ENDCHAR
STARTCHAR 04B1
ENCODING 1201
SWIDTH 504 0
DWIDTH 14 0
BBX 13 19 1 -5
BITMAP
8008
8010
8010
4020
4020
2020
2040
1040
1080
0880
0900
0500
0600
0200
3FE0
0200
0200
0200
0200
ENDCHAR
STARTCHAR 04B2
ENCODING 1202
SWIDTH 648 0
DWIDTH 18 0
BBX 17 24 1 -5
BITMAP
400400
200800
201000
101000
082000
084000
044000
028000
010000
030000
028000
044000
084000
082000
101000
200800
400800
400400
800380
000080
000080
000080
000080
000080
ENDCHAR
STARTCHAR 04B3
ENCODING 1203
SWIDTH 468 0
DWIDTH 13 0
BBX 14 17 1 -3
BITMAP
8020
4040
2080
1080
0900
0A00
0400
0A00
0900
1100
2080
4040
4020
801C
0004
0004
0004
ENDCHAR
STARTCHAR 04B4
ENCODING 1204
SWIDTH 936 0
DWIDTH 26 0
BBX 24 23 1 -5
BITMAP
FFF808
020008
020008
020008
020008
020008
020008
020008
020008
020008
020008
020008
020008
020008
020008
020008
020008
020008
03FFFF
000001
000001
000001
000001
ENDCHAR
STARTCHAR 04B5
ENCODING 1205
SWIDTH 720 0
DWIDTH 20 0
BBX 19 17 0 -3
BITMAP
FFE080
040080
040080
040080
040080
040080
040080
040080
040080
040080
040080
040080
040080
07FFE0
000020
000020
000020
ENDCHAR
STARTCHAR 04B6
ENCODING 1206
SWIDTH 720 0
DWIDTH 20 0
BBX 17 23 2 -5
BITMAP
800400
800400
800400
800400
800400
800400
800400
800400
800400
400400
200C00
1FF400
000400
000400
000400
000400
000400
000400
000380
000080
000080
000080
000080
ENDCHAR
STARTCHAR 04B7
ENCODING 1207
SWIDTH 576 0
DWIDTH 16 0
BBX 13 17 2 -3
BITMAP
8020
8020
8020
8020
8020
8020
8020
4060
3FA0
0020
0020
0020
0020
0038
0008
0008
0008
ENDCHAR
STARTCHAR 04B8
ENCODING 1208
SWIDTH 720 0
DWIDTH 20 0
BBX 14 19 2 0
BITMAP
8004
8004
8004
8004
8004
8004
8004
8204
8204
4204
220C
1FF4
0204
0204
0204
0204
0004
0004
0004
ENDCHAR
STARTCHAR 04B9
ENCODING 1209
SWIDTH 576 0
DWIDTH 16 0
BBX 11 14 2 0
BITMAP
8020
8020
8020
8020
8020
8420
8420
4460
3FA0
0420
0420
0420
0020
0020
ENDCHAR
STARTCHAR 04BA
ENCODING 1210
SWIDTH 720 0
DWIDTH 20 0
BBX 14 19 4 0
BITMAP
8000
8000
8000
8000
8000
8000
8000
BFE0
C018
8008
8004
8004
8004
8004
8004
8004
8004
8004
8004
ENDCHAR
STARTCHAR 04BB
ENCODING 1211
SWIDTH 648 0
DWIDTH 18 0
BBX 13 21 3 0
BITMAP
8000
8000
8000
8000
8000
8000
8000
9FC0
A020
C010
8010
8008
8008
8008
8008
8008
8008
8008
8008
8008
8008
ENDCHAR
STARTCHAR 04BC
ENCODING 1212
SWIDTH 936 0
DWIDTH 26 0
BBX 24 20 1 0
BITMAP
000200
003DE0
00C010
010008
020004
820002
840002
840001
880001
480001
3FFFFF
080000
080000
040000
040000
020000
010000
008004
004018
003FE0
ENDCHAR
STARTCHAR 04BD
ENCODING 1213
SWIDTH 684 0
DWIDTH 19 0
BBX 17 14 1 0
BITMAP
01FC00
060200
880100
880080
900080
900080
7FFF80
100000
100000
080000
080000
040000
020100
01FE00
ENDCHAR
STARTCHAR 04BE
ENCODING 1214
SWIDTH 936 0
DWIDTH 26 0
BBX 24 25 1 -5
BITMAP
000200
003DE0
00C010
010008
020004
820002
840002
840001
880001
480001
3FFFFF
080000
080000
040000
040000
020000
010000
008004
004018
003DE0
000200
000200
000200
000200
000200
ENDCHAR
STARTCHAR 04BF
ENCODING 1215
SWIDTH 684 0
DWIDTH 19 0
BBX 17 17 1 -3
BITMAP
01FC00
060200
880100
880080
900080
900080
7FFF80
100000
100000
080000
080000
040000
020100
01CE00
003000
002000
002000
ENDCHAR
STARTCHAR 04C0
ENCODING 1216
SWIDTH 288 0
DWIDTH 8 0
BBX 1 19 4 0
BITMAP
80
80
80
80
80
80
80
80
80
80
80
80
80
80
80
80
80
80
80
ENDCHAR
STARTCHAR 04C1
ENCODING 1217
SWIDTH 972 0
DWIDTH 27 0
BBX 25 24 1 0
BITMAP
00810000
00410000
00360000
00080000
00000000
40080100
20080200
20080200
10080400
08080800
08081000
04081000
02082000
02084000
01FFC000
02082000
04081000
08081000
08080800
10080400
20080200
40080200
40080100
80080080
ENDCHAR
STARTCHAR 04C2
ENCODING 1218
SWIDTH 756 0
DWIDTH 21 0
BBX 20 20 1 0
BITMAP
020000
020800
019000
006000
000000
000000
804020
404040
204080
104080
104100
084200
07FC00
084200
084100
104100
204080
404040
404020
804010
ENDCHAR
STARTCHAR 04C3
ENCODING 1219
SWIDTH 648 0
DWIDTH 18 0
BBX 14 24 4 -5
BITMAP
8008
8010
8020
8040
8040
8080
8100
8200
8400
FC00
8300
8080
8040
8040
8020
8010
8010
8008
8008
0004
0004
0004
0008
00F8
ENDCHAR
STARTCHAR 04C4
ENCODING 1220
SWIDTH 540 0
DWIDTH 15 0
BBX 11 19 3 -5
BITMAP
8060
8040
8080
8100
8200
8400
F800
8400
8200
8100
8080
8040
8040
8020
0020
0020
0020
0020
07C0
ENDCHAR
STARTCHAR 04C6
ENCODING 1222
SWIDTH 612 0
DWIDTH 17 0
BBX 16 17 0 -3
BITMAP
0FFC
0804
0804
0804
0804
0804
1004
1004
1004
1004
1004
1004
2004
E007
0001
0001
0002
ENDCHAR
STARTCHAR 04C7
ENCODING 1223
SWIDTH 792 0
DWIDTH 22 0
BBX 15 25 4 -6
BITMAP
8002
8002
8002
8002
8002
8002
8002
8002
8002
FFFE
8002
8002
8002
8002
8002
8002
8002
8002
8002
0002
0002
0002
0002
0044
0038
ENDCHAR
STARTCHAR 04C8
ENCODING 1224
SWIDTH 648 0
DWIDTH 18 0
BBX 12 19 3 -5
BITMAP
8010
8010
8010
8010
8010
8010
FFF0
8010
8010
8010
8010
8010
8010
8010
0010
0010
0010
0010
03F0
ENDCHAR
STARTCHAR 04C9
ENCODING 1225
SWIDTH 828 0
DWIDTH 23 0
BBX 18 23 4 -5
BITMAP
800200
800200
800200
800200
800200
800200
800200
800200
800200
FFFE00
800200
800200
800200
800200
800200
800200
800200
800200
8001C0
000080
000080
000080
000080
ENDCHAR
STARTCHAR 04CA
ENCODING 1226
SWIDTH 648 0
DWIDTH 18 0
BBX 15 17 3 -3
BITMAP
8010
8010
8010
8010
8010
8010
FFF0
8010
8010
8010
8010
8010
8010
800E
0004
0004
0004
ENDCHAR
STARTCHAR 04CB
ENCODING 1227
SWIDTH 720 0
DWIDTH 20 0
BBX 14 24 2 -5
BITMAP
8004
8004
8004
8004
8004
8004
8004
8004
8004
4004
200C
1FF4
0004
0004
0004
0004
0004
0004
003C
0020
0020
0020
0020
0020
ENDCHAR
STARTCHAR 04CC
ENCODING 1228
SWIDTH 576 0
DWIDTH 16 0
BBX 12 17 1 -3
BITMAP
8010
8010
8010
8010
8010
8010
4010
2030
1FD0
0010
0010
0010
0010
0070
0080
0080
0080
ENDCHAR
STARTCHAR 04CD
ENCODING 1229
SWIDTH 972 0
DWIDTH 27 0
BBX 22 23 4 -5
BITMAP
800020
800060
C000A0
A000A0
A00120
900120
900220
880220
880420
840820
820820
821020
811020
812020
80A020
804020
800020
800020
80003C
000008
000008
000008
000010
ENDCHAR
STARTCHAR 04CE
ENCODING 1230
SWIDTH 756 0
DWIDTH 21 0
BBX 18 17 3 -3
BITMAP
800200
C00600
C00600
A00A00
901200
901200
882200
8C2200
844200
828200
828200
810200
800200
8001C0
000080
000080
000080
ENDCHAR
STARTCHAR 04CF
ENCODING 1231
SWIDTH 252 0
DWIDTH 7 0
BBX 1 21 3 0
BITMAP
80
80
80
80
80
80
80
80
80
80
80
80
80
80
80
80
80
80
80
80
80
ENDCHAR
STARTCHAR 04D0
ENCODING 1232
SWIDTH 684 0
DWIDTH 19 0
BBX 18 24 1 0
BITMAP
040800
041000
03E000
000000
000000
00C000
014000
012000
022000
021000
021000
041000
040800
080800
080400
100400
100200
200200
3FFD00
400100
400080
800080
800040
800040
ENDCHAR
STARTCHAR 04D1
ENCODING 1233
SWIDTH 540 0
DWIDTH 15 0
BBX 11 19 2 1
BITMAP
2080
1100
0E00
0000
0000
3F80
C040
0020
0020
0020
0020
3FE0
4020
8020
8020
8020
8060
80A0
7F20
ENDCHAR
STARTCHAR 04D2
ENCODING 1234
SWIDTH 684 0
DWIDTH 19 0
BBX 18 23 1 0
BITMAP
021000
000000
000000
000000
00C000
014000
012000
022000
021000
021000
041000
040800
080800
080400
100400
100200
200200
3FFD00
400100
400080
800080
800040
800040
ENDCHAR
STARTCHAR 04D3
ENCODING 1235
SWIDTH 540 0
DWIDTH 15 0
BBX 11 19 2 0
BITMAP
1180
0000
0000
0000
0000
3F80
C040
0020
0020
0020
0020
3FE0
4020
8020
8020
8020
8060
80A0
7F20
ENDCHAR
STARTCHAR 04D4
ENCODING 1236
SWIDTH 972 0
DWIDTH 27 0
BBX 26 19 0 0
BITMAP
000FFF80
00140000
00140000
00240000
00440000
00440000
00840000
01040000
01040000
0207FF00
04040000
04040000
08040000
0FFC0000
10040000
20040000
20040000
40040000
8007FFC0
ENDCHAR
STARTCHAR 04D5
ENCODING 1237
SWIDTH 972 0
DWIDTH 27 0
BBX 24 14 2 0
BITMAP
3F83F0
C04C0C
003002
003002
002002
002001
1FFFFF
602000
802000
802000
803000
804802
808404
7F03F8
ENDCHAR
STARTCHAR 04D6
ENCODING 1238
SWIDTH 612 0
DWIDTH 17 0
BBX 13 24 4 0
BITMAP
2040
2040
1F80
0000
0000
FFF0
8000
8000
8000
8000
8000
8000
8000
8000
FFE0
8000
8000
8000
8000
8000
8000
8000
8000
FFF8
ENDCHAR
STARTCHAR 04D7
ENCODING 1239
SWIDTH 612 0
DWIDTH 17 0
BBX 13 20 2 0
BITMAP
0040
1040
0880
0700
0000
0000
1FC0
4020
4010
8010
8008
8008
FFF8
8000
8000
8000
8000
4000
2030
1FC0
ENDCHAR
STARTCHAR 04D8
ENCODING 1240
SWIDTH 792 0
DWIDTH 22 0
BBX 20 20 1 0
BITMAP
004000
079E00
180100
000080
000040
000020
000020
000010
000010
000010
FFFFF0
800010
800010
800020
400020
400020
200040
100080
0C0100
03FE00
ENDCHAR
STARTCHAR 04D9
ENCODING 1241
SWIDTH 576 0
DWIDTH 16 0
BBX 14 14 1 0
BITMAP
1FC0
6030
0010
0008
0008
0004
0004
FFFC
8004
8008
4008
2010
1020
0FC0
ENDCHAR
STARTCHAR 04DA
ENCODING 1242
SWIDTH 792 0
DWIDTH 22 0
BBX 20 23 1 0
BITMAP
008800
000000
000000
004000
079E00
180100
000080
000040
000020
000020
000010
000010
000010
FFFFF0
800010
800010
800020
400020
400020
200040
100080
0C0100
03FE00
ENDCHAR
STARTCHAR 04DB
ENCODING 1243
SWIDTH 576 0
DWIDTH 16 0
BBX 14 19 1 0
BITMAP
0C40
0000
0000
0000
0000
1FC0
6030
0010
0008
0008
0004
0004
FFFC
8004
8008
4008
2010
1020
0FC0
ENDCHAR
STARTCHAR 04DC
ENCODING 1244
SWIDTH 972 0
DWIDTH 27 0
BBX 25 23 1 0
BITMAP
00230000
00000000
00000000
00000000
40080100
20080200
20080200
10080400
08080800
08081000
04081000
02082000
02084000
01FFC000
02082000
04081000
08081000
08080800
10080400
20080200
40080200
40080100
80080080
ENDCHAR
STARTCHAR 04DD
ENCODING 1245
SWIDTH 756 0
DWIDTH 21 0
BBX 20 19 1 0
BITMAP
011800
000000
000000
000000
000000
804020
404040
204080
104080
104100
084200
07FC00
084200
084100
104100
204080
404040
404020
804010
ENDCHAR
STARTCHAR 04DE
ENCODING 1246
SWIDTH 612 0
DWIDTH 17 0
BBX 14 23 1 0
BITMAP
0460
0000
0000
0300
3CE0
4010
0008
0008
0008
0008
0008
0010
00E0
0F30
0008
0004
0004
0004
0004
0004
8008
6010
1FE0
ENDCHAR
STARTCHAR 04DF
ENCODING 1247
SWIDTH 504 0
DWIDTH 14 0
BBX 11 19 1 0
BITMAP
1180
0000
0000
0000
0000
7F80
0040
0020
0020
0040
0040
0E80
00C0
0020
0020
0020
0020
8040
7F80
ENDCHAR
STARTCHAR 04E0
ENCODING 1248
SWIDTH 576 0
DWIDTH 16 0
BBX 14 19 1 0
BITMAP
7FF8
0010
0020
0040
0080
0080
0100
0200
0380
0070
0008
0008
0004
0004
0004
0004
8008
4010
3FE0
ENDCHAR
STARTCHAR 04E1
ENCODING 1249
SWIDTH 468 0
DWIDTH 13 0
BBX 13 20 -1 -6
BITMAP
7FF0
0010
0020
0040
0080
0080
0100
0200
0200
01E0
0010
0008
0008
0008
0008
0008
8008
4010
1020
0FC0
ENDCHAR
STARTCHAR 04E2
ENCODING 1250
SWIDTH 792 0
DWIDTH 22 0
BBX 15 23 4 0
BITMAP
0FE0
0000
0000
0000
8002
8006
800A
8012
8012
8022
8042
8082
8102
8102
8202
8402
8802
8802
9002
A002
C002
8002
8002
ENDCHAR
STARTCHAR 04E3
ENCODING 1251
SWIDTH 648 0
DWIDTH 18 0
BBX 12 19 3 0
BITMAP
1FC0
0000
0000
0000
0000
8010
8030
8050
8090
8090
8110
8210
8410
8810
9010
9010
A010
C010
8010
ENDCHAR
STARTCHAR 04E4
ENCODING 1252
SWIDTH 792 0
DWIDTH 22 0
BBX 15 23 4 0
BITMAP
0C40
0000
0000
0000
8002
8006
800A
8012
8012
8022
8042
8082
8102
8102
8202
8402
8802
8802
9002
A002
C002
8002
8002
ENDCHAR
STARTCHAR 04E5
ENCODING 1253
SWIDTH 648 0
DWIDTH 18 0
BBX 12 19 3 0
BITMAP
1880
0000
0000
0000
0000
8010
8030
8050
8090
8090
8110
8210
8410
8810
9010
9010
A010
C010
8010
ENDCHAR
STARTCHAR 04E6
ENCODING 1254
SWIDTH 828 0
DWIDTH 23 0
BBX 20 23 2 0
BITMAP
011800
000000
000000
000000
079E00
080100
300080
400040
400020
800020
800020
800010
800010
800010
800010
800010
800020
800020
400040
200040
100080
080300
07FC00
ENDCHAR
STARTCHAR 04E7
ENCODING 1255
SWIDTH 612 0
DWIDTH 17 0
BBX 14 19 2 0
BITMAP
08C0
0000
0000
0000
0000
1FC0
2030
4010
8008
8008
8004
8004
8004
8004
8008
8008
4010
2020
1FC0
ENDCHAR
STARTCHAR 04E8
ENCODING 1256
SWIDTH 828 0
DWIDTH 23 0
BBX 20 19 2 1
BITMAP
079E00
080100
300080
400040
400020
800020
800020
800010
800010
FFFFF0
800010
800010
800020
800020
400040
200040
100080
080300
07FC00
ENDCHAR
STARTCHAR 04E9
ENCODING 1257
SWIDTH 612 0
DWIDTH 17 0
BBX 14 14 2 0
BITMAP
1FE0
2010
4008
8008
8004
8004
8004
FFFC
8004
8004
8008
4010
2020
1FC0
ENDCHAR
STARTCHAR 04EA
ENCODING 1258
SWIDTH 828 0
DWIDTH 23 0
BBX 20 23 2 0
BITMAP
011800
000000
000000
000000
079E00
080100
300080
400040
400020
800020
800020
800010
800010
FFFFF0
800010
800010
800020
800020
400040
200040
100080
080300
07FC00
ENDCHAR
STARTCHAR 04EB
ENCODING 1259
SWIDTH 612 0
DWIDTH 17 0
BBX 14 19 2 0
BITMAP
08C0
0000
0000
0000
0000
1FE0
2010
4008
8008
8004
8004
8004
FFFC
8004
8004
8008
4010
2020
1FC0
ENDCHAR
STARTCHAR 04EC
ENCODING 1260
SWIDTH 684 0
DWIDTH 19 0
BBX 17 23 1 0
BITMAP
046000
000000
000000
030000
3CE000
401800
000400
000200
000200
000100
000100
000100
000080
07FF80
000080
000100
000100
000100
000200
000200
800400
401800
3FE000
ENDCHAR
STARTCHAR 04ED
ENCODING 1261
SWIDTH 540 0
DWIDTH 15 0
BBX 13 19 1 0
BITMAP
1080
0000
0000
0000
0000
3F80
C060
0010
0010
0008
0008
0FF8
0008
0008
0008
0010
0020
8040
7F80
ENDCHAR
STARTCHAR 04EE
ENCODING 1262
SWIDTH 648 0
DWIDTH 18 0
BBX 16 23 1 0
BITMAP
0FF0
0000
0000
0000
8001
8001
4002
2002
2004
1004
1008
0810
0810
0420
0420
0240
0240
0180
0080
0100
0100
0200
3C00
ENDCHAR
STARTCHAR 04EF
ENCODING 1263
SWIDTH 504 0
DWIDTH 14 0
BBX 14 24 0 -5
BITMAP
1FE0
0000
0000
0000
0000
8004
4008
4008
2010
2010
1010
1020
0820
0840
0440
0480
0680
0300
0100
0200
0200
0200
0400
F800
ENDCHAR
STARTCHAR 04F0
ENCODING 1264
SWIDTH 648 0
DWIDTH 18 0
BBX 16 23 1 0
BITMAP
0460
0000
0000
0000
8001
8001
4002
2002
2004
1004
1008
0810
0810
0420
0420
0240
0240
0180
0080
0100
0100
0200
3C00
ENDCHAR
STARTCHAR 04F1
ENCODING 1265
SWIDTH 504 0
DWIDTH 14 0
BBX 14 24 0 -5
BITMAP
08C0
0000
0000
0000
0000
8004
4008
4008
2010
2010
1010
1020
0820
0840
0440
0480
0680
0300
0100
0200
0200
0200
0400
F800
ENDCHAR
STARTCHAR 04F2
ENCODING 1266
SWIDTH 648 0
DWIDTH 18 0
BBX 16 24 1 0
BITMAP
0088
0110
0220
0000
0000
8001
8001
4002
2002
2004
1004
1008
0810
0810
0420
0420
0240
0240
0180
0080
0100
0100
0200
3C00
ENDCHAR
STARTCHAR 04F3
ENCODING 1267
SWIDTH 504 0
DWIDTH 14 0
BBX 14 25 0 -5
BITMAP
0110
0220
0440
0000
0000
0000
8004
4008
4008
2010
2010
1010
1020
0820
0840
0440
0480
0680
0300
0100
0200
0200
0200
0400
F800
ENDCHAR
STARTCHAR 04F4
ENCODING 1268
SWIDTH 720 0
DWIDTH 20 0
BBX 14 23 2 0
BITMAP
0C40
0000
0000
0000
8004
8004
8004
8004
8004
8004
8004
8004
8004
4004
200C
1FF4
0004
0004
0004
0004
0004
0004
0004
ENDCHAR
STARTCHAR 04F5
ENCODING 1269
SWIDTH 576 0
DWIDTH 16 0
BBX 11 19 2 0
BITMAP
3100
0000
0000
0000
0000
8020
8020
8020
8020
8020
8020
8020
4060
3FA0
0020
0020
0020
0020
0020
ENDCHAR
STARTCHAR 04F6
ENCODING 1270
SWIDTH 540 0
DWIDTH 15 0
BBX 11 24 4 -5
BITMAP
FFE0
8000
8000
8000
8000
8000
8000
8000
8000
8000
8000
8000
8000
8000
8000
8000
8000
8000
F000
1000
1000
1000
1000
1000
ENDCHAR
STARTCHAR 04F7
ENCODING 1271
SWIDTH 432 0
DWIDTH 12 0
BBX 9 17 3 -3
BITMAP
FF80
8000
8000
8000
8000
8000
8000
8000
8000
8000
8000
8000
8000
E000
2000
2000
2000
ENDCHAR
STARTCHAR 04F8
ENCODING 1272
SWIDTH 936 0
DWIDTH 26 0
BBX 19 23 4 0
BITMAP
031000
000000
000000
000000
800020
800020
800020
800020
800020
800020
800020
FFE020
801020
800820
800420
800420
800420
800420
800420
800420
800820
801020
FFE020
ENDCHAR
STARTCHAR 04F9
ENCODING 1273
SWIDTH 720 0
DWIDTH 20 0
BBX 14 19 3 0
BITMAP
0460
0000
0000
0000
0000
8004
8004
8004
8004
8004
FF04
80C4
8044
8024
8024
8024
8044
8044
FF84
ENDCHAR
STARTCHAR 04FA
ENCODING 1274
SWIDTH 576 0
DWIDTH 16 0
BBX 13 24 2 -5
BITMAP
3FF8
2000
2000
2000
2000
2000
2000
2000
2000
2000
FFE0
2000
2000
2000
2000
2000
2000
2000
3C00
0400
0400
0400
0400
F800
ENDCHAR
STARTCHAR 04FB
ENCODING 1275
SWIDTH 432 0
DWIDTH 12 0
BBX 11 19 0 -5
BITMAP
1FE0
1000
1000
1000
1000
1000
1000
7FE0
1000
1000
1000
1000
1000
0E00
0200
0200
0200
0400
FC00
ENDCHAR
STARTCHAR 04FC
ENCODING 1276
SWIDTH 576 0
DWIDTH 16 0
BBX 15 24 1 -5
BITMAP
4004
2008
2008
1010
0820
0840
0440
0280
0100
0300
0280
0440
0820
0820
1010
2008
4008
4004
8004
0002
0002
0002
0002
007C
ENDCHAR
STARTCHAR 04FD
ENCODING 1277
SWIDTH 468 0
DWIDTH 13 0
BBX 12 19 1 -5
BITMAP
4020
4040
2080
1100
0900
0A00
0400
0A00
0900
1080
2080
4040
4020
8020
0010
0010
0010
0010
03E0
ENDCHAR
STARTCHAR 04FE
ENCODING 1278
SWIDTH 612 0
DWIDTH 17 0
BBX 15 19 1 0
BITMAP
4004
2004
1008
1010
0820
0420
0440
0280
0180
3FF8
0280
0440
0420
0810
1010
2008
2004
4004
8002
ENDCHAR
STARTCHAR 04FF
ENCODING 1279
SWIDTH 504 0
DWIDTH 14 0
BBX 12 14 1 0
BITMAP
4030
2020
3040
1080
0900
0500
3FE0
0600
0900
1080
1040
2020
4020
8010
ENDCHAR
STARTCHAR 0510
ENCODING 1296
SWIDTH 612 0
DWIDTH 17 0
BBX 14 20 2 0
BITMAP
0100
1EF0
2008
4000
4000
4000
4000
4000
2000
1C00
13C0
6000
8000
8000
8000
8000
8000
4004
2008
1FF0
ENDCHAR
STARTCHAR 0511
ENCODING 1297
SWIDTH 504 0
DWIDTH 14 0
BBX 11 14 2 0
BITMAP
3FC0
4000
8000
8000
8000
4000
3F00
7000
8000
8000
8000
8000
4020
3FC0
ENDCHAR
STARTCHAR 0512
ENCODING 1298
SWIDTH 756 0
DWIDTH 21 0
BBX 18 25 0 -6
BITMAP
07FFC0
040040
040040
040040
040040
040040
040040
040040
040040
040040
040040
040040
040040
080040
080040
080040
080040
100040
A00040
400040
000040
000040
000040
000880
000700
ENDCHAR
STARTCHAR 0513
ENCODING 1299
SWIDTH 612 0
DWIDTH 17 0
BBX 13 19 1 -5
BITMAP
1FF8
1008
1008
1008
1008
1008
2008
2008
2008
2008
2008
2008
4008
C008
0008
0008
0008
0008
01F0
ENDCHAR
STARTCHAR 051A
ENCODING 1306
SWIDTH 828 0
DWIDTH 23 0
BBX 21 22 2 -2
BITMAP
079E00
080100
300080
400040
400020
800020
800020
800010
800010
800010
800010
800010
800020
800020
400040
200040
100080
080300
079C00
007000
000808
0007F0
ENDCHAR
STARTCHAR 051B
ENCODING 1307
SWIDTH 648 0
DWIDTH 18 0
BBX 14 19 2 -5
BITMAP
1FC4
2034
4014
800C
8004
8004
8004
8004
8004
8004
800C
4014
2024
1DC4
0204
0004
0004
0004
0004
ENDCHAR
STARTCHAR 051C
ENCODING 1308
SWIDTH 1044 0
DWIDTH 29 0
BBX 27 19 1 0
BITMAP
800C0020
800C0040
400A0040
40120040
40110080
20110080
20210080
20208100
10208100
10408100
10404200
08404200
08804200
08802400
04802400
05002400
05001800
03001800
02000800
ENDCHAR
STARTCHAR 051D
ENCODING 1309
SWIDTH 900 0
DWIDTH 25 0
BBX 23 14 1 0
BITMAP
801002
802802
802804
404804
404404
204408
208208
208210
110310
110110
0A0120
0A00A0
0A00C0
040040
ENDCHAR
STARTCHAR 0524
ENCODING 1316
SWIDTH 828 0
DWIDTH 23 0
BBX 19 24 4 -5
BITMAP
FFFE00
800200
800200
800200
800200
800200
800200
800200
800200
800200
800200
800200
800200
800200
800200
800200
800200
800200
8001E0
000020
000020
000020
000020
000020
ENDCHAR
STARTCHAR 0525
ENCODING 1317
SWIDTH 648 0
DWIDTH 18 0
BBX 15 17 3 -3
BITMAP
FFF0
8010
8010
8010
8010
8010
8010
8010
8010
8010
8010
8010
8010
800E
0002
0002
0002
ENDCHAR
STARTCHAR 0526
ENCODING 1318
SWIDTH 756 0
DWIDTH 21 0
BBX 17 23 4 -5
BITMAP
800000
800000
800000
800000
800000
800000
800000
BFE000
C01800
800800
800400
800400
800400
800400
800400
800400
800400
800400
800780
000080
000080
000080
000080
ENDCHAR
STARTCHAR 0527
ENCODING 1319
SWIDTH 648 0
DWIDTH 18 0
BBX 15 24 3 -3
BITMAP
8000
8000
8000
8000
8000
8000
8000
9FC0
A020
C010
8010
8008
8008
8008
8008
8008
8008
8008
8008
8008
800E
0002
0002
0002
ENDCHAR
STARTCHAR 0528
ENCODING 1320
SWIDTH 792 0
DWIDTH 22 0
BBX 21 25 -2 -6
BITMAP
040008
040008
040008
040008
040008
040008
040008
040008
040008
07FFF8
040008
040008
040008
040008
040008
040008
040008
040008
040008
040000
040000
040000
040000
840000
780000
ENDCHAR
STARTCHAR 0529
ENCODING 1321
SWIDTH 648 0
DWIDTH 18 0
BBX 17 19 -2 -5
BITMAP
040080
040080
040080
040080
040080
040080
07FF80
040080
040080
040080
040080
040080
040080
040080
040000
040000
040000
040000
F80000
ENDCHAR
STARTCHAR 052E
ENCODING 1326
SWIDTH 792 0
DWIDTH 22 0
BBX 21 24 0 -5
BITMAP
07FFC0
040040
040040
040040
040040
040040
040040
040040
040040
040040
040040
040040
040040
080040
080040
080040
080040
100040
A00078
400008
000008
000008
000008
000008
ENDCHAR
STARTCHAR 052F
ENCODING 1327
SWIDTH 612 0
DWIDTH 17 0
BBX 16 17 0 -3
BITMAP
0FFC
0804
0804
0804
0804
0804
1004
1004
1004
1004
1004
1004
2004
E007
0001
0001
0001
ENDCHAR
STARTCHAR 1E08
ENCODING 7688
SWIDTH 684 0
DWIDTH 19 0
BBX 16 30 2 -6
BITMAP
0010
0020
0040
0000
0060
079C
1803
2000
4000
8000
8000
8000
8000
8000
8000
8000
8000
8000
8000
4000
2000
1000
0803
07BC
00C0
0080
0060
0020
0020
01C0
ENDCHAR
STARTCHAR 1E09
ENCODING 7689
SWIDTH 540 0
DWIDTH 15 0
BBX 12 26 1 -6
BITMAP
0040
0080
0100
0200
0000
0000
0FE0
3010
4000
4000
8000
8000
8000
8000
8000
4000
4000
2000
1010
0EE0
0300
0200
0180
0080
0080
0700
ENDCHAR
STARTCHAR 1E0C
ENCODING 7692
SWIDTH 792 0
DWIDTH 22 0
BBX 17 24 4 -5
BITMAP
FFF000
800C00
800200
800100
800100
800080
800080
800080
800080
800080
800080
800080
800080
800100
800100
800200
800400
800800
FFF000
000000
000000
000000
000000
030000
ENDCHAR
STARTCHAR 1E0D
ENCODING 7693
SWIDTH 648 0
DWIDTH 18 0
BBX 14 25 1 -4
BITMAP
0004
0004
0004
0004
0004
0004
0FE4
3014
400C
4004
8004
8004
8004
8004
8004
4004
4004
200C
1014
0EE4
0100
0000
0000
0000
0080
ENDCHAR
STARTCHAR 1E0E
ENCODING 7694
SWIDTH 792 0
DWIDTH 22 0
BBX 17 23 4 -4
BITMAP
FFF000
800C00
800200
800100
800100
800080
800080
800080
800080
800080
800080
800080
800080
800100
800100
800200
800400
800800
FFF000
000000
000000
000000
0FC000
ENDCHAR
STARTCHAR 1E0F
ENCODING 7695
SWIDTH 648 0
DWIDTH 18 0
BBX 14 24 1 -3
BITMAP
0004
0004
0004
0004
0004
0004
0FE4
3014
400C
4004
8004
8004
8004
8004
8004
4004
4004
200C
1014
0EE4
0100
0000
0000
07E0
ENDCHAR
STARTCHAR 1E14
ENCODING 7700
SWIDTH 648 0
DWIDTH 18 0
BBX 13 27 4 0
BITMAP
1000
0C00
0200
0000
0000
1F80
0000
0000
FFF0
8000
8000
8000
8000
8000
8000
8000
8000
FFC0
8000
8000
8000
8000
8000
8000
8000
8000
FFF8
ENDCHAR
STARTCHAR 1E15
ENCODING 7701
SWIDTH 576 0
DWIDTH 16 0
BBX 14 23 1 0
BITMAP
0800
0600
0100
0000
0000
0FC0
0000
0000
0000
0FE0
3010
4008
4008
8004
8004
FFFC
8000
8000
8000
4000
2008
1010
0FE0
ENDCHAR
STARTCHAR 1E16
ENCODING 7702
SWIDTH 648 0
DWIDTH 18 0
BBX 13 27 4 0
BITMAP
0080
0300
0400
0000
0000
1F80
0000
0000
FFF0
8000
8000
8000
8000
8000
8000
8000
8000
FFC0
8000
8000
8000
8000
8000
8000
8000
8000
FFF8
ENDCHAR
STARTCHAR 1E17
ENCODING 7703
SWIDTH 576 0
DWIDTH 16 0
BBX 14 23 1 0
BITMAP
0040
0080
0300
0000
0000
0FC0
0000
0000
0000
0FE0
3010
4008
4008
8004
8004
FFFC
8000
8000
8000
4000
2008
1010
0FE0
ENDCHAR
STARTCHAR 1E1C
ENCODING 7708
SWIDTH 648 0
DWIDTH 18 0
BBX 13 30 4 -6
BITMAP
2040
2080
1F00
0000
0000
FFF0
8000
8000
8000
8000
8000
8000
8000
8000
FFC0
8000
8000
8000
8000
8000
8000
8000
8000
FFF8
0200
0400
0300
0080
0100
0E00
ENDCHAR
STARTCHAR 1E1D
ENCODING 7709
SWIDTH 576 0
DWIDTH 16 0
BBX 14 26 1 -6
BITMAP
0020
0840
04C0
0300
0000
0000
0FE0
3010
4008
4008
8004
8004
FFFC
8000
8000
8000
4000
2008
1010
0EE0
0300
0200
0180
0080
0080
0700
ENDCHAR
STARTCHAR 1E20
ENCODING 7712
SWIDTH 756 0
DWIDTH 21 0
BBX 16 23 2 0
BITMAP
07F8
0000
0000
0060
079C
1803
2000
4000
8000
8000
8000
8000
8000
8000
8001
8001
8001
8001
4001
2001
1000
0803
07FC
ENDCHAR
STARTCHAR 1E21
ENCODING 7713
SWIDTH 648 0
DWIDTH 18 0
BBX 15 24 1 -5
BITMAP
0FF0
0000
0000
0000
0000
0FE2
301A
400A
4006
8002
8002
8002
8002
8002
4006
400A
200A
1832
07C2
0004
0004
0004
2008
1FF0
ENDCHAR
STARTCHAR 1E24
ENCODING 7716
SWIDTH 792 0
DWIDTH 22 0
BBX 15 24 4 -5
BITMAP
8002
8002
8002
8002
8002
8002
8002
8002
8002
FFFE
8002
8002
8002
8002
8002
8002
8002
8002
8002
0000
0000
0000
0000
0100
ENDCHAR
STARTCHAR 1E25
ENCODING 7717
SWIDTH 648 0
DWIDTH 18 0
BBX 13 26 3 -5
BITMAP
8000
8000
8000
8000
8000
8000
8000
9FC0
A020
C010
8010
8010
8008
8008
8008
8008
8008
8008
8008
8008
8008
0000
0000
0000
0000
0200
ENDCHAR
STARTCHAR 1E2A
ENCODING 7722
SWIDTH 792 0
DWIDTH 22 0
BBX 15 25 4 -6
BITMAP
8002
8002
8002
8002
8002
8002
8002
8002
8002
FFFE
8002
8002
8002
8002
8002
8002
8002
8002
8002
0000
0000
0020
1020
0C40
0380
ENDCHAR
STARTCHAR 1E2B
ENCODING 7723
SWIDTH 648 0
DWIDTH 18 0
BBX 13 27 3 -6
BITMAP
8000
8000
8000
8000
8000
8000
8000
9FC0
A020
C010
8010
8010
8008
8008
8008
8008
8008
8008
8008
8008
8008
0000
0000
0040
2040
1880
0700
ENDCHAR
STARTCHAR 1E2E
ENCODING 7726
SWIDTH 252 0
DWIDTH 7 0
BBX 6 27 1 0
BITMAP
04
18
20
00
84
00
00
00
20
20
20
20
20
20
20
20
20
20
20
20
20
20
20
20
20
20
20
ENDCHAR
STARTCHAR 1E2F
ENCODING 7727
SWIDTH 216 0
DWIDTH 6 0
BBX 6 23 0 0
BITMAP
04
08
10
00
C4
00
00
00
00
10
10
10
10
10
10
10
10
10
10
10
10
10
10
ENDCHAR
STARTCHAR 1E36
ENCODING 7734
SWIDTH 576 0
DWIDTH 16 0
BBX 12 24 4 -5
BITMAP
8000
8000
8000
8000
8000
8000
8000
8000
8000
8000
8000
8000
8000
8000
8000
8000
8000
8000
FFF0
0000
0000
0000
0000
0600
ENDCHAR
STARTCHAR 1E37
ENCODING 7735
SWIDTH 216 0
DWIDTH 6 0
BBX 1 26 3 -5
BITMAP
80
80
80
80
80
80
80
80
80
80
80
80
80
80
80
80
80
80
80
80
80
00
00
00
80
80
ENDCHAR
STARTCHAR 1E3A
ENCODING 7738
SWIDTH 576 0
DWIDTH 16 0
BBX 12 23 4 -4
BITMAP
8000
8000
8000
8000
8000
8000
8000
8000
8000
8000
8000
8000
8000
8000
8000
8000
8000
8000
FFF0
0000
0000
0000
1F80
ENDCHAR
STARTCHAR 1E3B
ENCODING 7739
SWIDTH 216 0
DWIDTH 6 0
BBX 7 25 0 -4
BITMAP
10
10
10
10
10
10
10
10
10
10
10
10
10
10
10
10
10
10
10
10
10
00
00
00
FE
ENDCHAR
STARTCHAR 1E42
ENCODING 7746
SWIDTH 936 0
DWIDTH 26 0
BBX 19 24 4 -5
BITMAP
800020
800060
C000A0
C000A0
A00120
900120
900220
880420
880420
840820
840820
821020
811020
812020
80C020
804020
800020
800020
800020
000000
000000
000000
000000
004000
ENDCHAR
STARTCHAR 1E43
ENCODING 7747
SWIDTH 1044 0
DWIDTH 29 0
BBX 24 19 3 -5
BITMAP
9FC3F8
A02404
C01802
801802
801001
801001
801001
801001
801001
801001
801001
801001
801001
801001
000000
000000
000000
000000
001800
ENDCHAR
STARTCHAR 1E44
ENCODING 7748
SWIDTH 792 0
DWIDTH 22 0
BBX 15 23 4 0
BITMAP
0100
0000
0000
0000
8002
C002
C002
A002
9002
8802
8402
8402
8202
8102
8082
8082
8042
8022
8012
800A
800A
8006
8002
ENDCHAR
STARTCHAR 1E45
ENCODING 7749
SWIDTH 648 0
DWIDTH 18 0
BBX 13 19 3 0
BITMAP
0200
0000
0000
0000
0000
9FC0
A020
C010
8010
8010
8008
8008
8008
8008
8008
8008
8008
8008
8008
ENDCHAR
STARTCHAR 1E46
ENCODING 7750
SWIDTH 792 0
DWIDTH 22 0
BBX 15 24 4 -5
BITMAP
8002
C002
C002
A002
9002
8802
8402
8402
8202
8102
8082
8082
8042
8022
8012
800A
800A
8006
8002
0000
0000
0000
0000
0100
ENDCHAR
STARTCHAR 1E47
ENCODING 7751
SWIDTH 648 0
DWIDTH 18 0
BBX 13 19 3 -5
BITMAP
9FC0
A020
C010
8010
8010
8008
8008
8008
8008
8008
8008
8008
8008
8008
0000
0000
0000
0000
0200
ENDCHAR
STARTCHAR 1E48
ENCODING 7752
SWIDTH 792 0
DWIDTH 22 0
BBX 15 23 4 -4
BITMAP
8002
C002
C002
A002
9002
8802
8402
8402
8202
8102
8082
8082
8042
8022
8012
800A
800A
8006
8002
0000
0000
0000
0FE0
ENDCHAR
STARTCHAR 1E49
ENCODING 7753
SWIDTH 648 0
DWIDTH 18 0
BBX 13 18 3 -4
BITMAP
9FC0
A020
C010
8010
8010
8008
8008
8008
8008
8008
8008
8008
8008
8008
0000
0000
0000
1FC0
ENDCHAR
STARTCHAR 1E4C
ENCODING 7756
SWIDTH 828 0
DWIDTH 23 0
BBX 20 27 2 0
BITMAP
001000
002000
004000
000000
03C800
003000
000000
006000
079C00
180300
200080
400040
800040
800020
800020
800020
800010
800010
800010
800020
800020
800020
400040
200080
100100
080200
07FC00
ENDCHAR
STARTCHAR 1E4D
ENCODING 7757
SWIDTH 576 0
DWIDTH 16 0
BBX 14 23 1 0
BITMAP
0040
0080
0100
0000
0F20
00C0
0000
0000
0000
0FE0
3010
4008
4004
8004
8004
8004
8004
8004
4004
4004
2008
1010
0FE0
ENDCHAR
STARTCHAR 1E4E
ENCODING 7758
SWIDTH 828 0
DWIDTH 23 0
BBX 20 26 2 1
BITMAP
011800
000000
000000
03C800
003000
000000
006000
079C00
180300
200080
400040
800040
800020
800020
800020
800010
800010
800010
800020
800020
800020
400040
200080
100100
080200
07FC00
ENDCHAR
STARTCHAR 1E4F
ENCODING 7759
SWIDTH 576 0
DWIDTH 16 0
BBX 14 22 1 0
BITMAP
0C40
0000
0000
0F20
00C0
0000
0000
0000
0FE0
3010
4008
4004
8004
8004
8004
8004
8004
4004
4004
2008
1010
0FE0
ENDCHAR
STARTCHAR 1E50
ENCODING 7760
SWIDTH 828 0
DWIDTH 23 0
BBX 20 27 2 0
BITMAP
010000
008000
004000
000000
000000
03F800
000000
006000
079C00
180300
200080
400040
800040
800020
800020
800020
800010
800010
800010
800020
800020
800020
400040
200080
100100
080200
07FC00
ENDCHAR
STARTCHAR 1E51
ENCODING 7761
SWIDTH 576 0
DWIDTH 16 0
BBX 14 23 1 0
BITMAP
0C00
0200
0100
0000
0000
0FE0
0000
0000
0000
0FE0
3010
4008
4004
8004
8004
8004
8004
8004
4004
4004
2008
1010
0FE0
ENDCHAR
STARTCHAR 1E52
ENCODING 7762
SWIDTH 828 0
DWIDTH 23 0
BBX 20 27 2 0
BITMAP
001000
002000
004000
000000
000000
03F800
000000
006000
079C00
180300
200080
400040
800040
800020
800020
800020
800010
800010
800010
800020
800020
800020
400040
200080
100100
080200
07FC00
ENDCHAR
STARTCHAR 1E53
ENCODING 7763
SWIDTH 576 0
DWIDTH 16 0
BBX 14 23 1 0
BITMAP
0040
0080
0100
0000
0000
0FE0
0000
0000
0000
0FE0
3010
4008
4004
8004
8004
8004
8004
8004
4004
4004
2008
1010
0FE0
ENDCHAR
STARTCHAR 1E5A
ENCODING 7770
SWIDTH 684 0
DWIDTH 19 0
BBX 14 24 4 -5
BITMAP
FFE0
8010
8008
8008
8004
8004
8004
8004
8008
8008
8010
8060
FFC0
8040
8020
8010
8010
8008
8004
0000
0000
0000
0000
0200
ENDCHAR
STARTCHAR 1E5B
ENCODING 7771
SWIDTH 360 0
DWIDTH 10 0
BBX 6 19 3 -5
BITMAP
9C
E0
C0
80
80
80
80
80
80
80
80
80
80
80
00
00
00
80
80
ENDCHAR
STARTCHAR 1E5E
ENCODING 7774
SWIDTH 684 0
DWIDTH 19 0
BBX 14 23 4 -4
BITMAP
FFE0
8010
8008
8008
8004
8004
8004
8004
8008
8008
8010
8060
FFC0
8040
8020
8010
8010
8008
8004
0000
0000
0000
1F80
ENDCHAR
STARTCHAR 1E5F
ENCODING 7775
SWIDTH 360 0
DWIDTH 10 0
BBX 9 18 0 -4
BITMAP
1380
1C00
1800
1000
1000
1000
1000
1000
1000
1000
1000
1000
1000
1000
0000
0000
0000
FE00
ENDCHAR
STARTCHAR 1E60
ENCODING 7776
SWIDTH 576 0
DWIDTH 16 0
BBX 13 23 2 0
BITMAP
0300
0000
0000
0300
3CE0
4010
8000
8000
8000
8000
8000
4000
3800
0700
00E0
0010
0008
0008
0008
0008
8010
4010
3FE0
ENDCHAR
STARTCHAR 1E61
ENCODING 7777
SWIDTH 432 0
DWIDTH 12 0
BBX 11 19 1 0
BITMAP
0400
0000
0000
0000
0000
3F80
4040
8000
8000
8000
4000
3800
0780
0040
0020
0020
0020
8040
7F80
ENDCHAR
STARTCHAR 1E62
ENCODING 7778
SWIDTH 576 0
DWIDTH 16 0
BBX 13 25 2 -5
BITMAP
0300
3CE0
4010
8000
8000
8000
8000
8000
4000
3800
0700
00E0
0010
0008
0008
0008
0008
8010
4010
3DE0
0200
0000
0000
0000
0200
ENDCHAR
STARTCHAR 1E63
ENCODING 7779
SWIDTH 432 0
DWIDTH 12 0
BBX 11 19 1 -5
BITMAP
3F80
4040
8000
8000
8000
4000
3800
0780
0040
0020
0020
0020
8040
7B80
0400
0000
0000
0400
0400
ENDCHAR
STARTCHAR 1E64
ENCODING 7780
SWIDTH 576 0
DWIDTH 16 0
BBX 13 26 2 1
BITMAP
0200
0000
0040
0180
0200
0000
0300
3CE0
4010
8000
8000
8000
8000
8000
4000
3800
0700
00E0
0010
0008
0008
0008
0008
8010
4010
3FE0
ENDCHAR
STARTCHAR 1E65
ENCODING 7781
SWIDTH 432 0
DWIDTH 12 0
BBX 11 22 1 0
BITMAP
0400
0000
0080
0300
0400
0000
0000
0000
3F80
4040
8000
8000
8000
4000
3800
0780
0040
0020
0020
0020
8040
7F80
ENDCHAR
STARTCHAR 1E66
ENCODING 7782
SWIDTH 576 0
DWIDTH 16 0
BBX 13 26 2 0
BITMAP
0200
0000
0000
0840
0780
0000
0300
3CE0
4010
8000
8000
8000
8000
8000
4000
3800
0700
00E0
0010
0008
0008
0008
0008
8010
4010
3FE0
ENDCHAR
STARTCHAR 1E67
ENCODING 7783
SWIDTH 432 0
DWIDTH 12 0
BBX 11 22 1 0
BITMAP
0400
0400
0000
2180
1A00
0400
0000
0000
3F80
4040
8000
8000
8000
4000
3800
0780
0040
0020
0020
0020
8040
7F80
ENDCHAR
STARTCHAR 1E68
ENCODING 7784
SWIDTH 576 0
DWIDTH 16 0
BBX 13 28 2 -5
BITMAP
0300
0000
0000
0300
3CE0
4010
8000
8000
8000
8000
8000
4000
3800
0700
00E0
0010
0008
0008
0008
0008
8010
4010
3DE0
0200
0000
0000
0000
0200
ENDCHAR
STARTCHAR 1E69
ENCODING 7785
SWIDTH 432 0
DWIDTH 12 0
BBX 11 24 1 -5
BITMAP
0400
0000
0000
0000
0000
3F80
4040
8000
8000
8000
4000
3800
0780
0040
0020
0020
0020
8040
7B80
0400
0000
0000
0400
0400
ENDCHAR
STARTCHAR 1E6C
ENCODING 7788
SWIDTH 540 0
DWIDTH 15 0
BBX 14 24 1 -5
BITMAP
FFFC
0200
0200
0200
0200
0200
0200
0200
0200
0200
0200
0200
0200
0200
0200
0200
0200
0200
0200
0000
0000
0000
0200
0200
ENDCHAR
STARTCHAR 1E6D
ENCODING 7789
SWIDTH 360 0
DWIDTH 10 0
BBX 8 23 1 -5
BITMAP
20
20
20
20
FE
20
20
20
20
20
20
20
20
20
20
20
10
0F
00
00
00
00
04
ENDCHAR
STARTCHAR 1E6E
ENCODING 7790
SWIDTH 540 0
DWIDTH 15 0
BBX 14 23 1 -4
BITMAP
FFFC
0200
0200
0200
0200
0200
0200
0200
0200
0200
0200
0200
0200
0200
0200
0200
0200
0200
0200
0000
0000
0000
1FC0
ENDCHAR
STARTCHAR 1E6F
ENCODING 7791
SWIDTH 360 0
DWIDTH 10 0
BBX 9 22 1 -4
BITMAP
2000
2000
2000
2000
FE00
2000
2000
2000
2000
2000
2000
2000
2000
2000
2000
2000
1000
0F00
0000
0000
0000
3F80
ENDCHAR
STARTCHAR 1E78
ENCODING 7800
SWIDTH 792 0
DWIDTH 22 0
BBX 15 27 4 0
BITMAP
0040
0180
0200
0000
1E20
1140
0000
0000
8002
8002
8002
8002
8002
8002
8002
8002
8002
8002
8002
8002
8004
8004
8004
8004
4008
2010
1FE0
ENDCHAR
STARTCHAR 1E79
ENCODING 7801
SWIDTH 648 0
DWIDTH 18 0
BBX 12 23 3 0
BITMAP
0080
0100
0600
0000
1C40
2380
0000
0000
0000
8010
8010
8010
8010
8010
8010
8010
8010
8010
8010
8010
8030
4050
3F90
ENDCHAR
STARTCHAR 1E7A
ENCODING 7802
SWIDTH 792 0
DWIDTH 22 0
BBX 15 27 4 0
BITMAP
0040
0840
0000
0000
0000
0FC0
0000
0000
8002
8002
8002
8002
8002
8002
8002
8002
8002
8002
8002
8002
8004
8004
8004
8004
4008
2010
1FE0
ENDCHAR
STARTCHAR 1E7B
ENCODING 7803
SWIDTH 648 0
DWIDTH 18 0
BBX 12 22 3 0
BITMAP
1880
0000
0000
0000
1F80
0000
0000
0000
8010
8010
8010
8010
8010
8010
8010
8010
8010
8010
8010
8030
4050
3F90
ENDCHAR
STARTCHAR 1E80
ENCODING 7808
SWIDTH 1080 0
DWIDTH 30 0
BBX 27 24 1 0
BITMAP
00100000
00080000
00060000
00000000
00000000
80060020
40060020
400A0020
40090040
20090040
20110040
20108080
10108080
10208080
10204100
08404100
08404100
08402200
04802200
04801200
04801400
03001400
03000C00
01000800
ENDCHAR
STARTCHAR 1E81
ENCODING 7809
SWIDTH 828 0
DWIDTH 23 0
BBX 23 20 0 0
BITMAP
00C000
002000
001000
000000
000000
000000
801002
402804
402804
404808
204408
204408
208210
108210
110210
090120
090120
0A0140
0600C0
020040
ENDCHAR
STARTCHAR 1E82
ENCODING 7810
SWIDTH 1080 0
DWIDTH 30 0
BBX 27 24 1 0
BITMAP
00008000
00010000
00060000
00000000
00000000
80060020
40060020
400A0020
40090040
20090040
20110040
20108080
10108080
10208080
10204100
08404100
08404100
08402200
04802200
04801200
04801400
03001400
03000C00
01000800
ENDCHAR
STARTCHAR 1E83
ENCODING 7811
SWIDTH 828 0
DWIDTH 23 0
BBX 23 20 0 0
BITMAP
000200
000C00
001000
000000
000000
000000
801002
402804
402804
404808
204408
204408
208210
108210
110210
090120
090120
0A0140
0600C0
020040
ENDCHAR
STARTCHAR 1E84
ENCODING 7812
SWIDTH 1080 0
DWIDTH 30 0
BBX 27 23 1 0
BITMAP
00108000
00000000
00000000
00000000
80060020
40060020
400A0020
40090040
20090040
20110040
20108080
10108080
10208080
10204100
08404100
08404100
08402200
04802200
04801200
04801400
03001400
03000C00
01000800
ENDCHAR
STARTCHAR 1E85
ENCODING 7813
SWIDTH 828 0
DWIDTH 23 0
BBX 23 19 0 0
BITMAP
004600
000000
000000
000000
000000
801002
402804
402804
404808
204408
204408
208210
108210
110210
090120
090120
0A0140
0600C0
020040
ENDCHAR
STARTCHAR 1E8E
ENCODING 7822
SWIDTH 576 0
DWIDTH 16 0
BBX 15 23 1 0
BITMAP
0100
0000
0000
0000
8002
8004
4004
4008
2008
1010
1020
0820
0840
0440
0280
0300
0100
0100
0100
0100
0100
0100
0100
ENDCHAR
STARTCHAR 1E8F
ENCODING 7823
SWIDTH 504 0
DWIDTH 14 0
BBX 15 24 -1 -5
BITMAP
0100
0000
0000
0000
0000
4002
2004
2004
1008
1008
1010
0810
0820
0420
0440
0240
0240
0180
0080
0100
0100
0200
0200
FC00
ENDCHAR
STARTCHAR 1E92
ENCODING 7826
SWIDTH 612 0
DWIDTH 17 0
BBX 16 24 1 -5
BITMAP
7FFE
0004
0008
0008
0010
0020
0040
0040
0080
0100
0200
0200
0400
0800
1000
2000
2000
4000
FFFF
0000
0000
0000
0000
0080
ENDCHAR
STARTCHAR 1E93
ENCODING 7827
SWIDTH 468 0
DWIDTH 13 0
BBX 11 19 1 -5
BITMAP
7FE0
0040
0080
0080
0100
0200
0400
0400
0800
1000
2000
2000
4000
FFE0
0000
0000
0000
0000
0200
ENDCHAR
STARTCHAR 1E97
ENCODING 7831
SWIDTH 360 0
DWIDTH 10 0
BBX 8 22 1 0
BITMAP
8C
00
00
00
20
20
20
20
FE
20
20
20
20
20
20
20
20
20
20
20
10
0F
ENDCHAR
STARTCHAR 1E9E
ENCODING 7838
SWIDTH 720 0
DWIDTH 20 0
BBX 15 20 4 0
BITMAP
0200
1CF0
6008
8008
8010
8020
8040
8080
8100
83E0
8018
8004
8004
8002
8002
8002
8002
8004
8008
87F0
ENDCHAR
STARTCHAR 1EA0
ENCODING 7840
SWIDTH 684 0
DWIDTH 19 0
BBX 19 24 0 -5
BITMAP
00C000
00A000
00A000
011000
011000
020800
020800
040400
040400
080400
080200
100200
100100
2FFF00
200080
200080
400040
400040
800020
000000
000000
000000
004000
004000
ENDCHAR
STARTCHAR 1EA1
ENCODING 7841
SWIDTH 540 0
DWIDTH 15 0
BBX 11 19 2 -5
BITMAP
3F80
C040
0020
0020
0020
0020
3FE0
4020
8020
8020
8020
8060
80A0
7720
0800
0000
0000
0000
0400
ENDCHAR
STARTCHAR 1EA2
ENCODING 7842
SWIDTH 684 0
DWIDTH 19 0
BBX 19 26 0 0
BITMAP
004000
00A000
001000
002000
002000
000000
000000
00C000
00A000
00A000
011000
011000
020800
020800
040400
040400
080400
080200
100200
100100
2FFF00
200080
200080
400040
400040
800020
ENDCHAR
STARTCHAR 1EA3
ENCODING 7843
SWIDTH 540 0
DWIDTH 15 0
BBX 11 21 2 0
BITMAP
0E00
0100
0100
0200
0000
0000
0000
3F80
C040
0020
0020
0020
0020
3FE0
4020
8020
8020
8020
8060
80A0
7F20
ENDCHAR
STARTCHAR 1EA4
ENCODING 7844
SWIDTH 684 0
DWIDTH 19 0
BBX 19 26 0 0
BITMAP
000100
000600
000800
00E000
031800
000000
000000
00C000
00A000
00A000
011000
011000
020800
020800
040400
040400
080400
080200
100200
100100
2FFF00
200080
200080
400040
400040
800020
ENDCHAR
STARTCHAR 1EA5
ENCODING 7845
SWIDTH 540 0
DWIDTH 15 0
BBX 12 22 2 0
BITMAP
0010
0020
00C0
0E00
1100
0080
0000
0000
3F80
C040
0020
0020
0020
0020
3FE0
4020
8020
8020
8020
8060
80A0
7F20
ENDCHAR
STARTCHAR 1EA6
ENCODING 7846
SWIDTH 684 0
DWIDTH 19 0
BBX 19 26 0 0
BITMAP
002000
001000
000C00
00E000
031800
000000
000000
00C000
00A000
00A000
011000
011000
020800
020800
040400
040400
080400
080200
100200
100100
2FFF00
200080
200080
400040
400040
800020
ENDCHAR
STARTCHAR 1EA7
ENCODING 7847
SWIDTH 540 0
DWIDTH 15 0
BBX 11 22 2 0
BITMAP
0200
0100
0080
0E40
1100
0080
0000
0000
3F80
C040
0020
0020
0020
0020
3FE0
4020
8020
8020
8020
8060
80A0
7F20
ENDCHAR
STARTCHAR 1EA8
ENCODING 7848
SWIDTH 684 0
DWIDTH 19 0
BBX 19 26 0 0
BITMAP
001C00
000400
000800
00E000
031800
000000
000000
00C000
00A000
00A000
011000
011000
020800
020800
040400
040400
080400
080200
100200
100100
2FFF00
200080
200080
400040
400040
800020
ENDCHAR
STARTCHAR 1EA9
ENCODING 7849
SWIDTH 540 0
DWIDTH 15 0
BBX 11 22 2 0
BITMAP
01C0
0040
0040
0E00
1100
0080
0000
0000
3F80
C040
0020
0020
0020
0020
3FE0
4020
8020
8020
8020
8060
80A0
7F20
ENDCHAR
STARTCHAR 1EAA
ENCODING 7850
SWIDTH 684 0
DWIDTH 19 0
BBX 19 26 0 0
BITMAP
03C800
003000
000000
00E000
031800
000000
000000
00C000
00A000
00A000
011000
011000
020800
020800
040400
040400
080400
080200
100200
100100
2FFF00
200080
200080
400040
400040
800020
ENDCHAR
STARTCHAR 1EAB
ENCODING 7851
SWIDTH 540 0
DWIDTH 15 0
BBX 11 22 2 0
BITMAP
3800
0780
0000
0E00
1100
0080
0000
0000
3F80
C040
0020
0020
0020
0020
3FE0
4020
8020
8020
8020
8060
80A0
7F20
ENDCHAR
STARTCHAR 1EAC
ENCODING 7852
SWIDTH 684 0
DWIDTH 19 0
BBX 19 29 0 -5
BITMAP
00E000
011000
020800
000000
000000
00C000
00A000
00A000
011000
011000
020800
020800
040400
040400
080400
080200
100200
100100
2FFF00
200080
200080
400040
400040
800020
000000
000000
000000
004000
004000
ENDCHAR
STARTCHAR 1EAD
ENCODING 7853
SWIDTH 540 0
DWIDTH 15 0
BBX 11 25 2 -5
BITMAP
0600
1900
2080
0000
0000
0000
3F80
C040
0020
0020
0020
0020
3FE0
4020
8020
8020
8020
8060
80A0
7720
0800
0000
0000
0000
0400
ENDCHAR
STARTCHAR 1EAE
ENCODING 7854
SWIDTH 684 0
DWIDTH 19 0
BBX 19 26 0 0
BITMAP
001000
006000
000000
020800
01B000
004000
000000
00C000
00A000
00A000
011000
011000
020800
020800
040400
040400
080400
080200
100200
100100
2FFF00
200080
200080
400040
400040
800020
ENDCHAR
STARTCHAR 1EAF
ENCODING 7855
SWIDTH 540 0
DWIDTH 15 0
BBX 11 22 2 0
BITMAP
0100
0200
0C00
2080
1B00
0400
0000
0000
3F80
C040
0020
0020
0020
0020
3FE0
4020
8020
8020
8020
8060
80A0
7F20
ENDCHAR
STARTCHAR 1EB0
ENCODING 7856
SWIDTH 684 0
DWIDTH 19 0
BBX 19 26 0 0
BITMAP
010000
00C000
000000
020800
01B000
004000
000000
00C000
00A000
00A000
011000
011000
020800
020800
040400
040400
080400
080200
100200
100100
2FFF00
200080
200080
400040
400040
800020
ENDCHAR
STARTCHAR 1EB1
ENCODING 7857
SWIDTH 540 0
DWIDTH 15 0
BBX 11 22 2 0
BITMAP
1000
0C00
0200
2080
1B00
0400
0000
0000
3F80
C040
0020
0020
0020
0020
3FE0
4020
8020
8020
8020
8060
80A0
7F20
ENDCHAR
STARTCHAR 1EB2
ENCODING 7858
SWIDTH 684 0
DWIDTH 19 0
BBX 19 26 0 0
BITMAP
006000
002000
004000
020800
01B000
004000
000000
00C000
00A000
00A000
011000
011000
020800
020800
040400
040400
080400
080200
100200
100100
2FFF00
200080
200080
400040
400040
800020
ENDCHAR
STARTCHAR 1EB3
ENCODING 7859
SWIDTH 540 0
DWIDTH 15 0
BBX 11 22 2 0
BITMAP
0E00
0200
0200
2080
1B00
0400
0000
0000
3F80
C040
0020
0020
0020
0020
3FE0
4020
8020
8020
8020
8060
80A0
7F20
ENDCHAR
STARTCHAR 1EB4
ENCODING 7860
SWIDTH 684 0
DWIDTH 19 0
BBX 19 26 0 0
BITMAP
038000
007800
000000
020800
01B000
004000
000000
00C000
00A000
00A000
011000
011000
020800
020800
040400
040400
080400
080200
100200
100100
2FFF00
200080
200080
400040
400040
800020
ENDCHAR
STARTCHAR 1EB5
ENCODING 7861
SWIDTH 540 0
DWIDTH 15 0
BBX 11 22 2 0
BITMAP
1800
4780
0000
2080
1B00
0400
0000
0000
3F80
C040
0020
0020
0020
0020
3FE0
4020
8020
8020
8020
8060
80A0
7F20
ENDCHAR
STARTCHAR 1EB6
ENCODING 7862
SWIDTH 684 0
DWIDTH 19 0
BBX 19 29 0 -5
BITMAP
040800
020800
01B000
004000
000000
00C000
00A000
00A000
011000
011000
020800
020800
040400
040400
080400
080200
100200
100100
2FFF00
200080
200080
400040
400040
800020
000000
000000
000000
004000
004000
ENDCHAR
STARTCHAR 1EB7
ENCODING 7863
SWIDTH 540 0
DWIDTH 15 0
BBX 11 24 2 -4
BITMAP
2080
1100
0E00
0000
0000
3F80
C040
0020
0020
0020
0020
3FE0
4020
8020
8020
8020
8060
80A0
7720
0800
0000
0000
0000
0400
ENDCHAR
STARTCHAR 1EB8
ENCODING 7864
SWIDTH 648 0
DWIDTH 18 0
BBX 13 24 4 -5
BITMAP
FFF0
8000
8000
8000
8000
8000
8000
8000
8000
FFC0
8000
8000
8000
8000
8000
8000
8000
8000
FFF8
0000
0000
0000
0200
0200
ENDCHAR
STARTCHAR 1EB9
ENCODING 7865
SWIDTH 576 0
DWIDTH 16 0
BBX 14 19 1 -5
BITMAP
0FE0
3010
4008
4008
8004
8004
FFFC
8000
8000
8000
4000
2008
1010
0EE0
0100
0000
0000
0000
0100
ENDCHAR
STARTCHAR 1EBA
ENCODING 7866
SWIDTH 648 0
DWIDTH 18 0
BBX 13 25 4 1
BITMAP
0F00
0100
0100
0200
0000
0000
FFF0
8000
8000
8000
8000
8000
8000
8000
8000
FFC0
8000
8000
8000
8000
8000
8000
8000
8000
FFF8
ENDCHAR
STARTCHAR 1EBB
ENCODING 7867
SWIDTH 576 0
DWIDTH 16 0
BBX 14 21 1 0
BITMAP
0780
0080
0080
0100
0000
0000
0000
0FE0
3010
4008
4008
8004
8004
FFFC
8000
8000
8000
4000
2008
1010
0FE0
ENDCHAR
STARTCHAR 1EBC
ENCODING 7868
SWIDTH 648 0
DWIDTH 18 0
BBX 13 24 4 0
BITMAP
1840
2480
2300
0000
0000
FFF0
8000
8000
8000
8000
8000
8000
8000
8000
FFC0
8000
8000
8000
8000
8000
8000
8000
8000
FFF8
ENDCHAR
STARTCHAR 1EBD
ENCODING 7869
SWIDTH 576 0
DWIDTH 16 0
BBX 14 20 1 0
BITMAP
0420
1A20
11C0
0000
0000
0000
0FE0
3010
4008
4008
8004
8004
FFFC
8000
8000
8000
4000
2008
1010
0FE0
ENDCHAR
STARTCHAR 1EBE
ENCODING 7870
SWIDTH 648 0
DWIDTH 18 0
BBX 13 26 4 0
BITMAP
0010
0020
0040
0F00
1080
0000
0000
FFF0
8000
8000
8000
8000
8000
8000
8000
8000
FFC0
8000
8000
8000
8000
8000
8000
8000
8000
FFF8
ENDCHAR
STARTCHAR 1EBF
ENCODING 7871
SWIDTH 576 0
DWIDTH 16 0
BBX 14 22 1 0
BITMAP
000C
0010
0020
0300
0CC0
0000
0000
0000
0FE0
3010
4008
4008
8004
8004
FFFC
8000
8000
8000
4000
2008
1010
0FE0
ENDCHAR
STARTCHAR 1EC0
ENCODING 7872
SWIDTH 648 0
DWIDTH 18 0
BBX 13 26 4 0
BITMAP
0300
0080
0040
0F00
1080
0000
0000
FFF0
8000
8000
8000
8000
8000
8000
8000
8000
FFC0
8000
8000
8000
8000
8000
8000
8000
8000
FFF8
ENDCHAR
STARTCHAR 1EC1
ENCODING 7873
SWIDTH 576 0
DWIDTH 16 0
BBX 14 22 1 0
BITMAP
0180
0040
0020
0300
0CC0
0000
0000
0000
0FE0
3010
4008
4008
8004
8004
FFFC
8000
8000
8000
4000
2008
1010
0FE0
ENDCHAR
STARTCHAR 1EC2
ENCODING 7874
SWIDTH 648 0
DWIDTH 18 0
BBX 13 26 4 0
BITMAP
01C0
0040
0040
0F00
1080
0000
0000
FFF0
8000
8000
8000
8000
8000
8000
8000
8000
FFC0
8000
8000
8000
8000
8000
8000
8000
8000
FFF8
ENDCHAR
STARTCHAR 1EC3
ENCODING 7875
SWIDTH 576 0
DWIDTH 16 0
BBX 14 22 1 0
BITMAP
00E0
0010
0020
0300
0CC0
0000
0000
0000
0FE0
3010
4008
4008
8004
8004
FFFC
8000
8000
8000
4000
2008
1010
0FE0
ENDCHAR
STARTCHAR 1EC4
ENCODING 7876
SWIDTH 648 0
DWIDTH 18 0
BBX 13 26 4 0
BITMAP
1C40
2180
0000
0F00
1080
0000
0000
FFF0
8000
8000
8000
8000
8000
8000
8000
8000
FFC0
8000
8000
8000
8000
8000
8000
8000
8000
FFF8
ENDCHAR
STARTCHAR 1EC5
ENCODING 7877
SWIDTH 576 0
DWIDTH 16 0
BBX 14 22 1 0
BITMAP
0E20
11C0
0000
0300
0CC0
0000
0000
0000
0FE0
3010
4008
4008
8004
8004
FFFC
8000
8000
8000
4000
2008
1010
0FE0
ENDCHAR
STARTCHAR 1EC6
ENCODING 7878
SWIDTH 648 0
DWIDTH 18 0
BBX 13 29 4 -5
BITMAP
0600
0900
1080
0000
0000
FFF0
8000
8000
8000
8000
8000
8000
8000
8000
FFC0
8000
8000
8000
8000
8000
8000
8000
8000
FFF8
0000
0000
0000
0200
0200
ENDCHAR
STARTCHAR 1EC7
ENCODING 7879
SWIDTH 576 0
DWIDTH 16 0
BBX 14 25 1 -5
BITMAP
0300
0480
0840
0000
0000
0000
0FE0
3010
4008
4008
8004
8004
FFFC
8000
8000
8000
4000
2008
1010
0EE0
0100
0000
0000
0000
0100
ENDCHAR
STARTCHAR 1EC8
ENCODING 7880
SWIDTH 252 0
DWIDTH 7 0
BBX 4 25 2 1
BITMAP
F0
10
10
20
00
00
40
40
40
40
40
40
40
40
40
40
40
40
40
40
40
40
40
40
40
ENDCHAR
STARTCHAR 1EC9
ENCODING 7881
SWIDTH 216 0
DWIDTH 6 0
BBX 4 21 2 0
BITMAP
E0
10
20
20
00
00
00
40
40
40
40
40
40
40
40
40
40
40
40
40
40
ENDCHAR
STARTCHAR 1ECA
ENCODING 7882
SWIDTH 252 0
DWIDTH 7 0
BBX 2 24 3 -5
BITMAP
80
80
80
80
80
80
80
80
80
80
80
80
80
80
80
80
80
80
80
00
00
00
00
C0
ENDCHAR
STARTCHAR 1ECB
ENCODING 7883
SWIDTH 216 0
DWIDTH 6 0
BBX 1 25 3 -5
BITMAP
80
80
00
00
00
00
80
80
80
80
80
80
80
80
80
80
80
80
80
80
00
00
00
80
80
ENDCHAR
STARTCHAR 1ECC
ENCODING 7884
SWIDTH 828 0
DWIDTH 23 0
BBX 20 25 2 -5
BITMAP
006000
079C00
180300
200080
400040
800040
800020
800020
800020
800010
800010
800010
800020
800020
800020
400040
200080
100100
080200
07BC00
004000
000000
000000
004000
004000
ENDCHAR
STARTCHAR 1ECD
ENCODING 7885
SWIDTH 576 0
DWIDTH 16 0
BBX 14 19 1 -5
BITMAP
0FE0
3010
4008
4004
8004
8004
8004
8004
8004
4004
4004
2008
1010
0EE0
0100
0000
0000
0100
0100
ENDCHAR
STARTCHAR 1ECE
ENCODING 7886
SWIDTH 828 0
DWIDTH 23 0
BBX 20 26 2 0
BITMAP
004000
00A000
001000
002000
002000
000000
006000
079C00
180300
200080
400040
800040
800020
800020
800020
800010
800010
800010
800020
800020
800020
400040
200080
100100
080200
07FC00
ENDCHAR
STARTCHAR 1ECF
ENCODING 7887
SWIDTH 576 0
DWIDTH 16 0
BBX 14 21 1 0
BITMAP
0380
0040
0080
0080
0000
0000
0000
0FE0
3010
4008
4004
8004
8004
8004
8004
8004
4004
4004
2008
1010
0FE0
ENDCHAR
STARTCHAR 1ED0
ENCODING 7888
SWIDTH 828 0
DWIDTH 23 0
BBX 20 26 2 0
BITMAP
000100
000600
000800
00E000
031800
000000
006000
079C00
180300
200080
400040
800040
800020
800020
800020
800010
800010
800010
800020
800020
800020
400040
200080
100100
080200
07FC00
ENDCHAR
STARTCHAR 1ED1
ENCODING 7889
SWIDTH 576 0
DWIDTH 16 0
BBX 14 22 1 0
BITMAP
0004
0008
0030
0380
0440
0820
0000
0000
0FE0
3010
4008
4004
8004
8004
8004
8004
8004
4004
4004
2008
1010
0FE0
ENDCHAR
STARTCHAR 1ED2
ENCODING 7890
SWIDTH 828 0
DWIDTH 23 0
BBX 20 26 2 0
BITMAP
002000
001000
000C00
00E000
031800
000000
006000
079C00
180300
200080
400040
800040
800020
800020
800020
800010
800010
800010
800020
800020
800020
400040
200080
100100
080200
07FC00
ENDCHAR
STARTCHAR 1ED3
ENCODING 7891
SWIDTH 576 0
DWIDTH 16 0
BBX 14 22 1 0
BITMAP
0080
0040
0020
0380
0440
0820
0000
0000
0FE0
3010
4008
4004
8004
8004
8004
8004
8004
4004
4004
2008
1010
0FE0
ENDCHAR
STARTCHAR 1ED4
ENCODING 7892
SWIDTH 828 0
DWIDTH 23 0
BBX 20 26 2 0
BITMAP
001C00
000400
000400
00E000
031800
000000
006000
079C00
180300
200080
400040
800040
800020
800020
800020
800010
800010
800010
800020
800020
800020
400040
200080
100100
080200
07FC00
ENDCHAR
STARTCHAR 1ED5
ENCODING 7893
SWIDTH 576 0
DWIDTH 16 0
BBX 14 22 1 0
BITMAP
0060
0010
0010
0380
0440
0820
0000
0000
0FE0
3010
4008
4004
8004
8004
8004
8004
8004
4004
4004
2008
1010
0FE0
ENDCHAR
STARTCHAR 1ED6
ENCODING 7894
SWIDTH 828 0
DWIDTH 23 0
BBX 20 26 2 0
BITMAP
03C800
003000
000000
00E000
031800
000000
006000
079C00
180300
200080
400040
800040
800020
800020
800020
800010
800010
800010
800020
800020
800020
400040
200080
100100
080200
07FC00
ENDCHAR
STARTCHAR 1ED7
ENCODING 7895
SWIDTH 576 0
DWIDTH 16 0
BBX 14 22 1 0
BITMAP
0E00
01E0
0000
0380
0440
0820
0000
0000
0FE0
3010
4008
4004
8004
8004
8004
8004
8004
4004
4004
2008
1010
0FE0
ENDCHAR
STARTCHAR 1ED8
ENCODING 7896
SWIDTH 828 0
DWIDTH 23 0
BBX 20 29 2 -5
BITMAP
00E000
011000
020800
000000
006000
079C00
180300
200080
400040
800040
800020
800020
800020
800010
800010
800010
800020
800020
800020
400040
200080
100100
080200
07BC00
004000
000000
000000
004000
004000
ENDCHAR
STARTCHAR 1ED9
ENCODING 7897
SWIDTH 576 0
DWIDTH 16 0
BBX 14 25 1 -5
BITMAP
0100
0680
0820
0000
0000
0000
0FE0
3010
4008
4004
8004
8004
8004
8004
8004
4004
4004
2008
1010
0EE0
0100
0000
0000
0100
0100
ENDCHAR
STARTCHAR 1EDA
ENCODING 7898
SWIDTH 828 0
DWIDTH 23 0
BBX 20 24 2 0
BITMAP
001800
002020
004020
000020
004040
079F80
180300
200080
400040
800040
800020
800020
800020
800010
800010
800010
800020
800020
800020
400040
200080
100100
080200
07FC00
ENDCHAR
STARTCHAR 1EDB
ENCODING 7899
SWIDTH 576 0
DWIDTH 16 0
BBX 14 20 1 0
BITMAP
0020
00C0
0104
0004
0004
0008
0FF0
3010
4008
4004
8004
8004
8004
8004
8004
4004
4004
2008
1010
0FE0
ENDCHAR
STARTCHAR 1EDC
ENCODING 7900
SWIDTH 828 0
DWIDTH 23 0
BBX 20 24 2 0
BITMAP
010000
008020
004020
000020
004040
079F80
180300
200080
400040
800040
800020
800020
800020
800010
800010
800010
800020
800020
800020
400040
200080
100100
080200
07FC00
ENDCHAR
STARTCHAR 1EDD
ENCODING 7901
SWIDTH 576 0
DWIDTH 16 0
BBX 14 20 1 0
BITMAP
0800
0600
0104
0004
0004
0008
0FF0
3010
4008
4004
8004
8004
8004
8004
8004
4004
4004
2008
1010
0FE0
ENDCHAR
STARTCHAR 1EDE
ENCODING 7902
SWIDTH 828 0
DWIDTH 23 0
BBX 20 26 2 0
BITMAP
004000
00A000
001000
002020
002020
000020
004040
079F80
180300
200080
400040
800040
800020
800020
800020
800010
800010
800010
800020
800020
800020
400040
200080
100100
080200
07FC00
ENDCHAR
STARTCHAR 1EDF
ENCODING 7903
SWIDTH 576 0
DWIDTH 16 0
BBX 14 21 1 0
BITMAP
0380
0040
0080
0084
0004
0004
0008
0FF0
3010
4008
4004
8004
8004
8004
8004
8004
4004
4004
2008
1010
0FE0
ENDCHAR
STARTCHAR 1EE0
ENCODING 7904
SWIDTH 828 0
DWIDTH 23 0
BBX 20 24 2 0
BITMAP
018000
024820
003020
000020
004040
079F80
180300
200080
400040
800040
800020
800020
800020
800010
800010
800010
800020
800020
800020
400040
200080
100100
080200
07FC00
ENDCHAR
STARTCHAR 1EE1
ENCODING 7905
SWIDTH 612 0
DWIDTH 17 0
BBX 14 20 1 0
BITMAP
0400
0920
00C4
0004
0004
0008
0FF0
3010
4008
4004
8004
8004
8004
8004
8004
4004
4004
2008
1010
0FE0
ENDCHAR
STARTCHAR 1EE2
ENCODING 7906
SWIDTH 828 0
DWIDTH 23 0
BBX 20 28 2 -5
BITMAP
000020
000020
000020
004040
079F80
180300
200080
400040
800040
800020
800020
800020
800010
800010
800010
800020
800020
800020
400040
200080
100100
080200
07BC00
004000
000000
000000
004000
004000
ENDCHAR
STARTCHAR 1EE3
ENCODING 7907
SWIDTH 576 0
DWIDTH 16 0
BBX 14 23 1 -5
BITMAP
0004
0004
0004
0008
0FF0
3010
4008
4004
8004
8004
8004
8004
8004
4004
4004
2008
1010
0EE0
0100
0000
0000
0100
0100
ENDCHAR
STARTCHAR 1EE4
ENCODING 7908
SWIDTH 792 0
DWIDTH 22 0
BBX 15 24 4 -5
BITMAP
8002
8002
8002
8002
8002
8002
8002
8002
8002
8002
8002
8002
8004
8004
8004
8004
4008
2010
1FE0
0000
0000
0000
0000
0300
ENDCHAR
STARTCHAR 1EE5
ENCODING 7909
SWIDTH 648 0
DWIDTH 18 0
BBX 12 19 3 -5
BITMAP
8010
8010
8010
8010
8010
8010
8010
8010
8010
8010
8010
8030
4050
3B90
0400
0000
0000
0000
0200
ENDCHAR
STARTCHAR 1EE6
ENCODING 7910
SWIDTH 792 0
DWIDTH 22 0
BBX 15 25 4 1
BITMAP
0780
0080
0080
0100
0000
0000
8002
8002
8002
8002
8002
8002
8002
8002
8002
8002
8002
8002
8004
8004
8004
8004
4008
2010
1FE0
ENDCHAR
STARTCHAR 1EE7
ENCODING 7911
SWIDTH 648 0
DWIDTH 18 0
BBX 12 21 3 0
BITMAP
0F00
0100
0100
0200
0000
0000
0000
8010
8010
8010
8010
8010
8010
8010
8010
8010
8010
8010
8030
4050
3F90
ENDCHAR
STARTCHAR 1EE8
ENCODING 7912
SWIDTH 792 0
DWIDTH 22 0
BBX 17 24 4 0
BITMAP
004000
008080
030080
000080
000100
800200
800200
800200
800200
800200
800200
800200
800200
800200
800200
800200
800200
800400
800400
800400
800400
400800
201000
1FE000
ENDCHAR
STARTCHAR 1EE9
ENCODING 7913
SWIDTH 648 0
DWIDTH 18 0
BBX 14 20 3 0
BITMAP
0080
0100
0204
0004
0004
0004
8018
8010
8010
8010
8010
8010
8010
8010
8010
8010
8010
8030
4050
3F90
ENDCHAR
STARTCHAR 1EEA
ENCODING 7914
SWIDTH 792 0
DWIDTH 22 0
BBX 17 24 4 0
BITMAP
080000
040080
030080
000080
000100
800200
800200
800200
800200
800200
800200
800200
800200
800200
800200
800200
800200
800400
800400
800400
800400
400800
201000
1FE000
ENDCHAR
STARTCHAR 1EEB
ENCODING 7915
SWIDTH 648 0
DWIDTH 18 0
BBX 14 20 3 0
BITMAP
1000
0800
0604
0004
0004
0004
8018
8010
8010
8010
8010
8010
8010
8010
8010
8010
8010
8030
4050
3F90
ENDCHAR
STARTCHAR 1EEC
ENCODING 7916
SWIDTH 792 0
DWIDTH 22 0
BBX 17 25 4 1
BITMAP
078000
008000
008080
010080
000080
000100
800200
800200
800200
800200
800200
800200
800200
800200
800200
800200
800200
800200
800400
800400
800400
800400
400800
201000
1FE000
ENDCHAR
STARTCHAR 1EED
ENCODING 7917
SWIDTH 648 0
DWIDTH 18 0
BBX 14 21 3 0
BITMAP
0F00
0100
0100
0204
0004
0004
0004
8018
8010
8010
8010
8010
8010
8010
8010
8010
8010
8010
8030
4050
3F90
ENDCHAR
STARTCHAR 1EEE
ENCODING 7918
SWIDTH 792 0
DWIDTH 22 0
BBX 17 24 4 0
BITMAP
0C2000
132080
10C080
000080
000100
800200
800200
800200
800200
800200
800200
800200
800200
800200
800200
800200
800200
800400
800400
800400
800400
400800
201000
1FE000
ENDCHAR
STARTCHAR 1EEF
ENCODING 7919
SWIDTH 648 0
DWIDTH 18 0
BBX 14 20 3 0
BITMAP
0840
3440
2384
0004
0004
0004
8018
8010
8010
8010
8010
8010
8010
8010
8010
8010
8010
8030
4050
3F90
ENDCHAR
STARTCHAR 1EF0
ENCODING 7920
SWIDTH 792 0
DWIDTH 22 0
BBX 17 28 4 -5
BITMAP
000080
000080
000080
000100
800200
800200
800200
800200
800200
800200
800200
800200
800200
800200
800200
800200
800400
800400
800400
800400
400800
201000
1FE000
000000
000000
000000
000000
030000
ENDCHAR
STARTCHAR 1EF1
ENCODING 7921
SWIDTH 648 0
DWIDTH 18 0
BBX 14 23 3 -5
BITMAP
0004
0004
0004
0004
8018
8010
8010
8010
8010
8010
8010
8010
8010
8010
8010
8030
4050
3B90
0400
0000
0000
0000
0200
ENDCHAR
STARTCHAR 1EF2
ENCODING 7922
SWIDTH 576 0
DWIDTH 16 0
BBX 15 24 1 0
BITMAP
0C00
0200
0100
0000
0000
8002
8004
4004
4008
2008
1010
1020
0820
0840
0440
0280
0300
0100
0100
0100
0100
0100
0100
0100
ENDCHAR
STARTCHAR 1EF3
ENCODING 7923
SWIDTH 504 0
DWIDTH 14 0
BBX 15 25 -1 -5
BITMAP
0C00
0200
0100
0000
0000
0000
4002
2004
2004
1008
1008
1010
0810
0820
0420
0440
0240
0240
0180
0080
0100
0100
0200
0200
FC00
ENDCHAR
STARTCHAR 1EF4
ENCODING 7924
SWIDTH 576 0
DWIDTH 16 0
BBX 15 24 1 -5
BITMAP
8002
8004
4004
4008
2008
1010
1020
0820
0840
0440
0280
0300
0100
0100
0100
0100
0100
0100
0100
0000
0000
0000
0100
0100
ENDCHAR
STARTCHAR 1EF5
ENCODING 7925
SWIDTH 504 0
DWIDTH 14 0
BBX 15 19 -1 -5
BITMAP
4002
2004
2004
1008
1008
1010
0810
0820
0420
0440
0240
0240
0180
0080
0100
0100
0200
0220
FC20
ENDCHAR
STARTCHAR 1EF6
ENCODING 7926
SWIDTH 576 0
DWIDTH 16 0
BBX 15 26 1 0
BITMAP
0100
0280
0040
0080
0180
0000
0000
8002
8004
4004
4008
2008
1010
1020
0820
0840
0440
0280
0300
0100
0100
0100
0100
0100
0100
0100
ENDCHAR
STARTCHAR 1EF7
ENCODING 7927
SWIDTH 504 0
DWIDTH 14 0
BBX 15 26 -1 -5
BITMAP
0380
0040
0040
0080
0000
0000
0000
4002
2004
2004
1008
1008
1010
0810
0820
0420
0440
0240
0240
0180
0080
0100
0100
0200
0200
FC00
ENDCHAR
STARTCHAR 1EF8
ENCODING 7928
SWIDTH 576 0
DWIDTH 16 0
BBX 15 24 1 0
BITMAP
0600
1120
00C0
0000
0000
8002
8004
4004
4008
2008
1010
1020
0820
0840
0440
0280
0300
0100
0100
0100
0100
0100
0100
0100
ENDCHAR
STARTCHAR 1EF9
ENCODING 7929
SWIDTH 504 0
DWIDTH 14 0
BBX 15 25 -1 -5
BITMAP
0400
0920
00C0
0000
0000
0000
4002
2004
2004
1008
1008
1010
0810
0820
0420
0440
0240
0240
0180
0080
0100
0100
0200
0200
FC00
ENDCHAR
STARTCHAR 2007
ENCODING 8199
SWIDTH 684 0
DWIDTH 19 0
BBX 0 0 0 0
BITMAP
ENDCHAR
STARTCHAR 2008
ENCODING 8200
SWIDTH 180 0
DWIDTH 5 0
BBX 0 0 0 0
BITMAP
ENDCHAR
STARTCHAR 2009
ENCODING 8201
SWIDTH 108 0
DWIDTH 3 0
BBX 0 0 0 0
BITMAP
ENDCHAR
STARTCHAR 200A
ENCODING 8202
SWIDTH 72 0
DWIDTH 2 0
BBX 0 0 0 0
BITMAP
ENDCHAR
STARTCHAR 200B
ENCODING 8203
SWIDTH 0 0
DWIDTH 0 0
BBX 0 0 0 0
BITMAP
ENDCHAR
STARTCHAR 2010
ENCODING 8208
SWIDTH 360 0
DWIDTH 10 0
BBX 7 1 2 7
BITMAP
FE
ENDCHAR
STARTCHAR 2012
ENCODING 8210
SWIDTH 684 0
DWIDTH 19 0
BBX 16 1 2 9
BITMAP
FFFF
ENDCHAR
STARTCHAR 2013
ENCODING 8211
SWIDTH 468 0
DWIDTH 13 0
BBX 14 1 0 7
BITMAP
FFFC
ENDCHAR
STARTCHAR 2014
ENCODING 8212
SWIDTH 972 0
DWIDTH 27 0
BBX 28 1 0 7
BITMAP
FFFFFFF0
ENDCHAR
STARTCHAR 2015
ENCODING 8213
SWIDTH 972 0
DWIDTH 27 0
BBX 28 1 0 7
BITMAP
FFFFFFF0
ENDCHAR
STARTCHAR 2018
ENCODING 8216
SWIDTH 180 0
DWIDTH 5 0
BBX 1 5 2 16
BITMAP
80
80
80
80
80
ENDCHAR
STARTCHAR 2019
ENCODING 8217
SWIDTH 180 0
DWIDTH 5 0
BBX 1 5 2 15
BITMAP
80
80
80
80
80
ENDCHAR
STARTCHAR 201A
ENCODING 8218
SWIDTH 180 0
DWIDTH 5 0
BBX 1 4 2 -4
BITMAP
80
80
80
80
ENDCHAR
STARTCHAR 201C
ENCODING 8220
SWIDTH 288 0
DWIDTH 8 0
BBX 5 6 2 15
BITMAP
08
88
88
90
98
80
ENDCHAR
STARTCHAR 201D
ENCODING 8221
SWIDTH 288 0
DWIDTH 8 0
BBX 5 6 2 15
BITMAP
88
88
88
90
90
10
ENDCHAR
STARTCHAR 201E
ENCODING 8222
SWIDTH 288 0
DWIDTH 8 0
BBX 5 5 2 -4
BITMAP
98
88
90
90
10
ENDCHAR
STARTCHAR 2020
ENCODING 8224
SWIDTH 504 0
DWIDTH 14 0
BBX 13 24 1 -5
BITMAP
0200
0200
0200
0200
0200
0200
0200
FFF8
0200
0200
0200
0200
0200
0200
0200
0200
0200
0200
0200
0200
0200
0200
0200
0200
ENDCHAR
STARTCHAR 2021
ENCODING 8225
SWIDTH 504 0
DWIDTH 14 0
BBX 13 24 1 -5
BITMAP
0200
0200
0200
0200
0200
0200
0200
FFF8
0200
0200
0200
0200
0200
0200
0200
0200
FFF8
0200
0200
0200
0200
0200
0200
0200
ENDCHAR
STARTCHAR 2022
ENCODING 8226
SWIDTH 252 0
DWIDTH 7 0
BBX 3 3 2 6
BITMAP
40
E0
40
ENDCHAR
STARTCHAR 2026
ENCODING 8230
SWIDTH 540 0
DWIDTH 15 0
BBX 12 1 2 0
BITMAP
8430
ENDCHAR
STARTCHAR 2030
ENCODING 8240
SWIDTH 1116 0
DWIDTH 31 0
BBX 30 20 1 0
BITMAP
08000000
36018000
41010000
81020000
80840000
80840000
80880000
81100000
41100000
41200000
3E47C1F0
00482208
00882408
01101408
01101404
02101404
04101408
08082408
08082218
1007C1E0
ENDCHAR
STARTCHAR 2032
ENCODING 8242
SWIDTH 180 0
DWIDTH 5 0
BBX 1 7 2 12
BITMAP
80
80
80
80
80
80
80
ENDCHAR
STARTCHAR 2033
ENCODING 8243
SWIDTH 324 0
DWIDTH 9 0
BBX 5 7 2 12
BITMAP
88
88
88
88
88
88
88
ENDCHAR
STARTCHAR 2039
ENCODING 8249
SWIDTH 252 0
DWIDTH 7 0
BBX 4 10 2 2
BITMAP
10
20
40
80
80
80
40
40
20
10
ENDCHAR
STARTCHAR 203A
ENCODING 8250
SWIDTH 252 0
DWIDTH 7 0
BBX 4 9 2 2
BITMAP
80
80
40
20
10
20
20
40
80
ENDCHAR
STARTCHAR 2044
ENCODING 8260
SWIDTH 144 0
DWIDTH 4 0
BBX 14 19 -5 0
BITMAP
0004
0008
0010
0020
0020
0040
0080
0080
0100
0200
0200
0400
0800
0800
1000
2000
2000
4000
8000
ENDCHAR
STARTCHAR 2052
ENCODING 8274
SWIDTH 432 0
DWIDTH 12 0
BBX 7 19 3 0
BITMAP
82
04
04
04
08
08
08
10
10
10
20
20
20
40
40
40
80
80
86
ENDCHAR
STARTCHAR 2070
ENCODING 8304
SWIDTH 396 0
DWIDTH 11 0
BBX 10 12 1 9
BITMAP
0C00
3300
4080
8080
8040
8040
8040
8040
8040
8080
4100
3E00
ENDCHAR
STARTCHAR 2074
ENCODING 8308
SWIDTH 396 0
DWIDTH 11 0
BBX 10 11 1 9
BITMAP
0200
0400
0800
1000
2000
2000
4200
8200
FFC0
0200
0200
ENDCHAR
STARTCHAR 2075
ENCODING 8309
SWIDTH 396 0
DWIDTH 11 0
BBX 9 12 1 9
BITMAP
3F80
4000
4000
4000
4000
4000
3F00
0080
0080
0080
8080
7F00
ENDCHAR
STARTCHAR 2076
ENCODING 8310
SWIDTH 396 0
DWIDTH 11 0
BBX 10 12 1 9
BITMAP
0700
3800
4000
4000
8000
9E00
A180
4080
4040
4040
4080
3F00
ENDCHAR
STARTCHAR 2077
ENCODING 8311
SWIDTH 396 0
DWIDTH 11 0
BBX 10 11 1 9
BITMAP
FFC0
8080
8080
0100
0100
0200
0200
0400
0400
0800
0800
ENDCHAR
STARTCHAR 2078
ENCODING 8312
SWIDTH 396 0
DWIDTH 11 0
BBX 10 12 1 9
BITMAP
1C00
6180
8080
8080
8080
6100
7F00
80C0
8040
8040
8080
7F00
ENDCHAR
STARTCHAR 2079
ENCODING 8313
SWIDTH 396 0
DWIDTH 11 0
BBX 10 12 1 9
BITMAP
0800
6300
8080
8080
8080
8180
6240
1C80
0080
0080
0100
7E00
ENDCHAR
STARTCHAR 2080
ENCODING 8320
SWIDTH 396 0
DWIDTH 11 0
BBX 10 12 1 -3
BITMAP
0C00
4100
4080
8080
8040
8040
8040
8040
8080
4080
4100
3E00
ENDCHAR
STARTCHAR 2081
ENCODING 8321
SWIDTH 396 0
DWIDTH 11 0
BBX 8 12 2 -3
BITMAP
78
08
08
08
08
08
08
08
08
08
08
FF
ENDCHAR
STARTCHAR 2082
ENCODING 8322
SWIDTH 396 0
DWIDTH 11 0
BBX 9 12 1 -3
BITMAP
3C00
C300
0100
0080
0100
0100
0200
0400
1800
2000
4000
FF80
ENDCHAR
STARTCHAR 2083
ENCODING 8323
SWIDTH 396 0
DWIDTH 11 0
BBX 9 12 1 -3
BITMAP
FF80
0100
0200
0400
0800
0C00
0300
0080
0080
0080
8100
7E00
ENDCHAR
STARTCHAR 2084
ENCODING 8324
SWIDTH 396 0
DWIDTH 11 0
BBX 9 10 1 -2
BITMAP
0400
0800
1000
2000
2000
4200
8200
7F80
0200
0200
ENDCHAR
STARTCHAR 2085
ENCODING 8325
SWIDTH 396 0
DWIDTH 11 0
BBX 9 12 1 -3
BITMAP
3F80
4000
4000
4000
4000
7800
0700
0080
0080
0080
8080
5F00
ENDCHAR
STARTCHAR 2086
ENCODING 8326
SWIDTH 396 0
DWIDTH 11 0
BBX 10 12 1 -3
BITMAP
0F00
3000
4000
8000
8000
9F00
E080
4040
4040
4080
2080
0F00
ENDCHAR
STARTCHAR 2087
ENCODING 8327
SWIDTH 396 0
DWIDTH 11 0
BBX 10 12 1 -3
BITMAP
FFC0
8080
8080
0100
0100
0200
0200
0400
0400
0800
0800
1000
ENDCHAR
STARTCHAR 2088
ENCODING 8328
SWIDTH 396 0
DWIDTH 11 0
BBX 10 12 1 -3
BITMAP
1E00
6180
8080
8080
4080
3F00
4080
8040
8040
8040
4080
1F00
ENDCHAR
STARTCHAR 2089
ENCODING 8329
SWIDTH 396 0
DWIDTH 11 0
BBX 9 12 1 -3
BITMAP
1C00
6300
8080
8080
8080
4180
3680
0880
0080
0080
0100
3E00
ENDCHAR
STARTCHAR 20A1
ENCODING 8353
SWIDTH 684 0
DWIDTH 19 0
BBX 16 26 2 -3
BITMAP
0022
0044
0044
0064
07DC
188B
2088
4088
8088
8110
8110
8110
8110
8220
8220
8220
8220
8440
4440
2440
1840
0883
0FBC
08C0
1080
1100
ENDCHAR
STARTCHAR 20A3
ENCODING 8355
SWIDTH 612 0
DWIDTH 17 0
BBX 15 19 1 0
BITMAP
3FFE
2000
2000
2000
2000
2000
2000
2000
2000
1FFC
2000
2000
2000
2000
FFC0
2000
2000
2000
2000
ENDCHAR
STARTCHAR 20A4
ENCODING 8356
SWIDTH 612 0
DWIDTH 17 0
BBX 15 19 1 1
BITMAP
039E
0C00
1000
1000
1000
1000
1000
FFF0
1000
1000
1000
FFF0
1000
1000
1000
1000
1000
1000
FFFE
ENDCHAR
STARTCHAR 20A6
ENCODING 8358
SWIDTH 828 0
DWIDTH 23 0
BBX 22 19 1 0
BITMAP
100040
180040
140040
120040
120040
110040
108040
FFFFFC
102040
102040
101040
FFEFF8
100440
100440
100240
100140
1000C0
100040
100040
ENDCHAR
STARTCHAR 20A7
ENCODING 8359
SWIDTH 1548 0
DWIDTH 43 0
BBX 38 19 4 0
BITMAP
FFE0000000
8010100000
8008100000
8008100000
8004100000
80047F03F8
8004100C00
8004100800
8008100800
8008100800
8010100400
8060100380
FF80100078
8000100004
8000100004
8000100004
8000100004
8000100804
80000F87F8
ENDCHAR
STARTCHAR 20A9
ENCODING 8361
SWIDTH 1116 0
DWIDTH 31 0
BBX 29 19 1 0
BITMAP
80020008
40050010
40050010
40090010
20088020
20088020
20108040
FFFFFFF8
10104040
10202080
08202080
FFFFFFF8
04401100
04401100
04801100
02800A00
02800A00
03000A00
01000400
ENDCHAR
STARTCHAR 20AB
ENCODING 8363
SWIDTH 648 0
DWIDTH 18 0
BBX 18 23 1 -2
BITMAP
000400
000400
01FFC0
000400
000400
000400
0FE400
301400
400C00
400400
800400
800400
800400
800400
800400
400400
400400
200C00
101400
0EE400
010000
000000
3FFC00
ENDCHAR
STARTCHAR 20AC
ENCODING 8364
SWIDTH 792 0
DWIDTH 22 0
BBX 19 19 1 1
BITMAP
00F380
010060
060000
080000
080000
100000
100000
FFFE00
200000
200000
200000
DFFC00
100000
100000
080000
040000
020000
010060
00FF80
ENDCHAR
STARTCHAR 20AD
ENCODING 8365
SWIDTH 540 0
DWIDTH 15 0
BBX 14 19 1 0
BITMAP
200C
2010
2020
2040
2080
2100
2200
2400
2800
FFF0
2400
2200
2100
2080
2040
2020
2010
2008
2004
ENDCHAR
STARTCHAR 20AE
ENCODING 8366
SWIDTH 648 0
DWIDTH 18 0
BBX 14 19 2 0
BITMAP
FFFC
0200
0200
0200
0200
0210
0260
0180
0608
1A30
6240
0180
0600
1A00
6200
0200
0200
0200
0200
ENDCHAR
STARTCHAR 20B1
ENCODING 8369
SWIDTH 792 0
DWIDTH 22 0
BBX 20 19 1 0
BITMAP
1FFC00
100300
100100
100080
FFFFF0
100080
100080
100080
FFFFF0
100100
100100
100E00
1FF000
100000
100000
100000
100000
100000
100000
ENDCHAR
STARTCHAR 20B2
ENCODING 8370
SWIDTH 756 0
DWIDTH 21 0
BBX 16 25 2 -2
BITMAP
0080
0080
0060
079C
1883
2080
4080
8080
8080
8080
8080
8080
8080
8081
8081
8081
8081
4081
2081
1080
0883
07BC
00C0
0080
0080
ENDCHAR
STARTCHAR 20B4
ENCODING 8372
SWIDTH 792 0
DWIDTH 22 0
BBX 17 20 3 0
BITMAP
018000
0E7800
100400
000400
000200
000200
000200
000400
FFFF80
000000
000000
000000
7FFF00
200000
400000
400000
200000
200200
100400
0FF800
ENDCHAR
STARTCHAR 20B5
ENCODING 8373
SWIDTH 684 0
DWIDTH 19 0
BBX 16 25 2 -2
BITMAP
0080
0080
0060
079C
1883
2080
4080
8080
8080
8080
8080
8080
8080
8080
8080
8080
8080
4080
2080
1080
0883
07BC
00C0
0080
0080
ENDCHAR
STARTCHAR 20B8
ENCODING 8376
SWIDTH 684 0
DWIDTH 19 0
BBX 15 19 2 0
BITMAP
7FFE
0000
0000
FFFE
0100
0100
0100
0100
0100
0100
0100
0100
0100
0100
0100
0100
0100
0100
0100
ENDCHAR
STARTCHAR 20B9
ENCODING 8377
SWIDTH 684 0
DWIDTH 19 0
BBX 18 19 0 0
BITMAP
7FFFC0
000800
000400
FFFFC0
000200
000200
000200
000200
000400
000400
001800
0FE000
002000
001000
001000
000800
000400
000400
000200
ENDCHAR
STARTCHAR 20BA
ENCODING 8378
SWIDTH 648 0
DWIDTH 18 0
BBX 16 19 1 0
BITMAP
1000
1000
1030
10C0
1100
1600
1830
70C0
9300
1C01
3001
5001
9001
1002
1002
1004
1008
1010
1FE0
ENDCHAR
STARTCHAR 20BC
ENCODING 8380
SWIDTH 900 0
DWIDTH 25 0
BBX 18 22 4 1
BITMAP
008000
008000
00C000
0FB800
108600
208100
408100
808080
808080
808080
808040
808040
808040
808040
808040
808040
808040
808040
800040
800040
800040
800040
ENDCHAR
STARTCHAR 20BD
ENCODING 8381
SWIDTH 684 0
DWIDTH 19 0
BBX 17 19 1 0
BITMAP
3FFC00
200200
200100
200080
200080
200080
200080
200080
200080
200100
200200
200C00
2FF000
200000
FFC000
200000
200000
200000
200000
ENDCHAR
STARTCHAR 2113
ENCODING 8467
SWIDTH 432 0
DWIDTH 12 0
BBX 10 19 2 0
BITMAP
0780
0880
1040
1080
1080
1080
2100
2100
2200
2400
2800
5000
2000
4000
C000
4000
4080
4100
3E00
ENDCHAR
STARTCHAR 2116
ENCODING 8470
SWIDTH 1188 0
DWIDTH 33 0
BBX 27 20 4 0
BITMAP
00000200
80020DC0
C0023020
C0022020
A0022020
90022020
88022020
84021040
84020C80
82020300
81020000
80820000
80821FC0
80420000
80220000
80120000
800A0000
800A0000
80060000
80020000
ENDCHAR
STARTCHAR 2122
ENCODING 8482
SWIDTH 972 0
DWIDTH 27 0
BBX 23 11 1 8
BITMAP
FF1002
103006
102806
10240A
102412
102212
102122
102142
1020C2
102002
102002
ENDCHAR
STARTCHAR 2126
ENCODING 8486
SWIDTH 900 0
DWIDTH 25 0
BBX 25 20 0 0
BITMAP
000C0000
00F38000
03006000
04001000
08000800
18000800
10000400
10000400
20000400
20000200
20000200
20000200
20000400
10000400
10000400
08000800
08000800
04001000
03002000
FF80FF80
ENDCHAR
STARTCHAR 212A
ENCODING 8490
SWIDTH 684 0
DWIDTH 19 0
BBX 14 19 4 0
BITMAP
800C
8010
8020
8040
8080
8100
8200
8400
8400
9C00
A200
A100
C080
8040
8020
8010
8008
800C
8004
ENDCHAR
STARTCHAR 212B
ENCODING 8491
SWIDTH 684 0
DWIDTH 19 0
BBX 19 27 0 0
BITMAP
004000
011000
011000
011000
012000
00C000
000000
000000
00C000
00A000
00A000
011000
011000
020800
020800
040400
040400
080400
080200
100200
100100
2FFF00
200080
200080
400040
400040
800020
ENDCHAR
STARTCHAR 212E
ENCODING 8494
SWIDTH 900 0
DWIDTH 25 0
BBX 21 20 2 0
BITMAP
002000
03DE00
0C0180
100040
300060
700070
F00078
F00078
F00078
F00078
FFFFF8
F00000
F00000
F00000
700000
700000
300060
1800C0
040100
03FE00
ENDCHAR
STARTCHAR 2153
ENCODING 8531
SWIDTH 1008 0
DWIDTH 28 0
BBX 23 19 3 0
BITMAP
F000C0
100080
100100
100200
100200
100400
100800
1009FE
101004
102004
102008
EE4010
008020
00801C
010002
020002
020002
040002
0801FC
ENDCHAR
STARTCHAR 2154
ENCODING 8532
SWIDTH 1008 0
DWIDTH 28 0
BBX 25 20 1 0
BITMAP
08000000
77003000
01002000
00804000
01008000
01008000
02010000
04020000
08027F80
10040100
20080100
C0080200
7F900400
00200800
00200700
00400080
00800080
00800080
01000080
02007F00
ENDCHAR
STARTCHAR 215B
ENCODING 8539
SWIDTH 1008 0
DWIDTH 28 0
BBX 24 19 3 0
BITMAP
F000C0
100080
100100
100200
100200
100400
100800
100818
1010C6
102101
102201
EE4101
008086
0080FA
010301
020201
020201
040101
0800FE
ENDCHAR
STARTCHAR 215C
ENCODING 8540
SWIDTH 1008 0
DWIDTH 28 0
BBX 26 19 1 0
BITMAP
7F003000
02002000
04004000
08008000
08008000
07010000
00820000
00820600
00843180
80884040
73088040
0C104040
00202180
00203E80
0040C040
00808040
00808040
01004040
02003F80
ENDCHAR
STARTCHAR 215D
ENCODING 8541
SWIDTH 1008 0
DWIDTH 28 0
BBX 26 19 1 0
BITMAP
7F003000
40002000
40004000
40008000
40008000
3F010000
00820000
00820600
00843180
80884040
73088040
0C104040
00202180
00203E80
0040C040
00808040
00808040
01004040
02003F80
ENDCHAR
STARTCHAR 215E
ENCODING 8542
SWIDTH 1008 0
DWIDTH 28 0
BBX 26 19 1 0
BITMAP
FFC03000
80802000
00804000
01008000
02008000
02010000
04020000
04020600
08043180
08084040
10088040
00104040
00202180
00203E80
0040C040
00808040
00808040
01004040
02003F80
ENDCHAR
STARTCHAR 2190
ENCODING 8592
SWIDTH 576 0
DWIDTH 16 0
BBX 11 9 3 3
BITMAP
1000
2000
2000
4000
FFE0
4000
2000
2000
1000
ENDCHAR
STARTCHAR 2191
ENCODING 8593
SWIDTH 576 0
DWIDTH 16 0
BBX 10 11 3 2
BITMAP
0400
1E00
2580
C440
0400
0400
0400
0400
0400
0400
0400
ENDCHAR
STARTCHAR 2192
ENCODING 8594
SWIDTH 576 0
DWIDTH 16 0
BBX 11 9 2 3
BITMAP
0100
0080
0040
0020
FFE0
0040
0040
0080
0100
ENDCHAR
STARTCHAR 2193
ENCODING 8595
SWIDTH 576 0
DWIDTH 16 0
BBX 10 11 4 2
BITMAP
0800
0800
0800
0800
0800
0800
0800
8840
4980
3A00
0C00
ENDCHAR
STARTCHAR 2194
ENCODING 8596
SWIDTH 576 0
DWIDTH 16 0
BBX 14 9 1 3
BITMAP
1020
2010
2008
4004
FFFC
4004
2008
2010
1020
ENDCHAR
STARTCHAR 2195
ENCODING 8597
SWIDTH 576 0
DWIDTH 16 0
BBX 10 15 3 2
BITMAP
0400
0E00
3500
44C0
8400
0400
0400
0400
0400
0400
0400
C440
2480
1700
0C00
ENDCHAR
STARTCHAR 2196
ENCODING 8598
SWIDTH 576 0
DWIDTH 16 0
BBX 8 9 4 4
BITMAP
02
7C
C0
A0
90
88
84
82
01
ENDCHAR
STARTCHAR 2197
ENCODING 8599
SWIDTH 576 0
DWIDTH 16 0
BBX 8 8 5 4
BITMAP
7E
02
06
09
11
21
41
80
ENDCHAR
STARTCHAR 2198
ENCODING 8600
SWIDTH 576 0
DWIDTH 16 0
BBX 9 9 4 3
BITMAP
8000
4000
2080
1080
0880
0480
0300
0100
3E00
ENDCHAR
STARTCHAR 2199
ENCODING 8601
SWIDTH 576 0
DWIDTH 16 0
BBX 9 9 4 3
BITMAP
0080
0100
8200
8400
8800
9000
A000
6000
1E00
ENDCHAR
STARTCHAR 2202
ENCODING 8706
SWIDTH 684 0
DWIDTH 19 0
BBX 14 20 3 0
BITMAP
0C00
73C0
0020
0010
0008
0008
0008
0004
1F84
2064
C014
8014
800C
800C
8008
8008
8010
8010
4020
3FC0
ENDCHAR
STARTCHAR 2205
ENCODING 8709
SWIDTH 540 0
DWIDTH 15 0
BBX 13 12 1 3
BITMAP
0008
0FD0
1020
2060
4090
4110
4210
4410
2810
1020
2840
C780
ENDCHAR
STARTCHAR 2206
ENCODING 8710
SWIDTH 684 0
DWIDTH 19 0
BBX 19 19 0 0
BITMAP
00C000
00A000
00A000
011000
011000
020800
020800
040400
040400
080400
080200
100200
100100
200100
200080
400080
400040
400040
FFFFE0
ENDCHAR
STARTCHAR 220F
ENCODING 8719
SWIDTH 792 0
DWIDTH 22 0
BBX 15 24 4 -5
BITMAP
FFFE
8002
8002
8002
8002
8002
8002
8002
8002
8002
8002
8002
8002
8002
8002
8002
8002
8002
8002
8002
8002
8002
8002
8002
ENDCHAR
STARTCHAR 2211
ENCODING 8721
SWIDTH 612 0
DWIDTH 17 0
BBX 14 24 2 -5
BITMAP
FFFC
4000
4000
2000
1000
0800
0400
0400
0200
0100
0080
0040
0040
0080
0100
0200
0400
0800
0800
1000
2000
4000
8000
FFFC
ENDCHAR
STARTCHAR 2212
ENCODING 8722
SWIDTH 540 0
DWIDTH 15 0
BBX 11 1 2 9
BITMAP
FFE0
ENDCHAR
STARTCHAR 2215
ENCODING 8725
SWIDTH 288 0
DWIDTH 8 0
BBX 10 25 -1 -3
BITMAP
0040
0040
0080
0080
0100
0100
0100
0200
0200
0200
0400
0400
0400
0800
0800
0800
1000
1000
1000
2000
2000
2000
4000
4000
8000
ENDCHAR
STARTCHAR 2219
ENCODING 8729
SWIDTH 216 0
DWIDTH 6 0
BBX 1 1 3 9
BITMAP
80
ENDCHAR
STARTCHAR 221A
ENCODING 8730
SWIDTH 756 0
DWIDTH 21 0
BBX 19 25 2 -4
BITMAP
000020
000020
000040
000040
000040
000080
000080
000080
000100
000100
F00200
080200
080200
080400
040400
040400
020800
020800
020800
011000
011000
00A000
00A000
00A000
004000
ENDCHAR
STARTCHAR 221E
ENCODING 8734
SWIDTH 900 0
DWIDTH 25 0
BBX 23 10 1 5
BITMAP
0E0060
318398
404404
802802
801002
801002
802802
402804
404404
3F83F8
ENDCHAR
STARTCHAR 222B
ENCODING 8747
SWIDTH 324 0
DWIDTH 9 0
BBX 12 26 -1 -5
BITMAP
00E0
0310
0400
0400
0400
0400
0400
0400
0400
0400
0400
0400
0400
0400
0400
0400
0400
0400
0400
0400
0400
0400
0400
0400
0400
F800
ENDCHAR
STARTCHAR 2248
ENCODING 8776
SWIDTH 540 0
DWIDTH 15 0
BBX 12 9 2 6
BITMAP
F810
8420
03C0
0000
0000
0000
F810
8420
83C0
ENDCHAR
STARTCHAR 2260
ENCODING 8800
SWIDTH 540 0
DWIDTH 15 0
BBX 11 14 2 3
BITMAP
0040
0080
0080
0100
FFE0
0200
0200
0400
0800
0800
FFE0
1000
2000
2000
ENDCHAR
STARTCHAR 2264
ENCODING 8804
SWIDTH 540 0
DWIDTH 15 0
BBX 11 14 2 1
BITMAP
00E0
0300
0C00
7000
8000
7000
0C00
0380
0060
0000
0000
0000
0000
FFE0
ENDCHAR
STARTCHAR 2265
ENCODING 8805
SWIDTH 540 0
DWIDTH 15 0
BBX 11 15 2 0
BITMAP
8000
6000
1C00
0300
00C0
0020
00C0
0700
1800
6000
0000
0000
0000
0000
FFE0
ENDCHAR
STARTCHAR 25A0
ENCODING 9632
SWIDTH 576 0
DWIDTH 16 0
BBX 11 11 3 2
BITMAP
FFE0
FFE0
FFE0
FFE0
FFE0
FFE0
FFE0
FFE0
FFE0
FFE0
FFE0
ENDCHAR
STARTCHAR 25A1
ENCODING 9633
SWIDTH 576 0
DWIDTH 16 0
BBX 11 11 3 2
BITMAP
FFE0
8020
8020
8020
8020
8020
8020
8020
8020
8020
FFE0
ENDCHAR
STARTCHAR 25B2
ENCODING 9650
SWIDTH 576 0
DWIDTH 16 0
BBX 12 12 2 1
BITMAP
0200
0600
0700
0F00
0F80
1F80
1FC0
3FC0
3FE0
7FE0
7FF0
FFF0
ENDCHAR
STARTCHAR 25B3
ENCODING 9651
SWIDTH 576 0
DWIDTH 16 0
BBX 12 12 2 1
BITMAP
0200
0600
0500
0900
0880
1080
1040
2040
2020
4020
4010
FFF0
ENDCHAR
STARTCHAR 25B6
ENCODING 9654
SWIDTH 576 0
DWIDTH 16 0
BBX 12 11 3 1
BITMAP
C000
F000
FC00
FF00
FFC0
FFF0
FFC0
FF00
FC00
F000
C000
ENDCHAR
STARTCHAR 25B7
ENCODING 9655
SWIDTH 576 0
DWIDTH 16 0
BBX 12 11 3 1
BITMAP
C000
B000
8C00
8300
80C0
8030
8060
8180
8600
9800
E000
ENDCHAR
STARTCHAR 25BC
ENCODING 9660
SWIDTH 576 0
DWIDTH 16 0
BBX 11 11 3 1
BITMAP
FFE0
FFC0
7FC0
7F80
3F80
3F00
1F00
1E00
0E00
0C00
0400
ENDCHAR
STARTCHAR 25BD
ENCODING 9661
SWIDTH 576 0
DWIDTH 16 0
BBX 12 11 2 1
BITMAP
FFF0
4020
4020
2040
2040
1080
1080
0900
0900
0600
0200
ENDCHAR
STARTCHAR 25C0
ENCODING 9664
SWIDTH 576 0
DWIDTH 16 0
BBX 11 11 2 1
BITMAP
0020
00E0
03E0
0FE0
3FE0
FFE0
7FE0
1FE0
07E0
01E0
0060
ENDCHAR
STARTCHAR 25C1
ENCODING 9665
SWIDTH 576 0
DWIDTH 16 0
BBX 11 11 2 1
BITMAP
0020
00E0
0320
0C20
3020
C020
6020
1820
0620
01A0
0060
ENDCHAR
STARTCHAR 25C6
ENCODING 9670
SWIDTH 576 0
DWIDTH 16 0
BBX 15 15 1 0
BITMAP
0100
0380
07C0
0FE0
1FF0
3FF8
7FFC
FFFE
7FFC
3FF8
1FF0
0FE0
07C0
0380
0100
ENDCHAR
STARTCHAR 25C7
ENCODING 9671
SWIDTH 576 0
DWIDTH 16 0
BBX 15 15 1 0
BITMAP
0100
0280
0440
0820
1010
2008
4004
8002
8004
4008
2010
1020
0840
0480
0300
ENDCHAR
STARTCHAR 25CA
ENCODING 9674
SWIDTH 468 0
DWIDTH 13 0
BBX 11 16 1 1
BITMAP
0600
0A00
0900
1080
2080
2040
4020
8020
4020
4040
2040
1080
1100
0900
0600
0400
ENDCHAR
STARTCHAR 27E8
ENCODING 10216
SWIDTH 288 0
DWIDTH 8 0
BBX 4 24 2 -4
BITMAP
10
10
20
20
20
40
40
40
80
80
80
80
80
80
80
80
40
40
40
20
20
20
10
10
ENDCHAR
STARTCHAR 27E9
ENCODING 10217
SWIDTH 288 0
DWIDTH 8 0
BBX 5 25 2 -4
BITMAP
80
80
80
40
40
40
20
20
20
10
10
10
08
10
10
10
20
20
20
40
40
40
80
80
80
ENDCHAR
STARTCHAR A78B
ENCODING 42891
SWIDTH 180 0
DWIDTH 5 0
BBX 1 10 2 8
BITMAP
80
80
80
80
80
80
80
80
80
80
ENDCHAR
STARTCHAR A78C
ENCODING 42892
SWIDTH 180 0
DWIDTH 5 0
BBX 1 8 2 9
BITMAP
80
80
80
80
80
80
80
80
ENDCHAR
STARTCHAR FB01
ENCODING 64257
SWIDTH 540 0
DWIDTH 15 0
BBX 12 21 1 0
BITMAP
0600
1990
2010
2000
2000
2000
2000
FE20
2020
2020
2020
2020
2020
2020
2020
2020
2020
2020
2020
2020
2020
ENDCHAR
STARTCHAR FB02
ENCODING 64258
SWIDTH 540 0
DWIDTH 15 0
BBX 11 21 1 0
BITMAP
0600
19A0
2020
2020
2020
2020
2020
FE20
2020
2020
2020
2020
2020
2020
2020
2020
2020
2020
2020
2020
2020
ENDCHAR
ENDFONT
